<ttFont>
    <TTGlyph name="A" xMin="-10" yMin="-4" xMax="727" yMax="711">
      <contour>
        <pt x="227" y="275" on="1"/>
        <pt x="450" y="275" on="1"/>
        <pt x="461" y="275" on="0"/>
        <pt x="457" y="287" on="1"/>
        <pt x="338" y="593" on="1"/>
        <pt x="219" y="285" on="1"/>
        <pt x="216" y="275" on="0"/>
      </contour>
      <contour>
        <pt x="134" y="66" on="1"/>
        <pt x="132" y="60" on="0"/>
        <pt x="132" y="45" on="0"/>
        <pt x="148" y="26" on="0"/>
        <pt x="162" y="25" on="1"/>
        <pt x="184" y="23" on="1"/>
        <pt x="197" y="21" on="0"/>
        <pt x="197" y="10" on="1"/>
        <pt x="197" y="-4" on="0"/>
        <pt x="182" y="-4" on="1"/>
        <pt x="95" y="0" on="1"/>
        <pt x="4" y="-4" on="1"/>
        <pt x="-10" y="-4" on="0"/>
        <pt x="-10" y="23" on="0"/>
        <pt x="1" y="23" on="1"/>
        <pt x="20" y="25" on="1"/>
        <pt x="63" y="30" on="0"/>
        <pt x="78" y="66" on="1"/>
        <pt x="335" y="699" on="1"/>
        <pt x="339" y="711" on="0"/>
        <pt x="378" y="711" on="0"/>
        <pt x="383" y="699" on="1"/>
        <pt x="639" y="66" on="1"/>
        <pt x="652" y="29" on="0"/>
        <pt x="696" y="25" on="1"/>
        <pt x="717" y="23" on="1"/>
        <pt x="721" y="23" on="0"/>
        <pt x="727" y="15" on="0"/>
        <pt x="727" y="11" on="1"/>
        <pt x="727" y="-4" on="0"/>
        <pt x="713" y="-4" on="1"/>
        <pt x="598" y="0" on="1"/>
        <pt x="495" y="-4" on="1"/>
        <pt x="481" y="-4" on="0"/>
        <pt x="481" y="8" on="1"/>
        <pt x="481" y="22" on="0"/>
        <pt x="493" y="23" on="1"/>
        <pt x="516" y="25" on="1"/>
        <pt x="529" y="26" on="0"/>
        <pt x="546" y="44" on="0"/>
        <pt x="546" y="60" on="0"/>
        <pt x="543" y="66" on="1"/>
        <pt x="484" y="219" on="1"/>
        <pt x="481" y="229" on="0"/>
        <pt x="468" y="229" on="1"/>
        <pt x="209" y="229" on="1"/>
        <pt x="197" y="229" on="0"/>
        <pt x="193" y="219" on="1"/>
      </contour>
    </TTGlyph>
    <TTGlyph name="AE" xMin="-11" yMin="-4" xMax="1072" yMax="704">
      <contour>
        <pt x="339" y="275" on="1"/>
        <pt x="583" y="275" on="1"/>
        <pt x="593" y="275" on="0"/>
        <pt x="595" y="287" on="1"/>
        <pt x="595" y="623" on="1"/>
        <pt x="335" y="285" on="1"/>
        <pt x="328" y="275" on="0"/>
      </contour>
      <contour>
        <pt x="595" y="66" on="1"/>
        <pt x="595" y="219" on="1"/>
        <pt x="595" y="229" on="0"/>
        <pt x="583" y="229" on="1"/>
        <pt x="304" y="229" on="1"/>
        <pt x="291" y="229" on="0"/>
        <pt x="284" y="219" on="1"/>
        <pt x="166" y="66" on="1"/>
        <pt x="157" y="54" on="0"/>
        <pt x="157" y="27" on="0"/>
        <pt x="173" y="25" on="1"/>
        <pt x="195" y="23" on="1"/>
        <pt x="208" y="21" on="0"/>
        <pt x="208" y="10" on="1"/>
        <pt x="208" y="-4" on="0"/>
        <pt x="193" y="-4" on="1"/>
        <pt x="95" y="0" on="1"/>
        <pt x="3" y="-4" on="1"/>
        <pt x="-11" y="-4" on="0"/>
        <pt x="-11" y="23" on="0"/>
        <pt x="0" y="23" on="1"/>
        <pt x="19" y="25" on="1"/>
        <pt x="70" y="31" on="0"/>
        <pt x="98" y="66" on="1"/>
        <pt x="593" y="692" on="1"/>
        <pt x="601" y="704" on="0"/>
        <pt x="621" y="704" on="1"/>
        <pt x="729" y="700" on="1"/>
        <pt x="991" y="700" on="1"/>
        <pt x="1010" y="700" on="0"/>
        <pt x="1034" y="677" on="0"/>
        <pt x="1036" y="660" on="1"/>
        <pt x="1050" y="568" on="1"/>
        <pt x="1052" y="550" on="0"/>
        <pt x="1019" y="550" on="0"/>
        <pt x="1014" y="566" on="1"/>
        <pt x="999" y="614" on="0"/>
        <pt x="939" y="654" on="0"/>
        <pt x="886" y="654" on="1"/>
        <pt x="729" y="654" on="1"/>
        <pt x="707" y="654" on="0"/>
        <pt x="680" y="629" on="0"/>
        <pt x="680" y="607" on="1"/>
        <pt x="680" y="397" on="1"/>
        <pt x="680" y="384" on="0"/>
        <pt x="693" y="384" on="1"/>
        <pt x="879" y="384" on="1"/>
        <pt x="893" y="384" on="0"/>
        <pt x="909" y="398" on="0"/>
        <pt x="914" y="410" on="0"/>
        <pt x="919" y="426" on="1"/>
        <pt x="923" y="439" on="1"/>
        <pt x="926" y="451" on="0"/>
        <pt x="950" y="451" on="0"/>
        <pt x="950" y="437" on="1"/>
        <pt x="946" y="352" on="1"/>
        <pt x="950" y="271" on="1"/>
        <pt x="950" y="258" on="0"/>
        <pt x="937" y="256" on="1"/>
        <pt x="924" y="256" on="0"/>
        <pt x="923" y="268" on="1"/>
        <pt x="920" y="286" on="1"/>
        <pt x="911" y="338" on="0"/>
        <pt x="879" y="338" on="1"/>
        <pt x="692" y="338" on="1"/>
        <pt x="680" y="338" on="0"/>
        <pt x="680" y="324" on="1"/>
        <pt x="680" y="92" on="1"/>
        <pt x="680" y="71" on="0"/>
        <pt x="707" y="46" on="0"/>
        <pt x="729" y="46" on="1"/>
        <pt x="894" y="46" on="1"/>
        <pt x="946" y="46" on="0"/>
        <pt x="1021" y="97" on="0"/>
        <pt x="1036" y="146" on="1"/>
        <pt x="1041" y="162" on="0"/>
        <pt x="1064" y="162" on="0"/>
        <pt x="1073" y="151" on="0"/>
        <pt x="1072" y="144" on="1"/>
        <pt x="1056" y="40" on="1"/>
        <pt x="1054" y="23" on="0"/>
        <pt x="1029" y="0" on="0"/>
        <pt x="1011" y="0" on="1"/>
        <pt x="636" y="0" on="1"/>
        <pt x="523" y="-4" on="1"/>
        <pt x="509" y="-4" on="0"/>
        <pt x="509" y="23" on="0"/>
        <pt x="520" y="23" on="1"/>
        <pt x="549" y="25" on="1"/>
        <pt x="569" y="27" on="0"/>
        <pt x="595" y="48" on="0"/>
      </contour>
    </TTGlyph>
    <TTGlyph name="Aacute" xMin="-10" yMin="-4" xMax="727" yMax="943">
      <contour>
        <pt x="227" y="275" on="1"/>
        <pt x="450" y="275" on="1"/>
        <pt x="461" y="275" on="0"/>
        <pt x="457" y="287" on="1"/>
        <pt x="338" y="593" on="1"/>
        <pt x="219" y="285" on="1"/>
        <pt x="216" y="275" on="0"/>
      </contour>
      <contour>
        <pt x="134" y="66" on="1"/>
        <pt x="132" y="60" on="0"/>
        <pt x="132" y="45" on="0"/>
        <pt x="148" y="26" on="0"/>
        <pt x="162" y="25" on="1"/>
        <pt x="184" y="23" on="1"/>
        <pt x="197" y="21" on="0"/>
        <pt x="197" y="10" on="1"/>
        <pt x="197" y="-4" on="0"/>
        <pt x="182" y="-4" on="1"/>
        <pt x="95" y="0" on="1"/>
        <pt x="4" y="-4" on="1"/>
        <pt x="-10" y="-4" on="0"/>
        <pt x="-10" y="23" on="0"/>
        <pt x="1" y="23" on="1"/>
        <pt x="20" y="25" on="1"/>
        <pt x="63" y="30" on="0"/>
        <pt x="78" y="66" on="1"/>
        <pt x="335" y="699" on="1"/>
        <pt x="339" y="711" on="0"/>
        <pt x="378" y="711" on="0"/>
        <pt x="383" y="699" on="1"/>
        <pt x="639" y="66" on="1"/>
        <pt x="652" y="29" on="0"/>
        <pt x="696" y="25" on="1"/>
        <pt x="717" y="23" on="1"/>
        <pt x="721" y="23" on="0"/>
        <pt x="727" y="15" on="0"/>
        <pt x="727" y="11" on="1"/>
        <pt x="727" y="-4" on="0"/>
        <pt x="713" y="-4" on="1"/>
        <pt x="598" y="0" on="1"/>
        <pt x="495" y="-4" on="1"/>
        <pt x="481" y="-4" on="0"/>
        <pt x="481" y="8" on="1"/>
        <pt x="481" y="22" on="0"/>
        <pt x="493" y="23" on="1"/>
        <pt x="516" y="25" on="1"/>
        <pt x="529" y="26" on="0"/>
        <pt x="546" y="44" on="0"/>
        <pt x="546" y="60" on="0"/>
        <pt x="543" y="66" on="1"/>
        <pt x="484" y="219" on="1"/>
        <pt x="481" y="229" on="0"/>
        <pt x="468" y="229" on="1"/>
        <pt x="209" y="229" on="1"/>
        <pt x="197" y="229" on="0"/>
        <pt x="193" y="219" on="1"/>
      </contour>
      <contour>
        <pt x="432" y="934" on="1"/>
        <pt x="442" y="943" on="0"/>
        <pt x="471" y="943" on="0"/>
        <pt x="496" y="914" on="0"/>
        <pt x="496" y="875" on="0"/>
        <pt x="477" y="865" on="1"/>
        <pt x="299" y="778" on="1"/>
        <pt x="281" y="802" on="1"/>
      </contour>
    </TTGlyph>
    <TTGlyph name="Acircumflex" xMin="-10" yMin="-4" xMax="727" yMax="952">
      <component glyphName="A" x="0" y="0" flags="0x1004"/>
      <component glyphName="circumflex" x="138" y="200" flags="0x1004"/>
    </TTGlyph>
    <TTGlyph name="Adieresis" xMin="-10" yMin="-4" xMax="727" yMax="911">
      <component glyphName="A" x="0" y="0" flags="0x1004"/>
      <component glyphName="dieresis" x="151" y="200" flags="0x1004"/>
    </TTGlyph>
    <TTGlyph name="Agrave" xMin="-10" yMin="-4" xMax="727" yMax="943">
      <component glyphName="A" x="0" y="0" flags="0x1004"/>
      <component glyphName="grave" x="166" y="200" flags="0x1004"/>
    </TTGlyph>
    <TTGlyph name="Aring" xMin="-10" yMin="-4" xMax="727" yMax="955">
      <contour>
        <pt x="227" y="275" on="1"/>
        <pt x="450" y="275" on="1"/>
        <pt x="461" y="275" on="0"/>
        <pt x="457" y="287" on="1"/>
        <pt x="338" y="593" on="1"/>
        <pt x="219" y="285" on="1"/>
        <pt x="216" y="275" on="0"/>
      </contour>
      <contour>
        <pt x="134" y="66" on="1"/>
        <pt x="132" y="60" on="0"/>
        <pt x="132" y="45" on="0"/>
        <pt x="148" y="26" on="0"/>
        <pt x="162" y="25" on="1"/>
        <pt x="184" y="23" on="1"/>
        <pt x="197" y="21" on="0"/>
        <pt x="197" y="10" on="1"/>
        <pt x="197" y="-4" on="0"/>
        <pt x="182" y="-4" on="1"/>
        <pt x="95" y="0" on="1"/>
        <pt x="4" y="-4" on="1"/>
        <pt x="-10" y="-4" on="0"/>
        <pt x="-10" y="23" on="0"/>
        <pt x="1" y="23" on="1"/>
        <pt x="20" y="25" on="1"/>
        <pt x="63" y="30" on="0"/>
        <pt x="78" y="66" on="1"/>
        <pt x="335" y="699" on="1"/>
        <pt x="339" y="711" on="0"/>
        <pt x="378" y="711" on="0"/>
        <pt x="383" y="699" on="1"/>
        <pt x="639" y="66" on="1"/>
        <pt x="652" y="29" on="0"/>
        <pt x="696" y="25" on="1"/>
        <pt x="717" y="23" on="1"/>
        <pt x="721" y="23" on="0"/>
        <pt x="727" y="15" on="0"/>
        <pt x="727" y="11" on="1"/>
        <pt x="727" y="-4" on="0"/>
        <pt x="713" y="-4" on="1"/>
        <pt x="598" y="0" on="1"/>
        <pt x="495" y="-4" on="1"/>
        <pt x="481" y="-4" on="0"/>
        <pt x="481" y="8" on="1"/>
        <pt x="481" y="22" on="0"/>
        <pt x="493" y="23" on="1"/>
        <pt x="516" y="25" on="1"/>
        <pt x="529" y="26" on="0"/>
        <pt x="546" y="44" on="0"/>
        <pt x="546" y="60" on="0"/>
        <pt x="543" y="66" on="1"/>
        <pt x="484" y="219" on="1"/>
        <pt x="481" y="229" on="0"/>
        <pt x="468" y="229" on="1"/>
        <pt x="209" y="229" on="1"/>
        <pt x="197" y="229" on="0"/>
        <pt x="193" y="219" on="1"/>
      </contour>
      <contour>
        <pt x="254" y="809" on="0"/>
        <pt x="254" y="895" on="0"/>
        <pt x="314" y="955" on="0"/>
        <pt x="402" y="955" on="0"/>
        <pt x="462" y="895" on="0"/>
        <pt x="462" y="809" on="0"/>
        <pt x="402" y="749" on="0"/>
        <pt x="314" y="749" on="0"/>
      </contour>
      <contour>
        <pt x="303" y="876" on="0"/>
        <pt x="303" y="828" on="0"/>
        <pt x="334" y="795" on="0"/>
        <pt x="382" y="795" on="0"/>
        <pt x="412" y="828" on="0"/>
        <pt x="412" y="876" on="0"/>
        <pt x="382" y="909" on="0"/>
        <pt x="334" y="909" on="0"/>
      </contour>
    </TTGlyph>
    <TTGlyph name="Atilde" xMin="-10" yMin="-4" xMax="727" yMax="917">
      <contour>
        <pt x="227" y="275" on="1"/>
        <pt x="450" y="275" on="1"/>
        <pt x="461" y="275" on="0"/>
        <pt x="457" y="287" on="1"/>
        <pt x="338" y="593" on="1"/>
        <pt x="219" y="285" on="1"/>
        <pt x="216" y="275" on="0"/>
      </contour>
      <contour>
        <pt x="134" y="66" on="1"/>
        <pt x="132" y="60" on="0"/>
        <pt x="132" y="45" on="0"/>
        <pt x="148" y="26" on="0"/>
        <pt x="162" y="25" on="1"/>
        <pt x="184" y="23" on="1"/>
        <pt x="197" y="21" on="0"/>
        <pt x="197" y="10" on="1"/>
        <pt x="197" y="-4" on="0"/>
        <pt x="182" y="-4" on="1"/>
        <pt x="95" y="0" on="1"/>
        <pt x="4" y="-4" on="1"/>
        <pt x="-10" y="-4" on="0"/>
        <pt x="-10" y="23" on="0"/>
        <pt x="1" y="23" on="1"/>
        <pt x="20" y="25" on="1"/>
        <pt x="63" y="30" on="0"/>
        <pt x="78" y="66" on="1"/>
        <pt x="335" y="699" on="1"/>
        <pt x="339" y="711" on="0"/>
        <pt x="378" y="711" on="0"/>
        <pt x="383" y="699" on="1"/>
        <pt x="639" y="66" on="1"/>
        <pt x="652" y="29" on="0"/>
        <pt x="696" y="25" on="1"/>
        <pt x="717" y="23" on="1"/>
        <pt x="721" y="23" on="0"/>
        <pt x="727" y="15" on="0"/>
        <pt x="727" y="11" on="1"/>
        <pt x="727" y="-4" on="0"/>
        <pt x="713" y="-4" on="1"/>
        <pt x="598" y="0" on="1"/>
        <pt x="495" y="-4" on="1"/>
        <pt x="481" y="-4" on="0"/>
        <pt x="481" y="8" on="1"/>
        <pt x="481" y="22" on="0"/>
        <pt x="493" y="23" on="1"/>
        <pt x="516" y="25" on="1"/>
        <pt x="529" y="26" on="0"/>
        <pt x="546" y="44" on="0"/>
        <pt x="546" y="60" on="0"/>
        <pt x="543" y="66" on="1"/>
        <pt x="484" y="219" on="1"/>
        <pt x="481" y="229" on="0"/>
        <pt x="468" y="229" on="1"/>
        <pt x="209" y="229" on="1"/>
        <pt x="197" y="229" on="0"/>
        <pt x="193" y="219" on="1"/>
      </contour>
      <contour>
        <pt x="421" y="810" on="1"/>
        <pt x="394" y="810" on="0"/>
        <pt x="304" y="856" on="0"/>
        <pt x="253" y="856" on="0"/>
        <pt x="221" y="832" on="0"/>
        <pt x="216" y="820" on="1"/>
        <pt x="211" y="808" on="1"/>
        <pt x="179" y="823" on="1"/>
        <pt x="184" y="849" on="0"/>
        <pt x="244" y="915" on="0"/>
        <pt x="295" y="915" on="1"/>
        <pt x="324" y="915" on="0"/>
        <pt x="422" y="869" on="0"/>
        <pt x="463" y="869" on="0"/>
        <pt x="495" y="893" on="0"/>
        <pt x="500" y="905" on="1"/>
        <pt x="505" y="917" on="1"/>
        <pt x="537" y="902" on="1"/>
        <pt x="532" y="876" on="0"/>
        <pt x="472" y="810" on="0"/>
      </contour>
    </TTGlyph>
    <TTGlyph name="B" xMin="30" yMin="-4" xMax="595" yMax="704">
      <contour>
        <pt x="496" y="377" on="0"/>
        <pt x="595" y="278" on="0"/>
        <pt x="595" y="118" on="0"/>
        <pt x="475" y="0" on="0"/>
        <pt x="386" y="0" on="1"/>
        <pt x="158" y="0" on="1"/>
        <pt x="45" y="-4" on="1"/>
        <pt x="31" y="-4" on="0"/>
        <pt x="31" y="12" on="1"/>
        <pt x="31" y="23" on="0"/>
        <pt x="42" y="23" on="1"/>
        <pt x="71" y="25" on="1"/>
        <pt x="117" y="31" on="0"/>
        <pt x="117" y="66" on="1"/>
        <pt x="117" y="634" on="1"/>
        <pt x="117" y="670" on="0"/>
        <pt x="71" y="674" on="1"/>
        <pt x="42" y="677" on="1"/>
        <pt x="31" y="679" on="0"/>
        <pt x="31" y="689" on="1"/>
        <pt x="31" y="704" on="0"/>
        <pt x="45" y="704" on="1"/>
        <pt x="170" y="700" on="1"/>
        <pt x="364" y="700" on="1"/>
        <pt x="442" y="700" on="0"/>
        <pt x="546" y="604" on="0"/>
        <pt x="546" y="476" on="0"/>
        <pt x="478" y="401" on="0"/>
        <pt x="433" y="387" on="1"/>
        <pt x="433" y="385" on="1"/>
      </contour>
      <contour>
        <pt x="457" y="473" on="0"/>
        <pt x="457" y="589" on="0"/>
        <pt x="383" y="656" on="0"/>
        <pt x="323" y="656" on="1"/>
        <pt x="239" y="656" on="1"/>
        <pt x="225" y="656" on="0"/>
        <pt x="202" y="635" on="0"/>
        <pt x="202" y="624" on="1"/>
        <pt x="202" y="423" on="1"/>
        <pt x="202" y="403" on="0"/>
        <pt x="222" y="403" on="1"/>
        <pt x="323" y="403" on="1"/>
        <pt x="382" y="403" on="0"/>
      </contour>
      <contour>
        <pt x="413" y="44" on="0"/>
        <pt x="506" y="132" on="0"/>
        <pt x="506" y="273" on="0"/>
        <pt x="413" y="359" on="0"/>
        <pt x="341" y="359" on="1"/>
        <pt x="219" y="359" on="1"/>
        <pt x="202" y="359" on="0"/>
        <pt x="202" y="341" on="1"/>
        <pt x="202" y="84" on="1"/>
        <pt x="202" y="44" on="0"/>
        <pt x="242" y="44" on="1"/>
        <pt x="341" y="44" on="1"/>
      </contour>
    </TTGlyph>
    <TTGlyph name="C" xMin="50" yMin="-11" xMax="634" yMax="711">
      <contour>
        <pt x="631" y="529" on="1"/>
        <pt x="631" y="522" on="0"/>
        <pt x="622" y="509" on="0"/>
        <pt x="615" y="509" on="1"/>
        <pt x="598" y="509" on="0"/>
        <pt x="593" y="529" on="1"/>
        <pt x="575" y="596" on="0"/>
        <pt x="477" y="672" on="0"/>
        <pt x="410" y="672" on="1"/>
        <pt x="289" y="672" on="0"/>
        <pt x="146" y="506" on="0"/>
        <pt x="146" y="248" on="0"/>
        <pt x="297" y="46" on="0"/>
        <pt x="410" y="46" on="1"/>
        <pt x="475" y="46" on="0"/>
        <pt x="540" y="71" on="0"/>
        <pt x="563" y="82" on="0"/>
        <pt x="599" y="106" on="0"/>
        <pt x="601" y="107" on="1"/>
        <pt x="619" y="118" on="0"/>
        <pt x="633" y="103" on="0"/>
        <pt x="633" y="89" on="0"/>
        <pt x="625" y="81" on="1"/>
        <pt x="591" y="43" on="0"/>
        <pt x="555" y="24" on="1"/>
        <pt x="490" y="-11" on="0"/>
        <pt x="400" y="-11" on="1"/>
        <pt x="244" y="-11" on="0"/>
        <pt x="50" y="195" on="0"/>
        <pt x="50" y="507" on="0"/>
        <pt x="248" y="711" on="0"/>
        <pt x="410" y="711" on="1"/>
        <pt x="494" y="711" on="0"/>
        <pt x="631" y="665" on="0"/>
        <pt x="631" y="643" on="1"/>
      </contour>
    </TTGlyph>
    <TTGlyph name="Ccedilla" xMin="50" yMin="-247" xMax="631" yMax="711">
      <component glyphName="C" x="0" y="0" flags="0x1004"/>
      <component glyphName="cedilla" x="190" y="0" flags="0x1004"/>
    </TTGlyph>
    <TTGlyph name="D" xMin="30" yMin="-5" xMax="691" yMax="704">
      <contour>
        <pt x="501" y="700" on="0"/>
        <pt x="691" y="515" on="0"/>
        <pt x="691" y="209" on="0"/>
        <pt x="494" y="0" on="0"/>
        <pt x="341" y="0" on="1"/>
        <pt x="169" y="0" on="1"/>
        <pt x="44" y="-5" on="1"/>
        <pt x="30" y="-5" on="0"/>
        <pt x="30" y="22" on="0"/>
        <pt x="41" y="22" on="1"/>
        <pt x="70" y="24" on="1"/>
        <pt x="90" y="26" on="0"/>
        <pt x="116" y="47" on="0"/>
        <pt x="116" y="65" on="1"/>
        <pt x="116" y="634" on="1"/>
        <pt x="116" y="670" on="0"/>
        <pt x="70" y="674" on="1"/>
        <pt x="41" y="677" on="1"/>
        <pt x="30" y="679" on="0"/>
        <pt x="30" y="690" on="1"/>
        <pt x="30" y="704" on="0"/>
        <pt x="44" y="704" on="1"/>
        <pt x="169" y="700" on="1"/>
        <pt x="341" y="700" on="1"/>
      </contour>
      <contour>
        <pt x="538" y="550" on="1"/>
        <pt x="508" y="598" on="0"/>
        <pt x="406" y="654" on="0"/>
        <pt x="340" y="654" on="1"/>
        <pt x="250" y="654" on="1"/>
        <pt x="228" y="654" on="0"/>
        <pt x="201" y="630" on="0"/>
        <pt x="201" y="607" on="1"/>
        <pt x="201" y="92" on="1"/>
        <pt x="201" y="71" on="0"/>
        <pt x="228" y="46" on="0"/>
        <pt x="250" y="46" on="1"/>
        <pt x="345" y="46" on="1"/>
        <pt x="460" y="46" on="0"/>
        <pt x="598" y="204" on="0"/>
        <pt x="598" y="456" on="0"/>
      </contour>
    </TTGlyph>
    <TTGlyph name="E" xMin="30" yMin="-4" xMax="593" yMax="704">
      <contour>
        <pt x="532" y="0" on="1"/>
        <pt x="157" y="0" on="1"/>
        <pt x="44" y="-4" on="1"/>
        <pt x="30" y="-4" on="0"/>
        <pt x="30" y="23" on="0"/>
        <pt x="41" y="23" on="1"/>
        <pt x="70" y="25" on="1"/>
        <pt x="90" y="27" on="0"/>
        <pt x="116" y="48" on="0"/>
        <pt x="116" y="66" on="1"/>
        <pt x="116" y="634" on="1"/>
        <pt x="116" y="670" on="0"/>
        <pt x="70" y="674" on="1"/>
        <pt x="41" y="677" on="1"/>
        <pt x="30" y="677" on="0"/>
        <pt x="30" y="704" on="0"/>
        <pt x="44" y="704" on="1"/>
        <pt x="157" y="700" on="1"/>
        <pt x="512" y="700" on="1"/>
        <pt x="531" y="700" on="0"/>
        <pt x="555" y="677" on="0"/>
        <pt x="557" y="660" on="1"/>
        <pt x="571" y="568" on="1"/>
        <pt x="573" y="550" on="0"/>
        <pt x="540" y="550" on="0"/>
        <pt x="535" y="566" on="1"/>
        <pt x="520" y="614" on="0"/>
        <pt x="460" y="654" on="0"/>
        <pt x="407" y="654" on="1"/>
        <pt x="250" y="654" on="1"/>
        <pt x="228" y="654" on="0"/>
        <pt x="201" y="629" on="0"/>
        <pt x="201" y="607" on="1"/>
        <pt x="201" y="397" on="1"/>
        <pt x="201" y="384" on="0"/>
        <pt x="214" y="384" on="1"/>
        <pt x="400" y="384" on="1"/>
        <pt x="414" y="384" on="0"/>
        <pt x="430" y="398" on="0"/>
        <pt x="435" y="410" on="0"/>
        <pt x="440" y="426" on="1"/>
        <pt x="444" y="439" on="1"/>
        <pt x="447" y="451" on="0"/>
        <pt x="471" y="451" on="0"/>
        <pt x="471" y="437" on="1"/>
        <pt x="467" y="352" on="1"/>
        <pt x="471" y="271" on="1"/>
        <pt x="471" y="258" on="0"/>
        <pt x="458" y="256" on="1"/>
        <pt x="446" y="256" on="0"/>
        <pt x="444" y="268" on="1"/>
        <pt x="441" y="286" on="1"/>
        <pt x="432" y="338" on="0"/>
        <pt x="400" y="338" on="1"/>
        <pt x="213" y="338" on="1"/>
        <pt x="201" y="338" on="0"/>
        <pt x="201" y="324" on="1"/>
        <pt x="201" y="92" on="1"/>
        <pt x="201" y="71" on="0"/>
        <pt x="228" y="46" on="0"/>
        <pt x="250" y="46" on="1"/>
        <pt x="415" y="46" on="1"/>
        <pt x="467" y="46" on="0"/>
        <pt x="542" y="97" on="0"/>
        <pt x="557" y="146" on="1"/>
        <pt x="562" y="162" on="0"/>
        <pt x="585" y="162" on="0"/>
        <pt x="594" y="151" on="0"/>
        <pt x="593" y="144" on="1"/>
        <pt x="577" y="40" on="1"/>
        <pt x="575" y="23" on="0"/>
        <pt x="550" y="0" on="0"/>
      </contour>
    </TTGlyph>
    <TTGlyph name="Eacute" xMin="30" yMin="-4" xMax="593" yMax="943">
      <contour>
        <pt x="532" y="0" on="1"/>
        <pt x="157" y="0" on="1"/>
        <pt x="44" y="-4" on="1"/>
        <pt x="30" y="-4" on="0"/>
        <pt x="30" y="23" on="0"/>
        <pt x="41" y="23" on="1"/>
        <pt x="70" y="25" on="1"/>
        <pt x="90" y="27" on="0"/>
        <pt x="116" y="48" on="0"/>
        <pt x="116" y="66" on="1"/>
        <pt x="116" y="634" on="1"/>
        <pt x="116" y="670" on="0"/>
        <pt x="70" y="674" on="1"/>
        <pt x="41" y="677" on="1"/>
        <pt x="30" y="677" on="0"/>
        <pt x="30" y="704" on="0"/>
        <pt x="44" y="704" on="1"/>
        <pt x="157" y="700" on="1"/>
        <pt x="512" y="700" on="1"/>
        <pt x="531" y="700" on="0"/>
        <pt x="555" y="677" on="0"/>
        <pt x="557" y="660" on="1"/>
        <pt x="571" y="568" on="1"/>
        <pt x="573" y="550" on="0"/>
        <pt x="540" y="550" on="0"/>
        <pt x="535" y="566" on="1"/>
        <pt x="520" y="614" on="0"/>
        <pt x="460" y="654" on="0"/>
        <pt x="407" y="654" on="1"/>
        <pt x="250" y="654" on="1"/>
        <pt x="228" y="654" on="0"/>
        <pt x="201" y="629" on="0"/>
        <pt x="201" y="607" on="1"/>
        <pt x="201" y="397" on="1"/>
        <pt x="201" y="384" on="0"/>
        <pt x="214" y="384" on="1"/>
        <pt x="400" y="384" on="1"/>
        <pt x="414" y="384" on="0"/>
        <pt x="430" y="398" on="0"/>
        <pt x="435" y="410" on="0"/>
        <pt x="440" y="426" on="1"/>
        <pt x="444" y="439" on="1"/>
        <pt x="447" y="451" on="0"/>
        <pt x="471" y="451" on="0"/>
        <pt x="471" y="437" on="1"/>
        <pt x="467" y="352" on="1"/>
        <pt x="471" y="271" on="1"/>
        <pt x="471" y="258" on="0"/>
        <pt x="458" y="256" on="1"/>
        <pt x="446" y="256" on="0"/>
        <pt x="444" y="268" on="1"/>
        <pt x="441" y="286" on="1"/>
        <pt x="432" y="338" on="0"/>
        <pt x="400" y="338" on="1"/>
        <pt x="213" y="338" on="1"/>
        <pt x="201" y="338" on="0"/>
        <pt x="201" y="324" on="1"/>
        <pt x="201" y="92" on="1"/>
        <pt x="201" y="71" on="0"/>
        <pt x="228" y="46" on="0"/>
        <pt x="250" y="46" on="1"/>
        <pt x="415" y="46" on="1"/>
        <pt x="467" y="46" on="0"/>
        <pt x="542" y="97" on="0"/>
        <pt x="557" y="146" on="1"/>
        <pt x="562" y="162" on="0"/>
        <pt x="585" y="162" on="0"/>
        <pt x="594" y="151" on="0"/>
        <pt x="593" y="144" on="1"/>
        <pt x="577" y="40" on="1"/>
        <pt x="575" y="23" on="0"/>
        <pt x="550" y="0" on="0"/>
      </contour>
      <contour>
        <pt x="380" y="934" on="1"/>
        <pt x="391" y="943" on="0"/>
        <pt x="419" y="943" on="0"/>
        <pt x="444" y="914" on="0"/>
        <pt x="444" y="875" on="0"/>
        <pt x="425" y="865" on="1"/>
        <pt x="247" y="778" on="1"/>
        <pt x="229" y="802" on="1"/>
      </contour>
    </TTGlyph>
    <TTGlyph name="Ecircumflex" xMin="30" yMin="-4" xMax="593" yMax="952">
      <component glyphName="E" x="0" y="0" flags="0x1004"/>
      <component glyphName="circumflex" x="97" y="200" flags="0x1004"/>
    </TTGlyph>
    <TTGlyph name="Edieresis" xMin="30" yMin="-4" xMax="593" yMax="911">
      <contour>
        <pt x="532" y="0" on="1"/>
        <pt x="157" y="0" on="1"/>
        <pt x="44" y="-4" on="1"/>
        <pt x="30" y="-4" on="0"/>
        <pt x="30" y="23" on="0"/>
        <pt x="41" y="23" on="1"/>
        <pt x="70" y="25" on="1"/>
        <pt x="90" y="27" on="0"/>
        <pt x="116" y="48" on="0"/>
        <pt x="116" y="66" on="1"/>
        <pt x="116" y="634" on="1"/>
        <pt x="116" y="670" on="0"/>
        <pt x="70" y="674" on="1"/>
        <pt x="41" y="677" on="1"/>
        <pt x="30" y="677" on="0"/>
        <pt x="30" y="704" on="0"/>
        <pt x="44" y="704" on="1"/>
        <pt x="157" y="700" on="1"/>
        <pt x="512" y="700" on="1"/>
        <pt x="531" y="700" on="0"/>
        <pt x="555" y="677" on="0"/>
        <pt x="557" y="660" on="1"/>
        <pt x="571" y="568" on="1"/>
        <pt x="573" y="550" on="0"/>
        <pt x="540" y="550" on="0"/>
        <pt x="535" y="566" on="1"/>
        <pt x="520" y="614" on="0"/>
        <pt x="460" y="654" on="0"/>
        <pt x="407" y="654" on="1"/>
        <pt x="250" y="654" on="1"/>
        <pt x="228" y="654" on="0"/>
        <pt x="201" y="629" on="0"/>
        <pt x="201" y="607" on="1"/>
        <pt x="201" y="397" on="1"/>
        <pt x="201" y="384" on="0"/>
        <pt x="214" y="384" on="1"/>
        <pt x="400" y="384" on="1"/>
        <pt x="414" y="384" on="0"/>
        <pt x="430" y="398" on="0"/>
        <pt x="435" y="410" on="0"/>
        <pt x="440" y="426" on="1"/>
        <pt x="444" y="439" on="1"/>
        <pt x="447" y="451" on="0"/>
        <pt x="471" y="451" on="0"/>
        <pt x="471" y="437" on="1"/>
        <pt x="467" y="352" on="1"/>
        <pt x="471" y="271" on="1"/>
        <pt x="471" y="258" on="0"/>
        <pt x="458" y="256" on="1"/>
        <pt x="446" y="256" on="0"/>
        <pt x="444" y="268" on="1"/>
        <pt x="441" y="286" on="1"/>
        <pt x="432" y="338" on="0"/>
        <pt x="400" y="338" on="1"/>
        <pt x="213" y="338" on="1"/>
        <pt x="201" y="338" on="0"/>
        <pt x="201" y="324" on="1"/>
        <pt x="201" y="92" on="1"/>
        <pt x="201" y="71" on="0"/>
        <pt x="228" y="46" on="0"/>
        <pt x="250" y="46" on="1"/>
        <pt x="415" y="46" on="1"/>
        <pt x="467" y="46" on="0"/>
        <pt x="542" y="97" on="0"/>
        <pt x="557" y="146" on="1"/>
        <pt x="562" y="162" on="0"/>
        <pt x="585" y="162" on="0"/>
        <pt x="594" y="151" on="0"/>
        <pt x="593" y="144" on="1"/>
        <pt x="577" y="40" on="1"/>
        <pt x="575" y="23" on="0"/>
        <pt x="550" y="0" on="0"/>
      </contour>
      <contour>
        <pt x="169" y="837" on="0"/>
        <pt x="169" y="881" on="0"/>
        <pt x="199" y="911" on="0"/>
        <pt x="243" y="911" on="0"/>
        <pt x="273" y="881" on="0"/>
        <pt x="273" y="837" on="0"/>
        <pt x="243" y="807" on="0"/>
        <pt x="199" y="807" on="0"/>
      </contour>
      <contour>
        <pt x="360" y="837" on="0"/>
        <pt x="360" y="881" on="0"/>
        <pt x="390" y="911" on="0"/>
        <pt x="434" y="911" on="0"/>
        <pt x="464" y="881" on="0"/>
        <pt x="464" y="837" on="0"/>
        <pt x="434" y="807" on="0"/>
        <pt x="390" y="807" on="0"/>
      </contour>
    </TTGlyph>
    <TTGlyph name="Egrave" xMin="30" yMin="-4" xMax="593" yMax="943">
      <component glyphName="E" x="0" y="0" flags="0x1004"/>
      <component glyphName="grave" x="124" y="200" flags="0x1004"/>
    </TTGlyph>
    <TTGlyph name="Eth" xMin="30" yMin="-5" xMax="691" yMax="704">
      <contour>
        <pt x="43" y="317" on="1"/>
        <pt x="116" y="317" on="1"/>
        <pt x="116" y="634" on="1"/>
        <pt x="116" y="670" on="0"/>
        <pt x="70" y="674" on="1"/>
        <pt x="41" y="677" on="1"/>
        <pt x="30" y="679" on="0"/>
        <pt x="30" y="690" on="1"/>
        <pt x="30" y="704" on="0"/>
        <pt x="44" y="704" on="1"/>
        <pt x="169" y="700" on="1"/>
        <pt x="341" y="700" on="1"/>
        <pt x="501" y="700" on="0"/>
        <pt x="691" y="515" on="0"/>
        <pt x="691" y="209" on="0"/>
        <pt x="494" y="0" on="0"/>
        <pt x="341" y="0" on="1"/>
        <pt x="169" y="0" on="1"/>
        <pt x="44" y="-5" on="1"/>
        <pt x="30" y="-5" on="0"/>
        <pt x="30" y="22" on="0"/>
        <pt x="41" y="22" on="1"/>
        <pt x="70" y="24" on="1"/>
        <pt x="90" y="26" on="0"/>
        <pt x="116" y="47" on="0"/>
        <pt x="116" y="65" on="1"/>
        <pt x="116" y="268" on="1"/>
        <pt x="43" y="268" on="1"/>
        <pt x="31" y="268" on="0"/>
        <pt x="31" y="279" on="1"/>
        <pt x="31" y="306" on="1"/>
        <pt x="31" y="317" on="0"/>
      </contour>
      <contour>
        <pt x="538" y="550" on="1"/>
        <pt x="508" y="598" on="0"/>
        <pt x="406" y="654" on="0"/>
        <pt x="340" y="654" on="1"/>
        <pt x="250" y="654" on="1"/>
        <pt x="228" y="654" on="0"/>
        <pt x="201" y="630" on="0"/>
        <pt x="201" y="607" on="1"/>
        <pt x="201" y="317" on="1"/>
        <pt x="343" y="317" on="1"/>
        <pt x="355" y="317" on="0"/>
        <pt x="355" y="306" on="1"/>
        <pt x="355" y="279" on="1"/>
        <pt x="355" y="268" on="0"/>
        <pt x="343" y="268" on="1"/>
        <pt x="201" y="268" on="1"/>
        <pt x="201" y="92" on="1"/>
        <pt x="201" y="71" on="0"/>
        <pt x="228" y="46" on="0"/>
        <pt x="250" y="46" on="1"/>
        <pt x="345" y="46" on="1"/>
        <pt x="460" y="46" on="0"/>
        <pt x="598" y="204" on="0"/>
        <pt x="598" y="456" on="0"/>
      </contour>
    </TTGlyph>
    <TTGlyph name="Euro" xMin="40" yMin="-11" xMax="696" yMax="711">
      <contour>
        <pt x="52" y="450" on="1"/>
        <pt x="124" y="450" on="1"/>
        <pt x="153" y="568" on="0"/>
        <pt x="338" y="711" on="0"/>
        <pt x="472" y="711" on="1"/>
        <pt x="556" y="711" on="0"/>
        <pt x="693" y="665" on="0"/>
        <pt x="693" y="643" on="1"/>
        <pt x="693" y="529" on="1"/>
        <pt x="693" y="522" on="0"/>
        <pt x="684" y="509" on="0"/>
        <pt x="677" y="509" on="1"/>
        <pt x="660" y="509" on="0"/>
        <pt x="655" y="529" on="1"/>
        <pt x="637" y="596" on="0"/>
        <pt x="539" y="672" on="0"/>
        <pt x="472" y="672" on="1"/>
        <pt x="369" y="672" on="0"/>
        <pt x="233" y="550" on="0"/>
        <pt x="214" y="450" on="1"/>
        <pt x="504" y="450" on="1"/>
        <pt x="516" y="450" on="0"/>
        <pt x="516" y="439" on="1"/>
        <pt x="516" y="412" on="1"/>
        <pt x="516" y="401" on="0"/>
        <pt x="504" y="401" on="1"/>
        <pt x="208" y="401" on="1"/>
        <pt x="208" y="378" on="1"/>
        <pt x="208" y="349" on="0"/>
        <pt x="213" y="316" on="1"/>
        <pt x="504" y="316" on="1"/>
        <pt x="516" y="316" on="0"/>
        <pt x="516" y="305" on="1"/>
        <pt x="516" y="278" on="1"/>
        <pt x="516" y="267" on="0"/>
        <pt x="504" y="267" on="1"/>
        <pt x="223" y="267" on="1"/>
        <pt x="251" y="171" on="0"/>
        <pt x="385" y="46" on="0"/>
        <pt x="472" y="46" on="1"/>
        <pt x="537" y="46" on="0"/>
        <pt x="602" y="71" on="0"/>
        <pt x="625" y="82" on="0"/>
        <pt x="661" y="106" on="0"/>
        <pt x="663" y="107" on="1"/>
        <pt x="681" y="118" on="0"/>
        <pt x="695" y="103" on="0"/>
        <pt x="695" y="89" on="0"/>
        <pt x="687" y="81" on="1"/>
        <pt x="653" y="43" on="0"/>
        <pt x="617" y="24" on="1"/>
        <pt x="551" y="-11" on="0"/>
        <pt x="462" y="-11" on="1"/>
        <pt x="328" y="-11" on="0"/>
        <pt x="145" y="143" on="0"/>
        <pt x="120" y="267" on="1"/>
        <pt x="52" y="267" on="1"/>
        <pt x="40" y="267" on="0"/>
        <pt x="40" y="278" on="1"/>
        <pt x="40" y="305" on="1"/>
        <pt x="40" y="316" on="0"/>
        <pt x="52" y="316" on="1"/>
        <pt x="113" y="316" on="1"/>
        <pt x="112" y="327" on="0"/>
        <pt x="112" y="376" on="0"/>
        <pt x="115" y="401" on="1"/>
        <pt x="52" y="401" on="1"/>
        <pt x="40" y="401" on="0"/>
        <pt x="40" y="412" on="1"/>
        <pt x="40" y="439" on="1"/>
        <pt x="40" y="450" on="0"/>
      </contour>
    </TTGlyph>
    <TTGlyph name="F" xMin="30" yMin="-4" xMax="561" yMax="704">
      <contour>
        <pt x="561" y="568" on="1"/>
        <pt x="563" y="550" on="0"/>
        <pt x="530" y="550" on="0"/>
        <pt x="525" y="566" on="1"/>
        <pt x="510" y="614" on="0"/>
        <pt x="450" y="654" on="0"/>
        <pt x="397" y="654" on="1"/>
        <pt x="250" y="654" on="1"/>
        <pt x="228" y="654" on="0"/>
        <pt x="201" y="629" on="0"/>
        <pt x="201" y="607" on="1"/>
        <pt x="201" y="387" on="1"/>
        <pt x="201" y="374" on="0"/>
        <pt x="214" y="374" on="1"/>
        <pt x="390" y="374" on="1"/>
        <pt x="403" y="374" on="0"/>
        <pt x="420" y="387" on="0"/>
        <pt x="425" y="401" on="0"/>
        <pt x="430" y="416" on="1"/>
        <pt x="434" y="429" on="1"/>
        <pt x="437" y="440" on="0"/>
        <pt x="447" y="440" on="1"/>
        <pt x="461" y="440" on="0"/>
        <pt x="461" y="427" on="1"/>
        <pt x="457" y="341" on="1"/>
        <pt x="461" y="258" on="1"/>
        <pt x="461" y="244" on="0"/>
        <pt x="436" y="244" on="0"/>
        <pt x="434" y="256" on="1"/>
        <pt x="431" y="274" on="1"/>
        <pt x="427" y="300" on="0"/>
        <pt x="410" y="326" on="0"/>
        <pt x="390" y="326" on="1"/>
        <pt x="213" y="326" on="1"/>
        <pt x="201" y="326" on="0"/>
        <pt x="201" y="312" on="1"/>
        <pt x="201" y="66" on="1"/>
        <pt x="201" y="29" on="0"/>
        <pt x="245" y="25" on="1"/>
        <pt x="275" y="23" on="1"/>
        <pt x="287" y="23" on="0"/>
        <pt x="287" y="11" on="1"/>
        <pt x="287" y="-4" on="0"/>
        <pt x="272" y="-4" on="1"/>
        <pt x="157" y="0" on="1"/>
        <pt x="44" y="-4" on="1"/>
        <pt x="30" y="-4" on="0"/>
        <pt x="30" y="23" on="0"/>
        <pt x="41" y="23" on="1"/>
        <pt x="70" y="25" on="1"/>
        <pt x="90" y="27" on="0"/>
        <pt x="116" y="48" on="0"/>
        <pt x="116" y="66" on="1"/>
        <pt x="116" y="634" on="1"/>
        <pt x="116" y="670" on="0"/>
        <pt x="70" y="674" on="1"/>
        <pt x="41" y="677" on="1"/>
        <pt x="30" y="677" on="0"/>
        <pt x="30" y="704" on="0"/>
        <pt x="44" y="704" on="1"/>
        <pt x="157" y="700" on="1"/>
        <pt x="502" y="700" on="1"/>
        <pt x="521" y="700" on="0"/>
        <pt x="545" y="677" on="0"/>
        <pt x="547" y="660" on="1"/>
      </contour>
    </TTGlyph>
    <TTGlyph name="G" xMin="50" yMin="-11" xMax="739" yMax="711">
      <contour>
        <pt x="417" y="711" on="1"/>
        <pt x="501" y="711" on="0"/>
        <pt x="638" y="665" on="0"/>
        <pt x="638" y="643" on="1"/>
        <pt x="638" y="529" on="1"/>
        <pt x="638" y="522" on="0"/>
        <pt x="629" y="509" on="0"/>
        <pt x="622" y="509" on="1"/>
        <pt x="605" y="509" on="0"/>
        <pt x="600" y="529" on="1"/>
        <pt x="582" y="596" on="0"/>
        <pt x="484" y="672" on="0"/>
        <pt x="417" y="672" on="1"/>
        <pt x="293" y="672" on="0"/>
        <pt x="146" y="506" on="0"/>
        <pt x="146" y="378" on="1"/>
        <pt x="146" y="294" on="0"/>
        <pt x="212" y="138" on="0"/>
        <pt x="335" y="37" on="0"/>
        <pt x="484" y="37" on="0"/>
        <pt x="587" y="98" on="0"/>
        <pt x="587" y="132" on="1"/>
        <pt x="587" y="256" on="1"/>
        <pt x="587" y="294" on="0"/>
        <pt x="542" y="296" on="1"/>
        <pt x="488" y="299" on="1"/>
        <pt x="477" y="299" on="0"/>
        <pt x="477" y="326" on="0"/>
        <pt x="490" y="326" on="1"/>
        <pt x="626" y="322" on="1"/>
        <pt x="725" y="326" on="1"/>
        <pt x="739" y="326" on="0"/>
        <pt x="739" y="314" on="1"/>
        <pt x="739" y="300" on="0"/>
        <pt x="727" y="299" on="1"/>
        <pt x="710" y="296" on="1"/>
        <pt x="670" y="289" on="0"/>
        <pt x="670" y="256" on="1"/>
        <pt x="670" y="63" on="1"/>
        <pt x="676" y="7" on="1"/>
        <pt x="678" y="-11" on="0"/>
        <pt x="661" y="-11" on="1"/>
        <pt x="650" y="-11" on="0"/>
        <pt x="643" y="2" on="1"/>
        <pt x="627" y="38" on="0"/>
        <pt x="590" y="38" on="1"/>
        <pt x="582" y="38" on="0"/>
        <pt x="560" y="26" on="1"/>
        <pt x="492" y="-11" on="0"/>
        <pt x="400" y="-11" on="1"/>
        <pt x="244" y="-11" on="0"/>
        <pt x="50" y="195" on="0"/>
        <pt x="50" y="506" on="0"/>
        <pt x="254" y="711" on="0"/>
      </contour>
    </TTGlyph>
    <TTGlyph name="H" xMin="30" yMin="-4" xMax="772" yMax="704">
      <contour>
        <pt x="761" y="23" on="1"/>
        <pt x="772" y="23" on="0"/>
        <pt x="772" y="-4" on="0"/>
        <pt x="758" y="-4" on="1"/>
        <pt x="646" y="0" on="1"/>
        <pt x="548" y="-4" on="1"/>
        <pt x="533" y="-4" on="0"/>
        <pt x="533" y="10" on="1"/>
        <pt x="533" y="21" on="0"/>
        <pt x="544" y="23" on="1"/>
        <pt x="562" y="25" on="1"/>
        <pt x="602" y="30" on="0"/>
        <pt x="602" y="66" on="1"/>
        <pt x="602" y="314" on="1"/>
        <pt x="602" y="333" on="0"/>
        <pt x="584" y="333" on="1"/>
        <pt x="218" y="333" on="1"/>
        <pt x="211" y="333" on="0"/>
        <pt x="201" y="322" on="0"/>
        <pt x="201" y="314" on="1"/>
        <pt x="201" y="66" on="1"/>
        <pt x="201" y="30" on="0"/>
        <pt x="241" y="25" on="1"/>
        <pt x="258" y="23" on="1"/>
        <pt x="271" y="21" on="0"/>
        <pt x="271" y="10" on="1"/>
        <pt x="271" y="4" on="0"/>
        <pt x="262" y="-4" on="0"/>
        <pt x="256" y="-4" on="1"/>
        <pt x="157" y="0" on="1"/>
        <pt x="44" y="-4" on="1"/>
        <pt x="30" y="-4" on="0"/>
        <pt x="30" y="23" on="0"/>
        <pt x="41" y="23" on="1"/>
        <pt x="70" y="25" on="1"/>
        <pt x="90" y="27" on="0"/>
        <pt x="116" y="48" on="0"/>
        <pt x="116" y="66" on="1"/>
        <pt x="116" y="634" on="1"/>
        <pt x="116" y="670" on="0"/>
        <pt x="70" y="674" on="1"/>
        <pt x="41" y="677" on="1"/>
        <pt x="30" y="677" on="0"/>
        <pt x="30" y="704" on="0"/>
        <pt x="44" y="704" on="1"/>
        <pt x="157" y="700" on="1"/>
        <pt x="256" y="704" on="1"/>
        <pt x="271" y="704" on="0"/>
        <pt x="271" y="692" on="1"/>
        <pt x="271" y="678" on="0"/>
        <pt x="258" y="677" on="1"/>
        <pt x="241" y="674" on="1"/>
        <pt x="201" y="667" on="0"/>
        <pt x="201" y="634" on="1"/>
        <pt x="201" y="399" on="1"/>
        <pt x="201" y="379" on="0"/>
        <pt x="221" y="379" on="1"/>
        <pt x="583" y="379" on="1"/>
        <pt x="602" y="379" on="0"/>
        <pt x="602" y="396" on="1"/>
        <pt x="602" y="634" on="1"/>
        <pt x="602" y="667" on="0"/>
        <pt x="562" y="674" on="1"/>
        <pt x="544" y="677" on="1"/>
        <pt x="533" y="679" on="0"/>
        <pt x="533" y="690" on="1"/>
        <pt x="533" y="704" on="0"/>
        <pt x="548" y="704" on="1"/>
        <pt x="646" y="700" on="1"/>
        <pt x="758" y="704" on="1"/>
        <pt x="772" y="704" on="0"/>
        <pt x="772" y="677" on="0"/>
        <pt x="761" y="677" on="1"/>
        <pt x="731" y="674" on="1"/>
        <pt x="687" y="670" on="0"/>
        <pt x="687" y="634" on="1"/>
        <pt x="687" y="66" on="1"/>
        <pt x="687" y="29" on="0"/>
        <pt x="731" y="25" on="1"/>
      </contour>
    </TTGlyph>
    <TTGlyph name="I" xMin="30" yMin="-4" xMax="287" yMax="704">
      <contour>
        <pt x="61" y="-4" on="1"/>
        <pt x="47" y="-4" on="0"/>
        <pt x="47" y="21" on="0"/>
        <pt x="58" y="23" on="1"/>
        <pt x="75" y="25" on="1"/>
        <pt x="116" y="30" on="0"/>
        <pt x="116" y="66" on="1"/>
        <pt x="116" y="634" on="1"/>
        <pt x="116" y="670" on="0"/>
        <pt x="70" y="674" on="1"/>
        <pt x="41" y="677" on="1"/>
        <pt x="30" y="679" on="0"/>
        <pt x="30" y="690" on="1"/>
        <pt x="30" y="704" on="0"/>
        <pt x="44" y="704" on="1"/>
        <pt x="157" y="700" on="1"/>
        <pt x="256" y="704" on="1"/>
        <pt x="271" y="704" on="0"/>
        <pt x="271" y="692" on="1"/>
        <pt x="271" y="678" on="0"/>
        <pt x="258" y="677" on="1"/>
        <pt x="241" y="674" on="1"/>
        <pt x="201" y="667" on="0"/>
        <pt x="201" y="634" on="1"/>
        <pt x="201" y="66" on="1"/>
        <pt x="201" y="48" on="0"/>
        <pt x="227" y="27" on="0"/>
        <pt x="246" y="25" on="1"/>
        <pt x="275" y="23" on="1"/>
        <pt x="287" y="23" on="0"/>
        <pt x="287" y="10" on="1"/>
        <pt x="287" y="4" on="0"/>
        <pt x="278" y="-4" on="0"/>
        <pt x="273" y="-4" on="1"/>
        <pt x="160" y="0" on="1"/>
      </contour>
    </TTGlyph>
    <TTGlyph name="IJ" xMin="30" yMin="-300" xMax="589" yMax="704">
      <contour>
        <pt x="61" y="-4" on="1"/>
        <pt x="47" y="-4" on="0"/>
        <pt x="47" y="21" on="0"/>
        <pt x="58" y="23" on="1"/>
        <pt x="75" y="25" on="1"/>
        <pt x="116" y="30" on="0"/>
        <pt x="116" y="66" on="1"/>
        <pt x="116" y="634" on="1"/>
        <pt x="116" y="670" on="0"/>
        <pt x="70" y="674" on="1"/>
        <pt x="41" y="677" on="1"/>
        <pt x="30" y="679" on="0"/>
        <pt x="30" y="690" on="1"/>
        <pt x="30" y="704" on="0"/>
        <pt x="44" y="704" on="1"/>
        <pt x="157" y="700" on="1"/>
        <pt x="256" y="704" on="1"/>
        <pt x="271" y="704" on="0"/>
        <pt x="271" y="692" on="1"/>
        <pt x="271" y="678" on="0"/>
        <pt x="258" y="677" on="1"/>
        <pt x="241" y="674" on="1"/>
        <pt x="201" y="667" on="0"/>
        <pt x="201" y="634" on="1"/>
        <pt x="201" y="66" on="1"/>
        <pt x="201" y="48" on="0"/>
        <pt x="227" y="27" on="0"/>
        <pt x="246" y="25" on="1"/>
        <pt x="275" y="23" on="1"/>
        <pt x="287" y="23" on="0"/>
        <pt x="287" y="10" on="1"/>
        <pt x="287" y="4" on="0"/>
        <pt x="278" y="-4" on="0"/>
        <pt x="273" y="-4" on="1"/>
        <pt x="160" y="0" on="1"/>
      </contour>
      <contour>
        <pt x="519" y="634" on="1"/>
        <pt x="519" y="-5" on="1"/>
        <pt x="519" y="-107" on="0"/>
        <pt x="452" y="-232" on="0"/>
        <pt x="392" y="-272" on="1"/>
        <pt x="348" y="-300" on="0"/>
        <pt x="323" y="-300" on="0"/>
        <pt x="319" y="-293" on="1"/>
        <pt x="312" y="-280" on="0"/>
        <pt x="312" y="-270" on="0"/>
        <pt x="319" y="-265" on="1"/>
        <pt x="370" y="-229" on="0"/>
        <pt x="384" y="-212" on="1"/>
        <pt x="434" y="-159" on="0"/>
        <pt x="434" y="-56" on="1"/>
        <pt x="434" y="634" on="1"/>
        <pt x="434" y="670" on="0"/>
        <pt x="388" y="674" on="1"/>
        <pt x="359" y="677" on="1"/>
        <pt x="348" y="679" on="0"/>
        <pt x="348" y="690" on="1"/>
        <pt x="348" y="704" on="0"/>
        <pt x="362" y="704" on="1"/>
        <pt x="475" y="700" on="1"/>
        <pt x="574" y="704" on="1"/>
        <pt x="589" y="704" on="0"/>
        <pt x="589" y="692" on="1"/>
        <pt x="589" y="678" on="0"/>
        <pt x="576" y="677" on="1"/>
        <pt x="559" y="674" on="1"/>
        <pt x="519" y="667" on="0"/>
      </contour>
    </TTGlyph>
    <TTGlyph name="Iacute" xMin="30" yMin="-4" xMax="287" yMax="943">
      <contour>
        <pt x="61" y="-4" on="1"/>
        <pt x="47" y="-4" on="0"/>
        <pt x="47" y="21" on="0"/>
        <pt x="58" y="23" on="1"/>
        <pt x="75" y="25" on="1"/>
        <pt x="116" y="30" on="0"/>
        <pt x="116" y="66" on="1"/>
        <pt x="116" y="634" on="1"/>
        <pt x="116" y="670" on="0"/>
        <pt x="70" y="674" on="1"/>
        <pt x="41" y="677" on="1"/>
        <pt x="30" y="679" on="0"/>
        <pt x="30" y="690" on="1"/>
        <pt x="30" y="704" on="0"/>
        <pt x="44" y="704" on="1"/>
        <pt x="157" y="700" on="1"/>
        <pt x="256" y="704" on="1"/>
        <pt x="271" y="704" on="0"/>
        <pt x="271" y="692" on="1"/>
        <pt x="271" y="678" on="0"/>
        <pt x="258" y="677" on="1"/>
        <pt x="241" y="674" on="1"/>
        <pt x="201" y="667" on="0"/>
        <pt x="201" y="634" on="1"/>
        <pt x="201" y="66" on="1"/>
        <pt x="201" y="48" on="0"/>
        <pt x="227" y="27" on="0"/>
        <pt x="246" y="25" on="1"/>
        <pt x="275" y="23" on="1"/>
        <pt x="287" y="23" on="0"/>
        <pt x="287" y="10" on="1"/>
        <pt x="287" y="4" on="0"/>
        <pt x="278" y="-4" on="0"/>
        <pt x="273" y="-4" on="1"/>
        <pt x="160" y="0" on="1"/>
      </contour>
      <contour>
        <pt x="222" y="934" on="1"/>
        <pt x="232" y="943" on="0"/>
        <pt x="261" y="943" on="0"/>
        <pt x="286" y="914" on="0"/>
        <pt x="286" y="875" on="0"/>
        <pt x="267" y="865" on="1"/>
        <pt x="89" y="778" on="1"/>
        <pt x="71" y="802" on="1"/>
      </contour>
    </TTGlyph>
    <TTGlyph name="Icircumflex" xMin="4" yMin="-4" xMax="314" yMax="952">
      <component glyphName="I" x="0" y="0" flags="0x1004"/>
      <component glyphName="circumflex" x="-61" y="200" flags="0x1004"/>
    </TTGlyph>
    <TTGlyph name="Idieresis" xMin="11" yMin="-4" xMax="306" yMax="911">
      <contour>
        <pt x="61" y="-4" on="1"/>
        <pt x="47" y="-4" on="0"/>
        <pt x="47" y="21" on="0"/>
        <pt x="58" y="23" on="1"/>
        <pt x="75" y="25" on="1"/>
        <pt x="116" y="30" on="0"/>
        <pt x="116" y="66" on="1"/>
        <pt x="116" y="634" on="1"/>
        <pt x="116" y="670" on="0"/>
        <pt x="70" y="674" on="1"/>
        <pt x="41" y="677" on="1"/>
        <pt x="30" y="679" on="0"/>
        <pt x="30" y="690" on="1"/>
        <pt x="30" y="704" on="0"/>
        <pt x="44" y="704" on="1"/>
        <pt x="157" y="700" on="1"/>
        <pt x="256" y="704" on="1"/>
        <pt x="271" y="704" on="0"/>
        <pt x="271" y="692" on="1"/>
        <pt x="271" y="678" on="0"/>
        <pt x="258" y="677" on="1"/>
        <pt x="241" y="674" on="1"/>
        <pt x="201" y="667" on="0"/>
        <pt x="201" y="634" on="1"/>
        <pt x="201" y="66" on="1"/>
        <pt x="201" y="48" on="0"/>
        <pt x="227" y="27" on="0"/>
        <pt x="246" y="25" on="1"/>
        <pt x="275" y="23" on="1"/>
        <pt x="287" y="23" on="0"/>
        <pt x="287" y="10" on="1"/>
        <pt x="287" y="4" on="0"/>
        <pt x="278" y="-4" on="0"/>
        <pt x="273" y="-4" on="1"/>
        <pt x="160" y="0" on="1"/>
      </contour>
      <contour>
        <pt x="11" y="837" on="0"/>
        <pt x="11" y="881" on="0"/>
        <pt x="41" y="911" on="0"/>
        <pt x="85" y="911" on="0"/>
        <pt x="115" y="881" on="0"/>
        <pt x="115" y="837" on="0"/>
        <pt x="85" y="807" on="0"/>
        <pt x="41" y="807" on="0"/>
      </contour>
      <contour>
        <pt x="202" y="837" on="0"/>
        <pt x="202" y="881" on="0"/>
        <pt x="232" y="911" on="0"/>
        <pt x="276" y="911" on="0"/>
        <pt x="306" y="881" on="0"/>
        <pt x="306" y="837" on="0"/>
        <pt x="276" y="807" on="0"/>
        <pt x="232" y="807" on="0"/>
      </contour>
    </TTGlyph>
    <TTGlyph name="Igrave" xMin="30" yMin="-4" xMax="287" yMax="943">
      <component glyphName="I" x="0" y="0" flags="0x1004"/>
      <component glyphName="grave" x="-34" y="200" flags="0x1004"/>
    </TTGlyph>
    <TTGlyph name="Itilde" xMin="-20" yMin="-4" xMax="338" yMax="917">
      <component glyphName="I" x="0" y="0" flags="0x1004"/>
      <component glyphName="tilde" x="-85" y="200" flags="0x1004"/>
    </TTGlyph>
    <TTGlyph name="J" xMin="-6" yMin="-300" xMax="272" yMax="704">
      <contour>
        <pt x="202" y="634" on="1"/>
        <pt x="202" y="-5" on="1"/>
        <pt x="202" y="-107" on="0"/>
        <pt x="135" y="-232" on="0"/>
        <pt x="75" y="-272" on="1"/>
        <pt x="31" y="-300" on="0"/>
        <pt x="6" y="-300" on="0"/>
        <pt x="2" y="-293" on="1"/>
        <pt x="-5" y="-280" on="0"/>
        <pt x="-5" y="-270" on="0"/>
        <pt x="2" y="-265" on="1"/>
        <pt x="53" y="-229" on="0"/>
        <pt x="67" y="-212" on="1"/>
        <pt x="117" y="-159" on="0"/>
        <pt x="117" y="-56" on="1"/>
        <pt x="117" y="634" on="1"/>
        <pt x="117" y="670" on="0"/>
        <pt x="71" y="674" on="1"/>
        <pt x="42" y="677" on="1"/>
        <pt x="31" y="679" on="0"/>
        <pt x="31" y="690" on="1"/>
        <pt x="31" y="704" on="0"/>
        <pt x="45" y="704" on="1"/>
        <pt x="158" y="700" on="1"/>
        <pt x="257" y="704" on="1"/>
        <pt x="272" y="704" on="0"/>
        <pt x="272" y="692" on="1"/>
        <pt x="272" y="678" on="0"/>
        <pt x="259" y="677" on="1"/>
        <pt x="242" y="674" on="1"/>
        <pt x="202" y="667" on="0"/>
      </contour>
    </TTGlyph>
    <TTGlyph name="Jcircumflex" xMin="-2" yMin="-300" xMax="314" yMax="952">
      <component glyphName="J" x="0" y="0" flags="0x1004"/>
      <component glyphName="circumflex" x="-61" y="200" flags="0x1004"/>
    </TTGlyph>
    <TTGlyph name="K" xMin="30" yMin="-4" xMax="710" yMax="704">
      <contour>
        <pt x="508" y="666" on="1"/>
        <pt x="503" y="692" on="1"/>
        <pt x="503" y="703" on="0"/>
        <pt x="516" y="703" on="1"/>
        <pt x="572" y="700" on="1"/>
        <pt x="670" y="704" on="1"/>
        <pt x="685" y="704" on="0"/>
        <pt x="685" y="677" on="0"/>
        <pt x="672" y="677" on="1"/>
        <pt x="642" y="674" on="1"/>
        <pt x="608" y="671" on="0"/>
        <pt x="576" y="634" on="1"/>
        <pt x="356" y="386" on="1"/>
        <pt x="342" y="370" on="0"/>
        <pt x="321" y="361" on="1"/>
        <pt x="342" y="352" on="0"/>
        <pt x="356" y="335" on="1"/>
        <pt x="602" y="68" on="1"/>
        <pt x="639" y="29" on="0"/>
        <pt x="668" y="27" on="1"/>
        <pt x="697" y="25" on="1"/>
        <pt x="710" y="23" on="0"/>
        <pt x="710" y="-2" on="0"/>
        <pt x="696" y="-2" on="1"/>
        <pt x="578" y="0" on="0"/>
        <pt x="539" y="0" on="0"/>
        <pt x="519" y="22" on="1"/>
        <pt x="280" y="295" on="1"/>
        <pt x="255" y="325" on="0"/>
        <pt x="233" y="325" on="1"/>
        <pt x="233" y="325" on="0"/>
        <pt x="232" y="325" on="1"/>
        <pt x="208" y="325" on="1"/>
        <pt x="201" y="325" on="0"/>
        <pt x="201" y="314" on="1"/>
        <pt x="201" y="66" on="1"/>
        <pt x="201" y="27" on="0"/>
        <pt x="228" y="24" on="1"/>
        <pt x="238" y="23" on="1"/>
        <pt x="249" y="21" on="0"/>
        <pt x="249" y="10" on="1"/>
        <pt x="249" y="-4" on="0"/>
        <pt x="235" y="-4" on="1"/>
        <pt x="160" y="0" on="1"/>
        <pt x="61" y="-4" on="1"/>
        <pt x="46" y="-4" on="0"/>
        <pt x="46" y="21" on="0"/>
        <pt x="58" y="23" on="1"/>
        <pt x="75" y="25" on="1"/>
        <pt x="116" y="30" on="0"/>
        <pt x="116" y="66" on="1"/>
        <pt x="116" y="634" on="1"/>
        <pt x="116" y="668" on="0"/>
        <pt x="70" y="674" on="1"/>
        <pt x="41" y="677" on="1"/>
        <pt x="30" y="679" on="0"/>
        <pt x="30" y="690" on="1"/>
        <pt x="30" y="704" on="0"/>
        <pt x="44" y="704" on="1"/>
        <pt x="157" y="700" on="1"/>
        <pt x="235" y="704" on="1"/>
        <pt x="250" y="704" on="0"/>
        <pt x="250" y="679" on="0"/>
        <pt x="237" y="677" on="1"/>
        <pt x="228" y="676" on="1"/>
        <pt x="201" y="671" on="0"/>
        <pt x="201" y="634" on="1"/>
        <pt x="201" y="383" on="1"/>
        <pt x="201" y="371" on="0"/>
        <pt x="210" y="371" on="1"/>
        <pt x="236" y="371" on="1"/>
        <pt x="260" y="371" on="0"/>
        <pt x="285" y="401" on="1"/>
        <pt x="495" y="640" on="1"/>
        <pt x="508" y="654" on="0"/>
      </contour>
    </TTGlyph>
    <TTGlyph name="L" xMin="30" yMin="-4" xMax="573" yMax="704">
      <contour>
        <pt x="201" y="634" on="1"/>
        <pt x="201" y="92" on="1"/>
        <pt x="201" y="71" on="0"/>
        <pt x="228" y="46" on="0"/>
        <pt x="250" y="46" on="1"/>
        <pt x="395" y="46" on="1"/>
        <pt x="448" y="46" on="0"/>
        <pt x="524" y="97" on="0"/>
        <pt x="538" y="146" on="1"/>
        <pt x="543" y="162" on="0"/>
        <pt x="575" y="162" on="0"/>
        <pt x="573" y="144" on="1"/>
        <pt x="557" y="40" on="1"/>
        <pt x="555" y="23" on="0"/>
        <pt x="531" y="0" on="0"/>
        <pt x="512" y="0" on="1"/>
        <pt x="157" y="0" on="1"/>
        <pt x="44" y="-4" on="1"/>
        <pt x="30" y="-4" on="0"/>
        <pt x="30" y="23" on="0"/>
        <pt x="41" y="23" on="1"/>
        <pt x="70" y="25" on="1"/>
        <pt x="90" y="27" on="0"/>
        <pt x="116" y="48" on="0"/>
        <pt x="116" y="66" on="1"/>
        <pt x="116" y="634" on="1"/>
        <pt x="116" y="670" on="0"/>
        <pt x="70" y="674" on="1"/>
        <pt x="41" y="677" on="1"/>
        <pt x="30" y="679" on="0"/>
        <pt x="30" y="690" on="1"/>
        <pt x="30" y="704" on="0"/>
        <pt x="44" y="704" on="1"/>
        <pt x="157" y="700" on="1"/>
        <pt x="256" y="704" on="1"/>
        <pt x="271" y="704" on="0"/>
        <pt x="271" y="692" on="1"/>
        <pt x="271" y="678" on="0"/>
        <pt x="258" y="677" on="1"/>
        <pt x="241" y="674" on="1"/>
        <pt x="201" y="667" on="0"/>
      </contour>
    </TTGlyph>
    <TTGlyph name="Ldotaccent" xMin="30" yMin="-4" xMax="573" yMax="704">
      <contour>
        <pt x="201" y="634" on="1"/>
        <pt x="201" y="92" on="1"/>
        <pt x="201" y="71" on="0"/>
        <pt x="228" y="46" on="0"/>
        <pt x="250" y="46" on="1"/>
        <pt x="395" y="46" on="1"/>
        <pt x="448" y="46" on="0"/>
        <pt x="524" y="97" on="0"/>
        <pt x="538" y="146" on="1"/>
        <pt x="543" y="162" on="0"/>
        <pt x="575" y="162" on="0"/>
        <pt x="573" y="144" on="1"/>
        <pt x="557" y="40" on="1"/>
        <pt x="555" y="23" on="0"/>
        <pt x="531" y="0" on="0"/>
        <pt x="512" y="0" on="1"/>
        <pt x="157" y="0" on="1"/>
        <pt x="44" y="-4" on="1"/>
        <pt x="30" y="-4" on="0"/>
        <pt x="30" y="23" on="0"/>
        <pt x="41" y="23" on="1"/>
        <pt x="70" y="25" on="1"/>
        <pt x="90" y="27" on="0"/>
        <pt x="116" y="48" on="0"/>
        <pt x="116" y="66" on="1"/>
        <pt x="116" y="634" on="1"/>
        <pt x="116" y="670" on="0"/>
        <pt x="70" y="674" on="1"/>
        <pt x="41" y="677" on="1"/>
        <pt x="30" y="679" on="0"/>
        <pt x="30" y="690" on="1"/>
        <pt x="30" y="704" on="0"/>
        <pt x="44" y="704" on="1"/>
        <pt x="157" y="700" on="1"/>
        <pt x="256" y="704" on="1"/>
        <pt x="271" y="704" on="0"/>
        <pt x="271" y="692" on="1"/>
        <pt x="271" y="678" on="0"/>
        <pt x="258" y="677" on="1"/>
        <pt x="241" y="674" on="1"/>
        <pt x="201" y="667" on="0"/>
      </contour>
      <contour>
        <pt x="286" y="302" on="0"/>
        <pt x="286" y="346" on="0"/>
        <pt x="316" y="376" on="0"/>
        <pt x="360" y="376" on="0"/>
        <pt x="390" y="346" on="0"/>
        <pt x="390" y="302" on="0"/>
        <pt x="360" y="272" on="0"/>
        <pt x="316" y="272" on="0"/>
      </contour>
    </TTGlyph>
    <TTGlyph name="Lslash" xMin="30" yMin="-4" xMax="573" yMax="704">
      <contour>
        <pt x="373" y="390" on="1"/>
        <pt x="373" y="359" on="1"/>
        <pt x="373" y="349" on="0"/>
        <pt x="361" y="345" on="1"/>
        <pt x="43" y="208" on="1"/>
        <pt x="38" y="206" on="0"/>
        <pt x="31" y="211" on="0"/>
        <pt x="31" y="216" on="1"/>
        <pt x="31" y="247" on="1"/>
        <pt x="31" y="257" on="0"/>
        <pt x="43" y="261" on="1"/>
        <pt x="361" y="398" on="1"/>
        <pt x="366" y="400" on="0"/>
        <pt x="373" y="395" on="0"/>
      </contour>
      <contour>
        <pt x="201" y="634" on="1"/>
        <pt x="201" y="92" on="1"/>
        <pt x="201" y="71" on="0"/>
        <pt x="228" y="46" on="0"/>
        <pt x="250" y="46" on="1"/>
        <pt x="395" y="46" on="1"/>
        <pt x="448" y="46" on="0"/>
        <pt x="524" y="97" on="0"/>
        <pt x="538" y="146" on="1"/>
        <pt x="543" y="162" on="0"/>
        <pt x="575" y="162" on="0"/>
        <pt x="573" y="144" on="1"/>
        <pt x="557" y="40" on="1"/>
        <pt x="555" y="23" on="0"/>
        <pt x="531" y="0" on="0"/>
        <pt x="512" y="0" on="1"/>
        <pt x="157" y="0" on="1"/>
        <pt x="44" y="-4" on="1"/>
        <pt x="30" y="-4" on="0"/>
        <pt x="30" y="23" on="0"/>
        <pt x="41" y="23" on="1"/>
        <pt x="70" y="25" on="1"/>
        <pt x="90" y="27" on="0"/>
        <pt x="116" y="48" on="0"/>
        <pt x="116" y="66" on="1"/>
        <pt x="116" y="634" on="1"/>
        <pt x="116" y="670" on="0"/>
        <pt x="70" y="674" on="1"/>
        <pt x="41" y="677" on="1"/>
        <pt x="30" y="679" on="0"/>
        <pt x="30" y="690" on="1"/>
        <pt x="30" y="704" on="0"/>
        <pt x="44" y="704" on="1"/>
        <pt x="157" y="700" on="1"/>
        <pt x="256" y="704" on="1"/>
        <pt x="271" y="704" on="0"/>
        <pt x="271" y="692" on="1"/>
        <pt x="271" y="678" on="0"/>
        <pt x="258" y="677" on="1"/>
        <pt x="241" y="674" on="1"/>
        <pt x="201" y="667" on="0"/>
      </contour>
    </TTGlyph>
    <TTGlyph name="M" xMin="25" yMin="-7" xMax="935" yMax="703">
      <contour>
        <pt x="935" y="10" on="1"/>
        <pt x="935" y="4" on="0"/>
        <pt x="926" y="-4" on="0"/>
        <pt x="921" y="-4" on="1"/>
        <pt x="808" y="0" on="1"/>
        <pt x="709" y="-4" on="1"/>
        <pt x="695" y="-4" on="0"/>
        <pt x="695" y="21" on="0"/>
        <pt x="706" y="23" on="1"/>
        <pt x="723" y="25" on="1"/>
        <pt x="765" y="30" on="0"/>
        <pt x="765" y="66" on="1"/>
        <pt x="757" y="539" on="1"/>
        <pt x="757" y="549" on="0"/>
        <pt x="751" y="549" on="1"/>
        <pt x="748" y="549" on="0"/>
        <pt x="747" y="546" on="1"/>
        <pt x="475" y="2" on="1"/>
        <pt x="470" y="-7" on="0"/>
        <pt x="456" y="-7" on="0"/>
        <pt x="452" y="2" on="1"/>
        <pt x="179" y="530" on="1"/>
        <pt x="178" y="533" on="0"/>
        <pt x="175" y="533" on="1"/>
        <pt x="169" y="533" on="0"/>
        <pt x="169" y="523" on="1"/>
        <pt x="163" y="66" on="1"/>
        <pt x="163" y="33" on="0"/>
        <pt x="203" y="26" on="1"/>
        <pt x="220" y="23" on="1"/>
        <pt x="233" y="21" on="0"/>
        <pt x="233" y="-3" on="0"/>
        <pt x="218" y="-3" on="1"/>
        <pt x="136" y="0" on="1"/>
        <pt x="39" y="-3" on="1"/>
        <pt x="25" y="-3" on="0"/>
        <pt x="25" y="21" on="0"/>
        <pt x="36" y="23" on="1"/>
        <pt x="65" y="26" on="1"/>
        <pt x="111" y="31" on="0"/>
        <pt x="111" y="66" on="1"/>
        <pt x="123" y="634" on="1"/>
        <pt x="124" y="669" on="0"/>
        <pt x="83" y="674" on="1"/>
        <pt x="65" y="676" on="1"/>
        <pt x="53" y="678" on="0"/>
        <pt x="53" y="703" on="0"/>
        <pt x="68" y="703" on="1"/>
        <pt x="156" y="700" on="1"/>
        <pt x="190" y="699" on="0"/>
        <pt x="199" y="680" on="1"/>
        <pt x="482" y="120" on="1"/>
        <pt x="758" y="680" on="1"/>
        <pt x="767" y="698" on="0"/>
        <pt x="802" y="700" on="1"/>
        <pt x="891" y="703" on="1"/>
        <pt x="907" y="703" on="0"/>
        <pt x="907" y="678" on="0"/>
        <pt x="895" y="676" on="1"/>
        <pt x="877" y="674" on="1"/>
        <pt x="838" y="671" on="0"/>
        <pt x="838" y="634" on="1"/>
        <pt x="850" y="66" on="1"/>
        <pt x="850" y="48" on="0"/>
        <pt x="875" y="27" on="0"/>
        <pt x="894" y="25" on="1"/>
        <pt x="923" y="23" on="1"/>
        <pt x="935" y="23" on="0"/>
      </contour>
    </TTGlyph>
    <TTGlyph name="N" xMin="30" yMin="-11" xMax="732" yMax="703">
      <contour>
        <pt x="613" y="149" on="1"/>
        <pt x="613" y="634" on="1"/>
        <pt x="613" y="669" on="0"/>
        <pt x="568" y="674" on="1"/>
        <pt x="539" y="677" on="1"/>
        <pt x="528" y="679" on="0"/>
        <pt x="528" y="703" on="0"/>
        <pt x="542" y="703" on="1"/>
        <pt x="639" y="700" on="1"/>
        <pt x="717" y="703" on="1"/>
        <pt x="732" y="703" on="0"/>
        <pt x="732" y="679" on="0"/>
        <pt x="719" y="677" on="1"/>
        <pt x="702" y="674" on="1"/>
        <pt x="662" y="667" on="0"/>
        <pt x="662" y="634" on="1"/>
        <pt x="662" y="1" on="1"/>
        <pt x="662" y="-11" on="0"/>
        <pt x="651" y="-11" on="1"/>
        <pt x="638" y="-11" on="1"/>
        <pt x="613" y="-11" on="0"/>
        <pt x="595" y="13" on="1"/>
        <pt x="174" y="552" on="1"/>
        <pt x="172" y="554" on="0"/>
        <pt x="164" y="554" on="0"/>
        <pt x="164" y="544" on="1"/>
        <pt x="164" y="66" on="1"/>
        <pt x="164" y="33" on="0"/>
        <pt x="204" y="26" on="1"/>
        <pt x="221" y="23" on="1"/>
        <pt x="234" y="21" on="0"/>
        <pt x="234" y="-3" on="0"/>
        <pt x="219" y="-3" on="1"/>
        <pt x="141" y="0" on="1"/>
        <pt x="44" y="-3" on="1"/>
        <pt x="30" y="-3" on="0"/>
        <pt x="30" y="21" on="0"/>
        <pt x="41" y="23" on="1"/>
        <pt x="70" y="26" on="1"/>
        <pt x="116" y="31" on="0"/>
        <pt x="116" y="66" on="1"/>
        <pt x="116" y="634" on="1"/>
        <pt x="116" y="669" on="0"/>
        <pt x="76" y="674" on="1"/>
        <pt x="58" y="676" on="1"/>
        <pt x="46" y="678" on="0"/>
        <pt x="46" y="703" on="0"/>
        <pt x="61" y="703" on="1"/>
        <pt x="141" y="700" on="1"/>
        <pt x="170" y="699" on="0"/>
        <pt x="185" y="681" on="1"/>
        <pt x="602" y="146" on="1"/>
        <pt x="605" y="143" on="0"/>
        <pt x="613" y="143" on="0"/>
      </contour>
    </TTGlyph>
    <TTGlyph name="Nacute" xMin="30" yMin="-11" xMax="732" yMax="943">
      <component glyphName="N" x="0" y="0" flags="0x1004"/>
      <component glyphName="acute" x="248" y="200" flags="0x1004"/>
    </TTGlyph>
    <TTGlyph name="Ntilde" xMin="30" yMin="-11" xMax="732" yMax="917">
      <component glyphName="N" x="0" y="0" flags="0x1004"/>
      <component glyphName="tilde" x="137" y="200" flags="0x1004"/>
    </TTGlyph>
    <TTGlyph name="O" xMin="50" yMin="-11" xMax="750" yMax="711">
      <contour>
        <pt x="559" y="711" on="0"/>
        <pt x="750" y="510" on="0"/>
        <pt x="750" y="194" on="0"/>
        <pt x="555" y="-11" on="0"/>
        <pt x="244" y="-11" on="0"/>
        <pt x="50" y="193" on="0"/>
        <pt x="50" y="506" on="0"/>
        <pt x="244" y="711" on="0"/>
      </contour>
      <contour>
        <pt x="598" y="554" on="1"/>
        <pt x="569" y="605" on="0"/>
        <pt x="467" y="665" on="0"/>
        <pt x="399" y="665" on="1"/>
        <pt x="277" y="665" on="0"/>
        <pt x="144" y="516" on="0"/>
        <pt x="144" y="388" on="1"/>
        <pt x="144" y="255" on="0"/>
        <pt x="204" y="150" on="1"/>
        <pt x="233" y="98" on="0"/>
        <pt x="337" y="35" on="0"/>
        <pt x="404" y="35" on="1"/>
        <pt x="523" y="35" on="0"/>
        <pt x="656" y="191" on="0"/>
        <pt x="656" y="455" on="0"/>
      </contour>
    </TTGlyph>
    <TTGlyph name="OE" xMin="50" yMin="-11" xMax="1011" yMax="711">
      <contour>
        <pt x="950" y="0" on="1"/>
        <pt x="575" y="0" on="1"/>
        <pt x="477" y="-3" on="1"/>
        <pt x="437" y="-11" on="0"/>
        <pt x="400" y="-11" on="1"/>
        <pt x="244" y="-11" on="0"/>
        <pt x="50" y="193" on="0"/>
        <pt x="50" y="506" on="0"/>
        <pt x="244" y="711" on="0"/>
        <pt x="400" y="711" on="1"/>
        <pt x="439" y="711" on="0"/>
        <pt x="479" y="703" on="1"/>
        <pt x="575" y="700" on="1"/>
        <pt x="930" y="700" on="1"/>
        <pt x="949" y="700" on="0"/>
        <pt x="973" y="677" on="0"/>
        <pt x="975" y="660" on="1"/>
        <pt x="989" y="568" on="1"/>
        <pt x="991" y="550" on="0"/>
        <pt x="958" y="550" on="0"/>
        <pt x="953" y="566" on="1"/>
        <pt x="938" y="614" on="0"/>
        <pt x="878" y="654" on="0"/>
        <pt x="825" y="654" on="1"/>
        <pt x="668" y="654" on="1"/>
        <pt x="646" y="654" on="0"/>
        <pt x="619" y="629" on="0"/>
        <pt x="619" y="607" on="1"/>
        <pt x="619" y="397" on="1"/>
        <pt x="619" y="384" on="0"/>
        <pt x="632" y="384" on="1"/>
        <pt x="818" y="384" on="1"/>
        <pt x="832" y="384" on="0"/>
        <pt x="848" y="398" on="0"/>
        <pt x="853" y="410" on="0"/>
        <pt x="858" y="426" on="1"/>
        <pt x="862" y="439" on="1"/>
        <pt x="865" y="451" on="0"/>
        <pt x="889" y="451" on="0"/>
        <pt x="889" y="437" on="1"/>
        <pt x="885" y="352" on="1"/>
        <pt x="889" y="271" on="1"/>
        <pt x="889" y="258" on="0"/>
        <pt x="876" y="256" on="1"/>
        <pt x="864" y="256" on="0"/>
        <pt x="862" y="268" on="1"/>
        <pt x="859" y="286" on="1"/>
        <pt x="850" y="338" on="0"/>
        <pt x="818" y="338" on="1"/>
        <pt x="631" y="338" on="1"/>
        <pt x="619" y="338" on="0"/>
        <pt x="619" y="324" on="1"/>
        <pt x="619" y="92" on="1"/>
        <pt x="619" y="71" on="0"/>
        <pt x="646" y="46" on="0"/>
        <pt x="668" y="46" on="1"/>
        <pt x="833" y="46" on="1"/>
        <pt x="885" y="46" on="0"/>
        <pt x="960" y="97" on="0"/>
        <pt x="975" y="146" on="1"/>
        <pt x="980" y="162" on="0"/>
        <pt x="1003" y="162" on="0"/>
        <pt x="1012" y="151" on="0"/>
        <pt x="1011" y="144" on="1"/>
        <pt x="995" y="40" on="1"/>
        <pt x="993" y="23" on="0"/>
        <pt x="968" y="0" on="0"/>
      </contour>
      <contour>
        <pt x="233" y="98" on="0"/>
        <pt x="337" y="35" on="0"/>
        <pt x="479" y="35" on="0"/>
        <pt x="534" y="67" on="1"/>
        <pt x="534" y="625" on="1"/>
        <pt x="476" y="665" on="0"/>
        <pt x="399" y="665" on="1"/>
        <pt x="277" y="665" on="0"/>
        <pt x="144" y="516" on="0"/>
        <pt x="144" y="388" on="1"/>
        <pt x="144" y="255" on="0"/>
        <pt x="204" y="150" on="1"/>
      </contour>
    </TTGlyph>
    <TTGlyph name="Oacute" xMin="50" yMin="-11" xMax="750" yMax="943">
      <contour>
        <pt x="559" y="711" on="0"/>
        <pt x="750" y="510" on="0"/>
        <pt x="750" y="194" on="0"/>
        <pt x="555" y="-11" on="0"/>
        <pt x="244" y="-11" on="0"/>
        <pt x="50" y="193" on="0"/>
        <pt x="50" y="506" on="0"/>
        <pt x="244" y="711" on="0"/>
      </contour>
      <contour>
        <pt x="598" y="554" on="1"/>
        <pt x="569" y="605" on="0"/>
        <pt x="467" y="665" on="0"/>
        <pt x="399" y="665" on="1"/>
        <pt x="277" y="665" on="0"/>
        <pt x="144" y="516" on="0"/>
        <pt x="144" y="388" on="1"/>
        <pt x="144" y="255" on="0"/>
        <pt x="204" y="150" on="1"/>
        <pt x="233" y="98" on="0"/>
        <pt x="337" y="35" on="0"/>
        <pt x="404" y="35" on="1"/>
        <pt x="523" y="35" on="0"/>
        <pt x="656" y="191" on="0"/>
        <pt x="656" y="455" on="0"/>
      </contour>
      <contour>
        <pt x="443" y="934" on="1"/>
        <pt x="453" y="943" on="0"/>
        <pt x="482" y="943" on="0"/>
        <pt x="507" y="914" on="0"/>
        <pt x="507" y="875" on="0"/>
        <pt x="488" y="865" on="1"/>
        <pt x="310" y="778" on="1"/>
        <pt x="292" y="802" on="1"/>
      </contour>
    </TTGlyph>
    <TTGlyph name="Ocircumflex" xMin="50" yMin="-11" xMax="750" yMax="952">
      <component glyphName="O" x="0" y="0" flags="0x1004"/>
      <component glyphName="circumflex" x="180" y="200" flags="0x1004"/>
    </TTGlyph>
    <TTGlyph name="Odieresis" xMin="50" yMin="-11" xMax="750" yMax="911">
      <component glyphName="O" x="0" y="0" flags="0x1004"/>
      <component glyphName="dieresis" x="192" y="200" flags="0x1004"/>
    </TTGlyph>
    <TTGlyph name="Ograve" xMin="50" yMin="-11" xMax="750" yMax="943">
      <component glyphName="O" x="0" y="0" flags="0x1004"/>
      <component glyphName="grave" x="227" y="200" flags="0x1004"/>
    </TTGlyph>
    <TTGlyph name="Oslash" xMin="47" yMin="-11" xMax="753" yMax="711">
      <contour>
        <pt x="666" y="598" on="1"/>
        <pt x="750" y="500" on="0"/>
        <pt x="750" y="194" on="0"/>
        <pt x="555" y="-11" on="0"/>
        <pt x="262" y="-11" on="0"/>
        <pt x="169" y="69" on="1"/>
        <pt x="116" y="12" on="1"/>
        <pt x="104" y="0" on="0"/>
        <pt x="96" y="0" on="1"/>
        <pt x="54" y="0" on="1"/>
        <pt x="47" y="0" on="0"/>
        <pt x="47" y="6" on="1"/>
        <pt x="47" y="9" on="0"/>
        <pt x="50" y="12" on="1"/>
        <pt x="135" y="103" on="1"/>
        <pt x="50" y="204" on="0"/>
        <pt x="50" y="506" on="0"/>
        <pt x="244" y="711" on="0"/>
        <pt x="400" y="711" on="1"/>
        <pt x="538" y="711" on="0"/>
        <pt x="631" y="632" on="1"/>
        <pt x="684" y="688" on="1"/>
        <pt x="696" y="700" on="0"/>
        <pt x="704" y="700" on="1"/>
        <pt x="746" y="700" on="1"/>
        <pt x="753" y="700" on="0"/>
        <pt x="753" y="694" on="1"/>
        <pt x="753" y="691" on="0"/>
        <pt x="750" y="688" on="1"/>
      </contour>
      <contour>
        <pt x="277" y="665" on="0"/>
        <pt x="144" y="516" on="0"/>
        <pt x="144" y="259" on="0"/>
        <pt x="194" y="166" on="1"/>
        <pt x="581" y="578" on="1"/>
        <pt x="514" y="665" on="0"/>
      </contour>
      <contour>
        <pt x="523" y="35" on="0"/>
        <pt x="656" y="191" on="0"/>
        <pt x="656" y="444" on="0"/>
        <pt x="608" y="537" on="1"/>
        <pt x="221" y="124" on="1"/>
        <pt x="289" y="35" on="0"/>
      </contour>
    </TTGlyph>
    <TTGlyph name="Otilde" xMin="50" yMin="-11" xMax="750" yMax="917">
      <contour>
        <pt x="559" y="711" on="0"/>
        <pt x="750" y="510" on="0"/>
        <pt x="750" y="194" on="0"/>
        <pt x="555" y="-11" on="0"/>
        <pt x="244" y="-11" on="0"/>
        <pt x="50" y="193" on="0"/>
        <pt x="50" y="506" on="0"/>
        <pt x="244" y="711" on="0"/>
      </contour>
      <contour>
        <pt x="598" y="554" on="1"/>
        <pt x="569" y="605" on="0"/>
        <pt x="467" y="665" on="0"/>
        <pt x="399" y="665" on="1"/>
        <pt x="277" y="665" on="0"/>
        <pt x="144" y="516" on="0"/>
        <pt x="144" y="388" on="1"/>
        <pt x="144" y="255" on="0"/>
        <pt x="204" y="150" on="1"/>
        <pt x="233" y="98" on="0"/>
        <pt x="337" y="35" on="0"/>
        <pt x="404" y="35" on="1"/>
        <pt x="523" y="35" on="0"/>
        <pt x="656" y="191" on="0"/>
        <pt x="656" y="455" on="0"/>
      </contour>
      <contour>
        <pt x="463" y="810" on="1"/>
        <pt x="436" y="810" on="0"/>
        <pt x="346" y="856" on="0"/>
        <pt x="295" y="856" on="0"/>
        <pt x="263" y="832" on="0"/>
        <pt x="258" y="820" on="1"/>
        <pt x="253" y="808" on="1"/>
        <pt x="221" y="823" on="1"/>
        <pt x="226" y="849" on="0"/>
        <pt x="286" y="915" on="0"/>
        <pt x="337" y="915" on="1"/>
        <pt x="366" y="915" on="0"/>
        <pt x="464" y="869" on="0"/>
        <pt x="505" y="869" on="0"/>
        <pt x="537" y="893" on="0"/>
        <pt x="542" y="905" on="1"/>
        <pt x="547" y="917" on="1"/>
        <pt x="579" y="902" on="1"/>
        <pt x="574" y="876" on="0"/>
        <pt x="514" y="810" on="0"/>
      </contour>
    </TTGlyph>
    <TTGlyph name="P" xMin="30" yMin="-4" xMax="566" yMax="704">
      <contour>
        <pt x="474" y="436" on="0"/>
        <pt x="474" y="572" on="0"/>
        <pt x="384" y="656" on="0"/>
        <pt x="301" y="656" on="1"/>
        <pt x="241" y="656" on="1"/>
        <pt x="201" y="656" on="0"/>
        <pt x="201" y="616" on="1"/>
        <pt x="201" y="362" on="1"/>
        <pt x="201" y="349" on="0"/>
        <pt x="212" y="349" on="1"/>
        <pt x="301" y="349" on="1"/>
        <pt x="384" y="349" on="0"/>
      </contour>
      <contour>
        <pt x="322" y="700" on="1"/>
        <pt x="437" y="700" on="0"/>
        <pt x="566" y="594" on="0"/>
        <pt x="566" y="419" on="0"/>
        <pt x="440" y="303" on="0"/>
        <pt x="334" y="303" on="1"/>
        <pt x="216" y="303" on="1"/>
        <pt x="201" y="303" on="0"/>
        <pt x="201" y="291" on="1"/>
        <pt x="201" y="66" on="1"/>
        <pt x="201" y="48" on="0"/>
        <pt x="227" y="26" on="0"/>
        <pt x="246" y="25" on="1"/>
        <pt x="288" y="23" on="1"/>
        <pt x="299" y="23" on="0"/>
        <pt x="299" y="-4" on="0"/>
        <pt x="285" y="-4" on="1"/>
        <pt x="160" y="0" on="1"/>
        <pt x="49" y="-4" on="1"/>
        <pt x="34" y="-4" on="0"/>
        <pt x="34" y="8" on="1"/>
        <pt x="34" y="22" on="0"/>
        <pt x="46" y="23" on="1"/>
        <pt x="75" y="25" on="1"/>
        <pt x="116" y="28" on="0"/>
        <pt x="116" y="66" on="1"/>
        <pt x="116" y="634" on="1"/>
        <pt x="116" y="670" on="0"/>
        <pt x="70" y="674" on="1"/>
        <pt x="41" y="677" on="1"/>
        <pt x="30" y="679" on="0"/>
        <pt x="30" y="690" on="1"/>
        <pt x="30" y="704" on="0"/>
        <pt x="44" y="704" on="1"/>
        <pt x="182" y="700" on="1"/>
      </contour>
    </TTGlyph>
    <TTGlyph name="Q" xMin="50" yMin="-253" xMax="756" yMax="711">
      <contour>
        <pt x="756" y="-239" on="1"/>
        <pt x="756" y="-253" on="0"/>
        <pt x="742" y="-253" on="1"/>
        <pt x="643" y="-249" on="0"/>
        <pt x="598" y="-249" on="0"/>
        <pt x="583" y="-229" on="1"/>
        <pt x="443" y="-42" on="1"/>
        <pt x="419" y="-11" on="0"/>
        <pt x="400" y="-11" on="1"/>
        <pt x="243" y="-11" on="0"/>
        <pt x="50" y="192" on="0"/>
        <pt x="50" y="506" on="0"/>
        <pt x="244" y="711" on="0"/>
        <pt x="559" y="711" on="0"/>
        <pt x="750" y="510" on="0"/>
        <pt x="750" y="350" on="1"/>
        <pt x="750" y="221" on="0"/>
        <pt x="612" y="30" on="0"/>
        <pt x="495" y="1" on="1"/>
        <pt x="526" y="-13" on="0"/>
        <pt x="544" y="-37" on="1"/>
        <pt x="660" y="-183" on="1"/>
        <pt x="689" y="-219" on="0"/>
        <pt x="726" y="-224" on="1"/>
        <pt x="744" y="-226" on="1"/>
        <pt x="756" y="-228" on="0"/>
      </contour>
      <contour>
        <pt x="598" y="554" on="1"/>
        <pt x="569" y="605" on="0"/>
        <pt x="467" y="664" on="0"/>
        <pt x="399" y="664" on="1"/>
        <pt x="277" y="664" on="0"/>
        <pt x="144" y="515" on="0"/>
        <pt x="144" y="388" on="1"/>
        <pt x="144" y="255" on="0"/>
        <pt x="204" y="150" on="1"/>
        <pt x="233" y="98" on="0"/>
        <pt x="337" y="35" on="0"/>
        <pt x="404" y="35" on="1"/>
        <pt x="523" y="35" on="0"/>
        <pt x="656" y="190" on="0"/>
        <pt x="656" y="455" on="0"/>
      </contour>
    </TTGlyph>
    <TTGlyph name="R" xMin="30" yMin="-4" xMax="673" yMax="704">
      <contour>
        <pt x="497" y="454" on="0"/>
        <pt x="497" y="580" on="0"/>
        <pt x="405" y="655" on="0"/>
        <pt x="335" y="655" on="1"/>
        <pt x="241" y="655" on="1"/>
        <pt x="201" y="655" on="0"/>
        <pt x="201" y="615" on="1"/>
        <pt x="201" y="390" on="1"/>
        <pt x="201" y="377" on="0"/>
        <pt x="212" y="377" on="1"/>
        <pt x="335" y="377" on="1"/>
        <pt x="404" y="377" on="0"/>
      </contour>
      <contour>
        <pt x="369" y="700" on="1"/>
        <pt x="465" y="700" on="0"/>
        <pt x="588" y="602" on="0"/>
        <pt x="588" y="441" on="0"/>
        <pt x="467" y="336" on="0"/>
        <pt x="393" y="334" on="1"/>
        <pt x="392" y="332" on="1"/>
        <pt x="413" y="325" on="0"/>
        <pt x="425" y="306" on="1"/>
        <pt x="576" y="66" on="1"/>
        <pt x="597" y="31" on="0"/>
        <pt x="642" y="25" on="1"/>
        <pt x="660" y="23" on="1"/>
        <pt x="673" y="21" on="0"/>
        <pt x="673" y="10" on="1"/>
        <pt x="673" y="-4" on="0"/>
        <pt x="658" y="-4" on="1"/>
        <pt x="562" y="0" on="0"/>
        <pt x="515" y="0" on="0"/>
        <pt x="502" y="20" on="1"/>
        <pt x="333" y="301" on="1"/>
        <pt x="313" y="332" on="0"/>
        <pt x="289" y="332" on="1"/>
        <pt x="289" y="332" on="0"/>
        <pt x="288" y="332" on="1"/>
        <pt x="216" y="332" on="1"/>
        <pt x="201" y="332" on="0"/>
        <pt x="201" y="320" on="1"/>
        <pt x="201" y="66" on="1"/>
        <pt x="201" y="48" on="0"/>
        <pt x="227" y="26" on="0"/>
        <pt x="246" y="25" on="1"/>
        <pt x="288" y="23" on="1"/>
        <pt x="299" y="23" on="0"/>
        <pt x="299" y="-4" on="0"/>
        <pt x="285" y="-4" on="1"/>
        <pt x="160" y="0" on="1"/>
        <pt x="49" y="-4" on="1"/>
        <pt x="36" y="-4" on="0"/>
        <pt x="34" y="8" on="1"/>
        <pt x="34" y="22" on="0"/>
        <pt x="46" y="23" on="1"/>
        <pt x="75" y="25" on="1"/>
        <pt x="116" y="28" on="0"/>
        <pt x="116" y="66" on="1"/>
        <pt x="116" y="634" on="1"/>
        <pt x="116" y="670" on="0"/>
        <pt x="70" y="674" on="1"/>
        <pt x="41" y="677" on="1"/>
        <pt x="30" y="679" on="0"/>
        <pt x="30" y="690" on="1"/>
        <pt x="30" y="704" on="0"/>
        <pt x="44" y="704" on="1"/>
        <pt x="182" y="700" on="1"/>
      </contour>
    </TTGlyph>
    <TTGlyph name="Racute" xMin="30" yMin="-4" xMax="673" yMax="943">
      <contour>
        <pt x="497" y="454" on="0"/>
        <pt x="497" y="580" on="0"/>
        <pt x="405" y="655" on="0"/>
        <pt x="335" y="655" on="1"/>
        <pt x="241" y="655" on="1"/>
        <pt x="201" y="655" on="0"/>
        <pt x="201" y="615" on="1"/>
        <pt x="201" y="390" on="1"/>
        <pt x="201" y="377" on="0"/>
        <pt x="212" y="377" on="1"/>
        <pt x="335" y="377" on="1"/>
        <pt x="404" y="377" on="0"/>
      </contour>
      <contour>
        <pt x="369" y="700" on="1"/>
        <pt x="465" y="700" on="0"/>
        <pt x="588" y="602" on="0"/>
        <pt x="588" y="441" on="0"/>
        <pt x="467" y="336" on="0"/>
        <pt x="393" y="334" on="1"/>
        <pt x="392" y="332" on="1"/>
        <pt x="413" y="325" on="0"/>
        <pt x="425" y="306" on="1"/>
        <pt x="576" y="66" on="1"/>
        <pt x="597" y="31" on="0"/>
        <pt x="642" y="25" on="1"/>
        <pt x="660" y="23" on="1"/>
        <pt x="673" y="21" on="0"/>
        <pt x="673" y="10" on="1"/>
        <pt x="673" y="-4" on="0"/>
        <pt x="658" y="-4" on="1"/>
        <pt x="562" y="0" on="0"/>
        <pt x="515" y="0" on="0"/>
        <pt x="502" y="20" on="1"/>
        <pt x="333" y="301" on="1"/>
        <pt x="313" y="332" on="0"/>
        <pt x="289" y="332" on="1"/>
        <pt x="289" y="332" on="0"/>
        <pt x="288" y="332" on="1"/>
        <pt x="216" y="332" on="1"/>
        <pt x="201" y="332" on="0"/>
        <pt x="201" y="320" on="1"/>
        <pt x="201" y="66" on="1"/>
        <pt x="201" y="48" on="0"/>
        <pt x="227" y="26" on="0"/>
        <pt x="246" y="25" on="1"/>
        <pt x="288" y="23" on="1"/>
        <pt x="299" y="23" on="0"/>
        <pt x="299" y="-4" on="0"/>
        <pt x="285" y="-4" on="1"/>
        <pt x="160" y="0" on="1"/>
        <pt x="49" y="-4" on="1"/>
        <pt x="36" y="-4" on="0"/>
        <pt x="34" y="8" on="1"/>
        <pt x="34" y="22" on="0"/>
        <pt x="46" y="23" on="1"/>
        <pt x="75" y="25" on="1"/>
        <pt x="116" y="28" on="0"/>
        <pt x="116" y="66" on="1"/>
        <pt x="116" y="634" on="1"/>
        <pt x="116" y="670" on="0"/>
        <pt x="70" y="674" on="1"/>
        <pt x="41" y="677" on="1"/>
        <pt x="30" y="679" on="0"/>
        <pt x="30" y="690" on="1"/>
        <pt x="30" y="704" on="0"/>
        <pt x="44" y="704" on="1"/>
        <pt x="182" y="700" on="1"/>
      </contour>
      <contour>
        <pt x="377" y="934" on="1"/>
        <pt x="388" y="943" on="0"/>
        <pt x="416" y="943" on="0"/>
        <pt x="441" y="914" on="0"/>
        <pt x="441" y="875" on="0"/>
        <pt x="422" y="865" on="1"/>
        <pt x="244" y="778" on="1"/>
        <pt x="226" y="802" on="1"/>
      </contour>
    </TTGlyph>
    <TTGlyph name="Rcaron" xMin="30" yMin="-4" xMax="673" yMax="952">
      <contour>
        <pt x="497" y="454" on="0"/>
        <pt x="497" y="580" on="0"/>
        <pt x="405" y="655" on="0"/>
        <pt x="335" y="655" on="1"/>
        <pt x="241" y="655" on="1"/>
        <pt x="201" y="655" on="0"/>
        <pt x="201" y="615" on="1"/>
        <pt x="201" y="390" on="1"/>
        <pt x="201" y="377" on="0"/>
        <pt x="212" y="377" on="1"/>
        <pt x="335" y="377" on="1"/>
        <pt x="404" y="377" on="0"/>
      </contour>
      <contour>
        <pt x="369" y="700" on="1"/>
        <pt x="465" y="700" on="0"/>
        <pt x="588" y="602" on="0"/>
        <pt x="588" y="441" on="0"/>
        <pt x="467" y="336" on="0"/>
        <pt x="393" y="334" on="1"/>
        <pt x="392" y="332" on="1"/>
        <pt x="413" y="325" on="0"/>
        <pt x="425" y="306" on="1"/>
        <pt x="576" y="66" on="1"/>
        <pt x="597" y="31" on="0"/>
        <pt x="642" y="25" on="1"/>
        <pt x="660" y="23" on="1"/>
        <pt x="673" y="21" on="0"/>
        <pt x="673" y="10" on="1"/>
        <pt x="673" y="-4" on="0"/>
        <pt x="658" y="-4" on="1"/>
        <pt x="562" y="0" on="0"/>
        <pt x="515" y="0" on="0"/>
        <pt x="502" y="20" on="1"/>
        <pt x="333" y="301" on="1"/>
        <pt x="313" y="332" on="0"/>
        <pt x="289" y="332" on="1"/>
        <pt x="289" y="332" on="0"/>
        <pt x="288" y="332" on="1"/>
        <pt x="216" y="332" on="1"/>
        <pt x="201" y="332" on="0"/>
        <pt x="201" y="320" on="1"/>
        <pt x="201" y="66" on="1"/>
        <pt x="201" y="48" on="0"/>
        <pt x="227" y="26" on="0"/>
        <pt x="246" y="25" on="1"/>
        <pt x="288" y="23" on="1"/>
        <pt x="299" y="23" on="0"/>
        <pt x="299" y="-4" on="0"/>
        <pt x="285" y="-4" on="1"/>
        <pt x="160" y="0" on="1"/>
        <pt x="49" y="-4" on="1"/>
        <pt x="36" y="-4" on="0"/>
        <pt x="34" y="8" on="1"/>
        <pt x="34" y="22" on="0"/>
        <pt x="46" y="23" on="1"/>
        <pt x="75" y="25" on="1"/>
        <pt x="116" y="28" on="0"/>
        <pt x="116" y="66" on="1"/>
        <pt x="116" y="634" on="1"/>
        <pt x="116" y="670" on="0"/>
        <pt x="70" y="674" on="1"/>
        <pt x="41" y="677" on="1"/>
        <pt x="30" y="679" on="0"/>
        <pt x="30" y="690" on="1"/>
        <pt x="30" y="704" on="0"/>
        <pt x="44" y="704" on="1"/>
        <pt x="182" y="700" on="1"/>
      </contour>
      <contour>
        <pt x="169" y="929" on="1"/>
        <pt x="187" y="952" on="1"/>
        <pt x="324" y="876" on="1"/>
        <pt x="461" y="952" on="1"/>
        <pt x="479" y="929" on="1"/>
        <pt x="324" y="792" on="1"/>
      </contour>
    </TTGlyph>
    <TTGlyph name="Rcommaaccent" xMin="30" yMin="-327" xMax="673" yMax="704">
      <contour>
        <pt x="497" y="454" on="0"/>
        <pt x="497" y="580" on="0"/>
        <pt x="405" y="655" on="0"/>
        <pt x="335" y="655" on="1"/>
        <pt x="241" y="655" on="1"/>
        <pt x="201" y="655" on="0"/>
        <pt x="201" y="615" on="1"/>
        <pt x="201" y="390" on="1"/>
        <pt x="201" y="377" on="0"/>
        <pt x="212" y="377" on="1"/>
        <pt x="335" y="377" on="1"/>
        <pt x="404" y="377" on="0"/>
      </contour>
      <contour>
        <pt x="369" y="700" on="1"/>
        <pt x="465" y="700" on="0"/>
        <pt x="588" y="602" on="0"/>
        <pt x="588" y="441" on="0"/>
        <pt x="467" y="336" on="0"/>
        <pt x="393" y="334" on="1"/>
        <pt x="392" y="332" on="1"/>
        <pt x="413" y="325" on="0"/>
        <pt x="425" y="306" on="1"/>
        <pt x="576" y="66" on="1"/>
        <pt x="597" y="31" on="0"/>
        <pt x="642" y="25" on="1"/>
        <pt x="660" y="23" on="1"/>
        <pt x="673" y="21" on="0"/>
        <pt x="673" y="10" on="1"/>
        <pt x="673" y="-4" on="0"/>
        <pt x="658" y="-4" on="1"/>
        <pt x="562" y="0" on="0"/>
        <pt x="515" y="0" on="0"/>
        <pt x="502" y="20" on="1"/>
        <pt x="333" y="301" on="1"/>
        <pt x="313" y="332" on="0"/>
        <pt x="289" y="332" on="1"/>
        <pt x="289" y="332" on="0"/>
        <pt x="288" y="332" on="1"/>
        <pt x="216" y="332" on="1"/>
        <pt x="201" y="332" on="0"/>
        <pt x="201" y="320" on="1"/>
        <pt x="201" y="66" on="1"/>
        <pt x="201" y="48" on="0"/>
        <pt x="227" y="26" on="0"/>
        <pt x="246" y="25" on="1"/>
        <pt x="288" y="23" on="1"/>
        <pt x="299" y="23" on="0"/>
        <pt x="299" y="-4" on="0"/>
        <pt x="285" y="-4" on="1"/>
        <pt x="160" y="0" on="1"/>
        <pt x="49" y="-4" on="1"/>
        <pt x="36" y="-4" on="0"/>
        <pt x="34" y="8" on="1"/>
        <pt x="34" y="22" on="0"/>
        <pt x="46" y="23" on="1"/>
        <pt x="75" y="25" on="1"/>
        <pt x="116" y="28" on="0"/>
        <pt x="116" y="66" on="1"/>
        <pt x="116" y="634" on="1"/>
        <pt x="116" y="670" on="0"/>
        <pt x="70" y="674" on="1"/>
        <pt x="41" y="677" on="1"/>
        <pt x="30" y="679" on="0"/>
        <pt x="30" y="690" on="1"/>
        <pt x="30" y="704" on="0"/>
        <pt x="44" y="704" on="1"/>
        <pt x="182" y="700" on="1"/>
      </contour>
      <contour>
        <pt x="319" y="-327" on="1"/>
        <pt x="301" y="-327" on="0"/>
        <pt x="301" y="-310" on="1"/>
        <pt x="301" y="-301" on="0"/>
        <pt x="308" y="-296" on="1"/>
        <pt x="360" y="-257" on="0"/>
        <pt x="363" y="-205" on="1"/>
        <pt x="333" y="-203" on="0"/>
        <pt x="301" y="-168" on="0"/>
        <pt x="301" y="-117" on="0"/>
        <pt x="337" y="-80" on="0"/>
        <pt x="389" y="-80" on="0"/>
        <pt x="427" y="-122" on="0"/>
        <pt x="427" y="-210" on="0"/>
        <pt x="367" y="-302" on="0"/>
        <pt x="333" y="-322" on="1"/>
        <pt x="325" y="-327" on="0"/>
      </contour>
    </TTGlyph>
    <TTGlyph name="S" xMin="50" yMin="-11" xMax="521" yMax="711">
      <contour>
        <pt x="521" y="181" on="1"/>
        <pt x="521" y="87" on="0"/>
        <pt x="380" y="-11" on="0"/>
        <pt x="179" y="-11" on="0"/>
        <pt x="50" y="37" on="0"/>
        <pt x="50" y="66" on="1"/>
        <pt x="50" y="183" on="1"/>
        <pt x="50" y="204" on="0"/>
        <pt x="66" y="204" on="1"/>
        <pt x="79" y="204" on="0"/>
        <pt x="84" y="185" on="1"/>
        <pt x="110" y="108" on="0"/>
        <pt x="193" y="33" on="0"/>
        <pt x="343" y="33" on="0"/>
        <pt x="436" y="101" on="0"/>
        <pt x="436" y="161" on="1"/>
        <pt x="436" y="227" on="0"/>
        <pt x="362" y="272" on="1"/>
        <pt x="329" y="292" on="0"/>
        <pt x="249" y="330" on="0"/>
        <pt x="169" y="371" on="0"/>
        <pt x="136" y="395" on="1"/>
        <pt x="62" y="449" on="0"/>
        <pt x="62" y="614" on="0"/>
        <pt x="189" y="711" on="0"/>
        <pt x="361" y="711" on="0"/>
        <pt x="481" y="668" on="0"/>
        <pt x="481" y="642" on="1"/>
        <pt x="481" y="541" on="1"/>
        <pt x="481" y="521" on="0"/>
        <pt x="452" y="521" on="0"/>
        <pt x="445" y="541" on="1"/>
        <pt x="424" y="605" on="0"/>
        <pt x="356" y="667" on="0"/>
        <pt x="221" y="667" on="0"/>
        <pt x="143" y="603" on="0"/>
        <pt x="143" y="508" on="0"/>
        <pt x="221" y="439" on="0"/>
        <pt x="332" y="386" on="0"/>
        <pt x="443" y="329" on="0"/>
        <pt x="521" y="239" on="0"/>
      </contour>
    </TTGlyph>
    <TTGlyph name="Scaron" xMin="50" yMin="-11" xMax="521" yMax="952">
      <component glyphName="S" x="0" y="0" flags="0x1004"/>
      <component glyphName="caron" x="65" y="200" flags="0x1004"/>
    </TTGlyph>
    <TTGlyph name="T" xMin="2" yMin="-4" xMax="619" yMax="700">
      <contour>
        <pt x="353" y="627" on="1"/>
        <pt x="353" y="66" on="1"/>
        <pt x="353" y="48" on="0"/>
        <pt x="379" y="27" on="0"/>
        <pt x="398" y="25" on="1"/>
        <pt x="427" y="23" on="1"/>
        <pt x="439" y="23" on="0"/>
        <pt x="439" y="10" on="1"/>
        <pt x="439" y="4" on="0"/>
        <pt x="430" y="-4" on="0"/>
        <pt x="425" y="-4" on="1"/>
        <pt x="312" y="0" on="1"/>
        <pt x="188" y="-4" on="1"/>
        <pt x="183" y="-4" on="0"/>
        <pt x="174" y="4" on="0"/>
        <pt x="174" y="10" on="1"/>
        <pt x="174" y="23" on="0"/>
        <pt x="186" y="23" on="1"/>
        <pt x="223" y="25" on="1"/>
        <pt x="242" y="27" on="0"/>
        <pt x="268" y="48" on="0"/>
        <pt x="268" y="66" on="1"/>
        <pt x="268" y="627" on="1"/>
        <pt x="268" y="654" on="0"/>
        <pt x="243" y="654" on="1"/>
        <pt x="159" y="654" on="1"/>
        <pt x="110" y="654" on="0"/>
        <pt x="54" y="601" on="0"/>
        <pt x="38" y="549" on="1"/>
        <pt x="32" y="534" on="0"/>
        <pt x="11" y="534" on="0"/>
        <pt x="1" y="545" on="0"/>
        <pt x="2" y="552" on="1"/>
        <pt x="10" y="681" on="1"/>
        <pt x="12" y="700" on="0"/>
        <pt x="32" y="700" on="1"/>
        <pt x="586" y="700" on="1"/>
        <pt x="607" y="700" on="0"/>
        <pt x="609" y="676" on="1"/>
        <pt x="619" y="552" on="1"/>
        <pt x="620" y="544" on="0"/>
        <pt x="610" y="534" on="0"/>
        <pt x="589" y="534" on="0"/>
        <pt x="583" y="549" on="1"/>
        <pt x="565" y="602" on="0"/>
        <pt x="510" y="654" on="0"/>
        <pt x="462" y="654" on="1"/>
        <pt x="378" y="654" on="1"/>
        <pt x="353" y="654" on="0"/>
      </contour>
    </TTGlyph>
    <TTGlyph name="Thorn" xMin="30" yMin="-4" xMax="562" yMax="704">
      <contour>
        <pt x="470" y="380" on="1"/>
        <pt x="470" y="512" on="0"/>
        <pt x="297" y="512" on="1"/>
        <pt x="237" y="512" on="1"/>
        <pt x="197" y="512" on="0"/>
        <pt x="197" y="472" on="1"/>
        <pt x="197" y="258" on="1"/>
        <pt x="197" y="245" on="0"/>
        <pt x="208" y="245" on="1"/>
        <pt x="297" y="245" on="1"/>
        <pt x="382" y="245" on="0"/>
        <pt x="470" y="314" on="0"/>
      </contour>
      <contour>
        <pt x="112" y="66" on="1"/>
        <pt x="112" y="634" on="1"/>
        <pt x="112" y="672" on="0"/>
        <pt x="71" y="675" on="1"/>
        <pt x="42" y="677" on="1"/>
        <pt x="30" y="678" on="0"/>
        <pt x="30" y="692" on="1"/>
        <pt x="30" y="704" on="0"/>
        <pt x="45" y="704" on="1"/>
        <pt x="156" y="700" on="1"/>
        <pt x="281" y="704" on="1"/>
        <pt x="295" y="704" on="0"/>
        <pt x="295" y="677" on="0"/>
        <pt x="284" y="677" on="1"/>
        <pt x="242" y="675" on="1"/>
        <pt x="223" y="674" on="0"/>
        <pt x="197" y="652" on="0"/>
        <pt x="197" y="634" on="1"/>
        <pt x="197" y="567" on="1"/>
        <pt x="197" y="555" on="0"/>
        <pt x="212" y="555" on="1"/>
        <pt x="318" y="556" on="1"/>
        <pt x="321" y="556" on="0"/>
        <pt x="323" y="556" on="1"/>
        <pt x="437" y="556" on="0"/>
        <pt x="562" y="468" on="0"/>
        <pt x="562" y="297" on="0"/>
        <pt x="439" y="199" on="0"/>
        <pt x="330" y="199" on="1"/>
        <pt x="212" y="199" on="1"/>
        <pt x="197" y="199" on="0"/>
        <pt x="197" y="187" on="1"/>
        <pt x="197" y="66" on="1"/>
        <pt x="197" y="48" on="0"/>
        <pt x="223" y="26" on="0"/>
        <pt x="242" y="25" on="1"/>
        <pt x="284" y="23" on="1"/>
        <pt x="295" y="23" on="0"/>
        <pt x="295" y="-4" on="0"/>
        <pt x="281" y="-4" on="1"/>
        <pt x="156" y="0" on="1"/>
        <pt x="45" y="-4" on="1"/>
        <pt x="30" y="-4" on="0"/>
        <pt x="30" y="8" on="1"/>
        <pt x="30" y="22" on="0"/>
        <pt x="42" y="23" on="1"/>
        <pt x="71" y="25" on="1"/>
        <pt x="112" y="28" on="0"/>
      </contour>
    </TTGlyph>
    <TTGlyph name="U" xMin="30" yMin="-11" xMax="743" yMax="704">
      <contour>
        <pt x="116" y="257" on="1"/>
        <pt x="116" y="634" on="1"/>
        <pt x="116" y="670" on="0"/>
        <pt x="70" y="674" on="1"/>
        <pt x="41" y="677" on="1"/>
        <pt x="30" y="679" on="0"/>
        <pt x="30" y="690" on="1"/>
        <pt x="30" y="704" on="0"/>
        <pt x="44" y="704" on="1"/>
        <pt x="157" y="700" on="1"/>
        <pt x="256" y="704" on="1"/>
        <pt x="271" y="704" on="0"/>
        <pt x="271" y="692" on="1"/>
        <pt x="271" y="678" on="0"/>
        <pt x="258" y="677" on="1"/>
        <pt x="241" y="674" on="1"/>
        <pt x="201" y="667" on="0"/>
        <pt x="201" y="634" on="1"/>
        <pt x="201" y="256" on="1"/>
        <pt x="201" y="163" on="0"/>
        <pt x="313" y="59" on="0"/>
        <pt x="496" y="59" on="0"/>
        <pt x="609" y="165" on="0"/>
        <pt x="609" y="256" on="1"/>
        <pt x="609" y="634" on="1"/>
        <pt x="609" y="667" on="0"/>
        <pt x="569" y="674" on="1"/>
        <pt x="552" y="677" on="1"/>
        <pt x="539" y="679" on="0"/>
        <pt x="539" y="703" on="0"/>
        <pt x="554" y="703" on="1"/>
        <pt x="632" y="700" on="1"/>
        <pt x="729" y="703" on="1"/>
        <pt x="743" y="703" on="0"/>
        <pt x="743" y="679" on="0"/>
        <pt x="732" y="677" on="1"/>
        <pt x="703" y="674" on="1"/>
        <pt x="657" y="669" on="0"/>
        <pt x="657" y="634" on="1"/>
        <pt x="657" y="257" on="1"/>
        <pt x="657" y="134" on="0"/>
        <pt x="506" y="-11" on="0"/>
        <pt x="270" y="-11" on="0"/>
        <pt x="116" y="139" on="0"/>
      </contour>
    </TTGlyph>
    <TTGlyph name="Uacute" xMin="30" yMin="-11" xMax="743" yMax="943">
      <contour>
        <pt x="116" y="257" on="1"/>
        <pt x="116" y="634" on="1"/>
        <pt x="116" y="670" on="0"/>
        <pt x="70" y="674" on="1"/>
        <pt x="41" y="677" on="1"/>
        <pt x="30" y="679" on="0"/>
        <pt x="30" y="690" on="1"/>
        <pt x="30" y="704" on="0"/>
        <pt x="44" y="704" on="1"/>
        <pt x="157" y="700" on="1"/>
        <pt x="256" y="704" on="1"/>
        <pt x="271" y="704" on="0"/>
        <pt x="271" y="692" on="1"/>
        <pt x="271" y="678" on="0"/>
        <pt x="258" y="677" on="1"/>
        <pt x="241" y="674" on="1"/>
        <pt x="201" y="667" on="0"/>
        <pt x="201" y="634" on="1"/>
        <pt x="201" y="256" on="1"/>
        <pt x="201" y="163" on="0"/>
        <pt x="313" y="59" on="0"/>
        <pt x="496" y="59" on="0"/>
        <pt x="609" y="165" on="0"/>
        <pt x="609" y="256" on="1"/>
        <pt x="609" y="634" on="1"/>
        <pt x="609" y="667" on="0"/>
        <pt x="569" y="674" on="1"/>
        <pt x="552" y="677" on="1"/>
        <pt x="539" y="679" on="0"/>
        <pt x="539" y="703" on="0"/>
        <pt x="554" y="703" on="1"/>
        <pt x="632" y="700" on="1"/>
        <pt x="729" y="703" on="1"/>
        <pt x="743" y="703" on="0"/>
        <pt x="743" y="679" on="0"/>
        <pt x="732" y="677" on="1"/>
        <pt x="703" y="674" on="1"/>
        <pt x="657" y="669" on="0"/>
        <pt x="657" y="634" on="1"/>
        <pt x="657" y="257" on="1"/>
        <pt x="657" y="134" on="0"/>
        <pt x="506" y="-11" on="0"/>
        <pt x="270" y="-11" on="0"/>
        <pt x="116" y="139" on="0"/>
      </contour>
      <contour>
        <pt x="500" y="934" on="1"/>
        <pt x="510" y="943" on="0"/>
        <pt x="539" y="943" on="0"/>
        <pt x="564" y="914" on="0"/>
        <pt x="564" y="875" on="0"/>
        <pt x="545" y="865" on="1"/>
        <pt x="367" y="778" on="1"/>
        <pt x="349" y="802" on="1"/>
      </contour>
    </TTGlyph>
    <TTGlyph name="Ucircumflex" xMin="30" yMin="-11" xMax="743" yMax="952">
      <component glyphName="U" x="0" y="0" flags="0x1004"/>
      <component glyphName="circumflex" x="181" y="200" flags="0x1004"/>
    </TTGlyph>
    <TTGlyph name="Udieresis" xMin="30" yMin="-11" xMax="743" yMax="911">
      <contour>
        <pt x="116" y="257" on="1"/>
        <pt x="116" y="634" on="1"/>
        <pt x="116" y="670" on="0"/>
        <pt x="70" y="674" on="1"/>
        <pt x="41" y="677" on="1"/>
        <pt x="30" y="679" on="0"/>
        <pt x="30" y="690" on="1"/>
        <pt x="30" y="704" on="0"/>
        <pt x="44" y="704" on="1"/>
        <pt x="157" y="700" on="1"/>
        <pt x="256" y="704" on="1"/>
        <pt x="271" y="704" on="0"/>
        <pt x="271" y="692" on="1"/>
        <pt x="271" y="678" on="0"/>
        <pt x="258" y="677" on="1"/>
        <pt x="241" y="674" on="1"/>
        <pt x="201" y="667" on="0"/>
        <pt x="201" y="634" on="1"/>
        <pt x="201" y="256" on="1"/>
        <pt x="201" y="163" on="0"/>
        <pt x="313" y="59" on="0"/>
        <pt x="496" y="59" on="0"/>
        <pt x="609" y="165" on="0"/>
        <pt x="609" y="256" on="1"/>
        <pt x="609" y="634" on="1"/>
        <pt x="609" y="667" on="0"/>
        <pt x="569" y="674" on="1"/>
        <pt x="552" y="677" on="1"/>
        <pt x="539" y="679" on="0"/>
        <pt x="539" y="703" on="0"/>
        <pt x="554" y="703" on="1"/>
        <pt x="632" y="700" on="1"/>
        <pt x="729" y="703" on="1"/>
        <pt x="743" y="703" on="0"/>
        <pt x="743" y="679" on="0"/>
        <pt x="732" y="677" on="1"/>
        <pt x="703" y="674" on="1"/>
        <pt x="657" y="669" on="0"/>
        <pt x="657" y="634" on="1"/>
        <pt x="657" y="257" on="1"/>
        <pt x="657" y="134" on="0"/>
        <pt x="506" y="-11" on="0"/>
        <pt x="270" y="-11" on="0"/>
        <pt x="116" y="139" on="0"/>
      </contour>
      <contour>
        <pt x="254" y="837" on="0"/>
        <pt x="254" y="881" on="0"/>
        <pt x="284" y="911" on="0"/>
        <pt x="328" y="911" on="0"/>
        <pt x="358" y="881" on="0"/>
        <pt x="358" y="837" on="0"/>
        <pt x="328" y="807" on="0"/>
        <pt x="284" y="807" on="0"/>
      </contour>
      <contour>
        <pt x="445" y="837" on="0"/>
        <pt x="445" y="881" on="0"/>
        <pt x="475" y="911" on="0"/>
        <pt x="519" y="911" on="0"/>
        <pt x="549" y="881" on="0"/>
        <pt x="549" y="837" on="0"/>
        <pt x="519" y="807" on="0"/>
        <pt x="475" y="807" on="0"/>
      </contour>
    </TTGlyph>
    <TTGlyph name="Ugrave" xMin="30" yMin="-11" xMax="743" yMax="943">
      <component glyphName="U" x="0" y="0" flags="0x1004"/>
      <component glyphName="grave" x="174" y="200" flags="0x1004"/>
    </TTGlyph>
    <TTGlyph name="V" xMin="-10" yMin="-11" xMax="705" yMax="704">
      <contour>
        <pt x="498" y="690" on="1"/>
        <pt x="498" y="704" on="0"/>
        <pt x="513" y="704" on="1"/>
        <pt x="600" y="700" on="1"/>
        <pt x="691" y="704" on="1"/>
        <pt x="705" y="704" on="0"/>
        <pt x="705" y="677" on="0"/>
        <pt x="694" y="677" on="1"/>
        <pt x="675" y="675" on="1"/>
        <pt x="630" y="670" on="0"/>
        <pt x="617" y="634" on="1"/>
        <pt x="370" y="1" on="1"/>
        <pt x="366" y="-11" on="0"/>
        <pt x="329" y="-11" on="0"/>
        <pt x="324" y="1" on="1"/>
        <pt x="78" y="634" on="1"/>
        <pt x="63" y="672" on="0"/>
        <pt x="21" y="675" on="1"/>
        <pt x="0" y="677" on="1"/>
        <pt x="-4" y="677" on="0"/>
        <pt x="-10" y="685" on="0"/>
        <pt x="-10" y="689" on="1"/>
        <pt x="-10" y="704" on="0"/>
        <pt x="4" y="704" on="1"/>
        <pt x="109" y="700" on="1"/>
        <pt x="220" y="704" on="1"/>
        <pt x="234" y="704" on="0"/>
        <pt x="234" y="692" on="1"/>
        <pt x="234" y="678" on="0"/>
        <pt x="222" y="677" on="1"/>
        <pt x="199" y="675" on="1"/>
        <pt x="182" y="674" on="0"/>
        <pt x="167" y="648" on="0"/>
        <pt x="172" y="634" on="1"/>
        <pt x="364" y="110" on="1"/>
        <pt x="561" y="634" on="1"/>
        <pt x="567" y="649" on="0"/>
        <pt x="552" y="674" on="0"/>
        <pt x="533" y="675" on="1"/>
        <pt x="511" y="677" on="1"/>
        <pt x="498" y="679" on="0"/>
      </contour>
    </TTGlyph>
    <TTGlyph name="W" xMin="-5" yMin="-11" xMax="1058" yMax="704">
      <contour>
        <pt x="338" y="-11" on="0"/>
        <pt x="304" y="-11" on="0"/>
        <pt x="299" y="1" on="1"/>
        <pt x="83" y="634" on="1"/>
        <pt x="70" y="671" on="0"/>
        <pt x="26" y="675" on="1"/>
        <pt x="5" y="677" on="1"/>
        <pt x="1" y="677" on="0"/>
        <pt x="-5" y="685" on="0"/>
        <pt x="-5" y="689" on="1"/>
        <pt x="-5" y="704" on="0"/>
        <pt x="9" y="704" on="1"/>
        <pt x="111" y="700" on="1"/>
        <pt x="222" y="704" on="1"/>
        <pt x="236" y="704" on="0"/>
        <pt x="236" y="692" on="1"/>
        <pt x="236" y="678" on="0"/>
        <pt x="224" y="677" on="1"/>
        <pt x="201" y="675" on="1"/>
        <pt x="184" y="674" on="0"/>
        <pt x="169" y="650" on="0"/>
        <pt x="174" y="634" on="1"/>
        <pt x="338" y="133" on="1"/>
        <pt x="521" y="691" on="1"/>
        <pt x="525" y="704" on="0"/>
        <pt x="563" y="704" on="0"/>
        <pt x="567" y="691" on="1"/>
        <pt x="749" y="133" on="1"/>
        <pt x="914" y="634" on="1"/>
        <pt x="919" y="651" on="0"/>
        <pt x="904" y="674" on="0"/>
        <pt x="886" y="675" on="1"/>
        <pt x="864" y="677" on="1"/>
        <pt x="851" y="679" on="0"/>
        <pt x="851" y="690" on="1"/>
        <pt x="851" y="704" on="0"/>
        <pt x="866" y="704" on="1"/>
        <pt x="953" y="700" on="1"/>
        <pt x="1044" y="704" on="1"/>
        <pt x="1058" y="704" on="0"/>
        <pt x="1058" y="677" on="0"/>
        <pt x="1047" y="677" on="1"/>
        <pt x="1028" y="675" on="1"/>
        <pt x="982" y="669" on="0"/>
        <pt x="970" y="634" on="1"/>
        <pt x="753" y="1" on="1"/>
        <pt x="749" y="-11" on="0"/>
        <pt x="715" y="-11" on="0"/>
        <pt x="710" y="1" on="1"/>
        <pt x="526" y="548" on="1"/>
        <pt x="342" y="1" on="1"/>
      </contour>
    </TTGlyph>
    <TTGlyph name="X" xMin="20" yMin="-3" xMax="689" yMax="703">
      <contour>
        <pt x="219" y="25" on="1"/>
        <pt x="231" y="24" on="0"/>
        <pt x="231" y="-2" on="0"/>
        <pt x="216" y="-2" on="1"/>
        <pt x="140" y="0" on="1"/>
        <pt x="35" y="-3" on="1"/>
        <pt x="21" y="-3" on="0"/>
        <pt x="21" y="21" on="0"/>
        <pt x="32" y="23" on="1"/>
        <pt x="62" y="26" on="1"/>
        <pt x="92" y="29" on="0"/>
        <pt x="119" y="66" on="1"/>
        <pt x="310" y="342" on="1"/>
        <pt x="118" y="634" on="1"/>
        <pt x="94" y="671" on="0"/>
        <pt x="60" y="674" on="1"/>
        <pt x="31" y="677" on="1"/>
        <pt x="20" y="679" on="0"/>
        <pt x="20" y="703" on="0"/>
        <pt x="34" y="703" on="1"/>
        <pt x="151" y="700" on="1"/>
        <pt x="254" y="702" on="1"/>
        <pt x="269" y="702" on="0"/>
        <pt x="269" y="676" on="0"/>
        <pt x="257" y="675" on="1"/>
        <pt x="239" y="673" on="1"/>
        <pt x="222" y="671" on="0"/>
        <pt x="210" y="646" on="0"/>
        <pt x="218" y="634" on="1"/>
        <pt x="361" y="415" on="1"/>
        <pt x="513" y="634" on="1"/>
        <pt x="522" y="645" on="0"/>
        <pt x="510" y="671" on="0"/>
        <pt x="492" y="673" on="1"/>
        <pt x="473" y="675" on="1"/>
        <pt x="461" y="676" on="0"/>
        <pt x="461" y="702" on="0"/>
        <pt x="476" y="702" on="1"/>
        <pt x="552" y="700" on="1"/>
        <pt x="657" y="703" on="1"/>
        <pt x="671" y="703" on="0"/>
        <pt x="671" y="679" on="0"/>
        <pt x="660" y="677" on="1"/>
        <pt x="630" y="674" on="1"/>
        <pt x="600" y="671" on="0"/>
        <pt x="573" y="634" on="1"/>
        <pt x="390" y="371" on="1"/>
        <pt x="591" y="66" on="1"/>
        <pt x="617" y="29" on="0"/>
        <pt x="650" y="26" on="1"/>
        <pt x="678" y="23" on="1"/>
        <pt x="689" y="21" on="0"/>
        <pt x="689" y="-3" on="0"/>
        <pt x="675" y="-3" on="1"/>
        <pt x="559" y="0" on="1"/>
        <pt x="455" y="-2" on="1"/>
        <pt x="440" y="-2" on="0"/>
        <pt x="440" y="24" on="0"/>
        <pt x="452" y="25" on="1"/>
        <pt x="471" y="27" on="1"/>
        <pt x="488" y="29" on="0"/>
        <pt x="500" y="54" on="0"/>
        <pt x="492" y="66" on="1"/>
        <pt x="339" y="298" on="1"/>
        <pt x="179" y="66" on="1"/>
        <pt x="170" y="54" on="0"/>
        <pt x="182" y="29" on="0"/>
        <pt x="200" y="27" on="1"/>
      </contour>
    </TTGlyph>
    <TTGlyph name="Y" xMin="-5" yMin="-4" xMax="712" yMax="703">
      <contour>
        <pt x="698" y="703" on="1"/>
        <pt x="712" y="703" on="0"/>
        <pt x="712" y="679" on="0"/>
        <pt x="701" y="677" on="1"/>
        <pt x="672" y="674" on="1"/>
        <pt x="639" y="671" on="0"/>
        <pt x="615" y="634" on="1"/>
        <pt x="420" y="322" on="1"/>
        <pt x="408" y="301" on="0"/>
        <pt x="406" y="275" on="1"/>
        <pt x="406" y="66" on="1"/>
        <pt x="406" y="48" on="0"/>
        <pt x="432" y="27" on="0"/>
        <pt x="451" y="25" on="1"/>
        <pt x="480" y="23" on="1"/>
        <pt x="492" y="23" on="0"/>
        <pt x="492" y="10" on="1"/>
        <pt x="492" y="4" on="0"/>
        <pt x="483" y="-4" on="0"/>
        <pt x="478" y="-4" on="1"/>
        <pt x="365" y="0" on="1"/>
        <pt x="265" y="-4" on="1"/>
        <pt x="251" y="-4" on="0"/>
        <pt x="251" y="21" on="0"/>
        <pt x="262" y="23" on="1"/>
        <pt x="279" y="25" on="1"/>
        <pt x="320" y="30" on="0"/>
        <pt x="320" y="66" on="1"/>
        <pt x="320" y="261" on="1"/>
        <pt x="320" y="280" on="0"/>
        <pt x="311" y="296" on="1"/>
        <pt x="93" y="634" on="1"/>
        <pt x="69" y="671" on="0"/>
        <pt x="35" y="674" on="1"/>
        <pt x="6" y="677" on="1"/>
        <pt x="-5" y="679" on="0"/>
        <pt x="-5" y="703" on="0"/>
        <pt x="9" y="703" on="1"/>
        <pt x="128" y="700" on="1"/>
        <pt x="234" y="702" on="1"/>
        <pt x="249" y="702" on="0"/>
        <pt x="249" y="676" on="0"/>
        <pt x="237" y="675" on="1"/>
        <pt x="218" y="673" on="1"/>
        <pt x="200" y="671" on="0"/>
        <pt x="189" y="645" on="0"/>
        <pt x="197" y="634" on="1"/>
        <pt x="371" y="348" on="1"/>
        <pt x="375" y="341" on="0"/>
        <pt x="385" y="341" on="0"/>
        <pt x="389" y="346" on="1"/>
        <pt x="560" y="634" on="1"/>
        <pt x="568" y="645" on="0"/>
        <pt x="557" y="670" on="0"/>
        <pt x="539" y="673" on="1"/>
        <pt x="520" y="675" on="1"/>
        <pt x="506" y="677" on="0"/>
        <pt x="510" y="702" on="0"/>
        <pt x="523" y="702" on="1"/>
        <pt x="601" y="700" on="1"/>
      </contour>
    </TTGlyph>
    <TTGlyph name="Yacute" xMin="0" yMin="-4" xMax="717" yMax="943">
      <contour>
        <pt x="703" y="703" on="1"/>
        <pt x="717" y="703" on="0"/>
        <pt x="717" y="679" on="0"/>
        <pt x="706" y="677" on="1"/>
        <pt x="677" y="674" on="1"/>
        <pt x="644" y="671" on="0"/>
        <pt x="620" y="634" on="1"/>
        <pt x="425" y="322" on="1"/>
        <pt x="413" y="301" on="0"/>
        <pt x="411" y="275" on="1"/>
        <pt x="411" y="66" on="1"/>
        <pt x="411" y="48" on="0"/>
        <pt x="437" y="27" on="0"/>
        <pt x="456" y="25" on="1"/>
        <pt x="485" y="23" on="1"/>
        <pt x="497" y="23" on="0"/>
        <pt x="497" y="10" on="1"/>
        <pt x="497" y="4" on="0"/>
        <pt x="488" y="-4" on="0"/>
        <pt x="483" y="-4" on="1"/>
        <pt x="370" y="0" on="1"/>
        <pt x="270" y="-4" on="1"/>
        <pt x="256" y="-4" on="0"/>
        <pt x="256" y="21" on="0"/>
        <pt x="267" y="23" on="1"/>
        <pt x="284" y="25" on="1"/>
        <pt x="325" y="30" on="0"/>
        <pt x="325" y="66" on="1"/>
        <pt x="325" y="261" on="1"/>
        <pt x="325" y="280" on="0"/>
        <pt x="316" y="296" on="1"/>
        <pt x="98" y="634" on="1"/>
        <pt x="74" y="671" on="0"/>
        <pt x="40" y="674" on="1"/>
        <pt x="11" y="677" on="1"/>
        <pt x="0" y="679" on="0"/>
        <pt x="0" y="703" on="0"/>
        <pt x="14" y="703" on="1"/>
        <pt x="133" y="700" on="1"/>
        <pt x="239" y="702" on="1"/>
        <pt x="254" y="702" on="0"/>
        <pt x="254" y="676" on="0"/>
        <pt x="242" y="675" on="1"/>
        <pt x="223" y="673" on="1"/>
        <pt x="205" y="671" on="0"/>
        <pt x="194" y="645" on="0"/>
        <pt x="202" y="634" on="1"/>
        <pt x="376" y="348" on="1"/>
        <pt x="380" y="341" on="0"/>
        <pt x="390" y="341" on="0"/>
        <pt x="394" y="346" on="1"/>
        <pt x="565" y="634" on="1"/>
        <pt x="573" y="645" on="0"/>
        <pt x="562" y="670" on="0"/>
        <pt x="544" y="673" on="1"/>
        <pt x="525" y="675" on="1"/>
        <pt x="511" y="677" on="0"/>
        <pt x="513" y="690" on="1"/>
        <pt x="514" y="702" on="0"/>
        <pt x="528" y="702" on="1"/>
        <pt x="606" y="700" on="1"/>
      </contour>
      <contour>
        <pt x="459" y="934" on="1"/>
        <pt x="469" y="943" on="0"/>
        <pt x="498" y="943" on="0"/>
        <pt x="523" y="914" on="0"/>
        <pt x="523" y="875" on="0"/>
        <pt x="504" y="865" on="1"/>
        <pt x="326" y="778" on="1"/>
        <pt x="308" y="802" on="1"/>
      </contour>
    </TTGlyph>
    <TTGlyph name="Ydieresis" xMin="0" yMin="-4" xMax="717" yMax="911">
      <contour>
        <pt x="703" y="703" on="1"/>
        <pt x="717" y="703" on="0"/>
        <pt x="717" y="679" on="0"/>
        <pt x="706" y="677" on="1"/>
        <pt x="677" y="674" on="1"/>
        <pt x="644" y="671" on="0"/>
        <pt x="620" y="634" on="1"/>
        <pt x="425" y="322" on="1"/>
        <pt x="413" y="301" on="0"/>
        <pt x="411" y="275" on="1"/>
        <pt x="411" y="66" on="1"/>
        <pt x="411" y="48" on="0"/>
        <pt x="437" y="27" on="0"/>
        <pt x="456" y="25" on="1"/>
        <pt x="485" y="23" on="1"/>
        <pt x="497" y="23" on="0"/>
        <pt x="497" y="10" on="1"/>
        <pt x="497" y="4" on="0"/>
        <pt x="488" y="-4" on="0"/>
        <pt x="483" y="-4" on="1"/>
        <pt x="370" y="0" on="1"/>
        <pt x="270" y="-4" on="1"/>
        <pt x="256" y="-4" on="0"/>
        <pt x="256" y="21" on="0"/>
        <pt x="267" y="23" on="1"/>
        <pt x="284" y="25" on="1"/>
        <pt x="325" y="30" on="0"/>
        <pt x="325" y="66" on="1"/>
        <pt x="325" y="261" on="1"/>
        <pt x="325" y="280" on="0"/>
        <pt x="316" y="296" on="1"/>
        <pt x="98" y="634" on="1"/>
        <pt x="74" y="671" on="0"/>
        <pt x="40" y="674" on="1"/>
        <pt x="11" y="677" on="1"/>
        <pt x="0" y="679" on="0"/>
        <pt x="0" y="703" on="0"/>
        <pt x="14" y="703" on="1"/>
        <pt x="133" y="700" on="1"/>
        <pt x="239" y="702" on="1"/>
        <pt x="254" y="702" on="0"/>
        <pt x="254" y="676" on="0"/>
        <pt x="242" y="675" on="1"/>
        <pt x="223" y="673" on="1"/>
        <pt x="205" y="671" on="0"/>
        <pt x="194" y="645" on="0"/>
        <pt x="202" y="634" on="1"/>
        <pt x="376" y="348" on="1"/>
        <pt x="380" y="341" on="0"/>
        <pt x="390" y="341" on="0"/>
        <pt x="394" y="346" on="1"/>
        <pt x="565" y="634" on="1"/>
        <pt x="573" y="645" on="0"/>
        <pt x="562" y="670" on="0"/>
        <pt x="544" y="673" on="1"/>
        <pt x="525" y="675" on="1"/>
        <pt x="511" y="677" on="0"/>
        <pt x="513" y="690" on="1"/>
        <pt x="514" y="702" on="0"/>
        <pt x="528" y="702" on="1"/>
        <pt x="606" y="700" on="1"/>
      </contour>
      <contour>
        <pt x="228" y="837" on="0"/>
        <pt x="228" y="881" on="0"/>
        <pt x="258" y="911" on="0"/>
        <pt x="302" y="911" on="0"/>
        <pt x="332" y="881" on="0"/>
        <pt x="332" y="837" on="0"/>
        <pt x="302" y="807" on="0"/>
        <pt x="258" y="807" on="0"/>
      </contour>
      <contour>
        <pt x="419" y="837" on="0"/>
        <pt x="419" y="881" on="0"/>
        <pt x="449" y="911" on="0"/>
        <pt x="493" y="911" on="0"/>
        <pt x="523" y="881" on="0"/>
        <pt x="523" y="837" on="0"/>
        <pt x="493" y="807" on="0"/>
        <pt x="449" y="807" on="0"/>
      </contour>
    </TTGlyph>
    <TTGlyph name="Z" xMin="35" yMin="0" xMax="577" yMax="700">
      <contour>
        <pt x="516" y="0" on="1"/>
        <pt x="47" y="0" on="1"/>
        <pt x="35" y="0" on="0"/>
        <pt x="35" y="11" on="1"/>
        <pt x="35" y="20" on="1"/>
        <pt x="35" y="30" on="0"/>
        <pt x="40" y="37" on="1"/>
        <pt x="428" y="644" on="1"/>
        <pt x="434" y="654" on="0"/>
        <pt x="422" y="654" on="1"/>
        <pt x="202" y="654" on="1"/>
        <pt x="160" y="654" on="0"/>
        <pt x="100" y="602" on="0"/>
        <pt x="87" y="565" on="1"/>
        <pt x="83" y="548" on="0"/>
        <pt x="68" y="548" on="1"/>
        <pt x="61" y="548" on="0"/>
        <pt x="53" y="559" on="0"/>
        <pt x="54" y="565" on="1"/>
        <pt x="74" y="670" on="1"/>
        <pt x="79" y="700" on="0"/>
        <pt x="101" y="700" on="1"/>
        <pt x="535" y="700" on="1"/>
        <pt x="547" y="700" on="0"/>
        <pt x="547" y="692" on="1"/>
        <pt x="547" y="682" on="1"/>
        <pt x="547" y="676" on="0"/>
        <pt x="535" y="656" on="1"/>
        <pt x="160" y="65" on="1"/>
        <pt x="156" y="59" on="0"/>
        <pt x="158" y="49" on="0"/>
        <pt x="163" y="49" on="1"/>
        <pt x="396" y="49" on="1"/>
        <pt x="498" y="49" on="0"/>
        <pt x="542" y="159" on="1"/>
        <pt x="548" y="174" on="0"/>
        <pt x="562" y="174" on="1"/>
        <pt x="579" y="174" on="0"/>
        <pt x="577" y="156" on="1"/>
        <pt x="561" y="40" on="1"/>
        <pt x="559" y="23" on="0"/>
        <pt x="535" y="0" on="0"/>
      </contour>
    </TTGlyph>
    <TTGlyph name="Zcaron" xMin="40" yMin="0" xMax="582" yMax="952">
      <contour>
        <pt x="521" y="0" on="1"/>
        <pt x="52" y="0" on="1"/>
        <pt x="40" y="0" on="0"/>
        <pt x="40" y="11" on="1"/>
        <pt x="40" y="20" on="1"/>
        <pt x="40" y="30" on="0"/>
        <pt x="45" y="37" on="1"/>
        <pt x="433" y="644" on="1"/>
        <pt x="439" y="654" on="0"/>
        <pt x="427" y="654" on="1"/>
        <pt x="207" y="654" on="1"/>
        <pt x="165" y="654" on="0"/>
        <pt x="105" y="602" on="0"/>
        <pt x="92" y="565" on="1"/>
        <pt x="88" y="548" on="0"/>
        <pt x="73" y="548" on="1"/>
        <pt x="66" y="548" on="0"/>
        <pt x="58" y="559" on="0"/>
        <pt x="59" y="565" on="1"/>
        <pt x="79" y="670" on="1"/>
        <pt x="84" y="700" on="0"/>
        <pt x="106" y="700" on="1"/>
        <pt x="540" y="700" on="1"/>
        <pt x="552" y="700" on="0"/>
        <pt x="552" y="692" on="1"/>
        <pt x="552" y="682" on="1"/>
        <pt x="552" y="676" on="0"/>
        <pt x="540" y="656" on="1"/>
        <pt x="165" y="65" on="1"/>
        <pt x="161" y="59" on="0"/>
        <pt x="163" y="49" on="0"/>
        <pt x="168" y="49" on="1"/>
        <pt x="401" y="49" on="1"/>
        <pt x="503" y="49" on="0"/>
        <pt x="547" y="159" on="1"/>
        <pt x="553" y="174" on="0"/>
        <pt x="567" y="174" on="1"/>
        <pt x="584" y="174" on="0"/>
        <pt x="582" y="156" on="1"/>
        <pt x="566" y="40" on="1"/>
        <pt x="564" y="23" on="0"/>
        <pt x="540" y="0" on="0"/>
      </contour>
      <contour>
        <pt x="151" y="929" on="1"/>
        <pt x="169" y="952" on="1"/>
        <pt x="306" y="876" on="1"/>
        <pt x="443" y="952" on="1"/>
        <pt x="461" y="929" on="1"/>
        <pt x="306" y="792" on="1"/>
      </contour>
    </TTGlyph>
    <TTGlyph name="a" xMin="50" yMin="-11" xMax="501" yMax="511">
      <contour>
        <pt x="501" y="5" on="1"/>
        <pt x="501" y="-11" on="0"/>
        <pt x="465" y="-11" on="1"/>
        <pt x="403" y="-11" on="0"/>
        <pt x="360" y="38" on="1"/>
        <pt x="353" y="45" on="0"/>
        <pt x="346" y="45" on="0"/>
        <pt x="339" y="39" on="1"/>
        <pt x="274" y="-11" on="0"/>
        <pt x="193" y="-11" on="1"/>
        <pt x="136" y="-11" on="0"/>
        <pt x="50" y="60" on="0"/>
        <pt x="50" y="116" on="1"/>
        <pt x="50" y="187" on="0"/>
        <pt x="112" y="224" on="1"/>
        <pt x="167" y="256" on="0"/>
        <pt x="284" y="274" on="1"/>
        <pt x="312" y="279" on="0"/>
        <pt x="322" y="281" on="1"/>
        <pt x="335" y="282" on="0"/>
        <pt x="335" y="295" on="1"/>
        <pt x="335" y="387" on="1"/>
        <pt x="335" y="428" on="0"/>
        <pt x="280" y="476" on="0"/>
        <pt x="189" y="476" on="0"/>
        <pt x="116" y="420" on="0"/>
        <pt x="106" y="370" on="1"/>
        <pt x="103" y="355" on="0"/>
        <pt x="76" y="355" on="0"/>
        <pt x="76" y="370" on="1"/>
        <pt x="76" y="445" on="1"/>
        <pt x="76" y="462" on="0"/>
        <pt x="87" y="470" on="1"/>
        <pt x="140" y="511" on="0"/>
        <pt x="338" y="511" on="0"/>
        <pt x="418" y="425" on="0"/>
        <pt x="418" y="357" on="1"/>
        <pt x="418" y="90" on="1"/>
        <pt x="418" y="58" on="0"/>
        <pt x="459" y="18" on="0"/>
        <pt x="487" y="18" on="1"/>
        <pt x="501" y="18" on="0"/>
      </contour>
      <contour>
        <pt x="333" y="98" on="1"/>
        <pt x="333" y="223" on="1"/>
        <pt x="333" y="238" on="0"/>
        <pt x="320" y="238" on="1"/>
        <pt x="319" y="238" on="0"/>
        <pt x="317" y="238" on="1"/>
        <pt x="138" y="216" on="0"/>
        <pt x="138" y="128" on="1"/>
        <pt x="138" y="87" on="0"/>
        <pt x="192" y="40" on="0"/>
        <pt x="259" y="40" on="0"/>
        <pt x="310" y="66" on="0"/>
        <pt x="333" y="92" on="0"/>
      </contour>
    </TTGlyph>
    <TTGlyph name="aacute" xMin="50" yMin="-11" xMax="501" yMax="743">
      <contour>
        <pt x="501" y="5" on="1"/>
        <pt x="501" y="-11" on="0"/>
        <pt x="465" y="-11" on="1"/>
        <pt x="403" y="-11" on="0"/>
        <pt x="360" y="38" on="1"/>
        <pt x="353" y="45" on="0"/>
        <pt x="346" y="45" on="0"/>
        <pt x="339" y="39" on="1"/>
        <pt x="274" y="-11" on="0"/>
        <pt x="193" y="-11" on="1"/>
        <pt x="136" y="-11" on="0"/>
        <pt x="50" y="60" on="0"/>
        <pt x="50" y="116" on="1"/>
        <pt x="50" y="187" on="0"/>
        <pt x="112" y="224" on="1"/>
        <pt x="167" y="256" on="0"/>
        <pt x="284" y="274" on="1"/>
        <pt x="312" y="279" on="0"/>
        <pt x="322" y="281" on="1"/>
        <pt x="335" y="282" on="0"/>
        <pt x="335" y="295" on="1"/>
        <pt x="335" y="387" on="1"/>
        <pt x="335" y="428" on="0"/>
        <pt x="280" y="476" on="0"/>
        <pt x="189" y="476" on="0"/>
        <pt x="116" y="420" on="0"/>
        <pt x="106" y="370" on="1"/>
        <pt x="103" y="355" on="0"/>
        <pt x="76" y="355" on="0"/>
        <pt x="76" y="370" on="1"/>
        <pt x="76" y="445" on="1"/>
        <pt x="76" y="462" on="0"/>
        <pt x="87" y="470" on="1"/>
        <pt x="140" y="511" on="0"/>
        <pt x="338" y="511" on="0"/>
        <pt x="418" y="425" on="0"/>
        <pt x="418" y="357" on="1"/>
        <pt x="418" y="90" on="1"/>
        <pt x="418" y="58" on="0"/>
        <pt x="459" y="18" on="0"/>
        <pt x="487" y="18" on="1"/>
        <pt x="501" y="18" on="0"/>
      </contour>
      <contour>
        <pt x="333" y="98" on="1"/>
        <pt x="333" y="223" on="1"/>
        <pt x="333" y="240" on="0"/>
        <pt x="317" y="238" on="1"/>
        <pt x="138" y="216" on="0"/>
        <pt x="138" y="128" on="1"/>
        <pt x="138" y="87" on="0"/>
        <pt x="192" y="40" on="0"/>
        <pt x="259" y="40" on="0"/>
        <pt x="310" y="66" on="0"/>
        <pt x="333" y="92" on="0"/>
      </contour>
      <contour>
        <pt x="279" y="734" on="1"/>
        <pt x="290" y="743" on="0"/>
        <pt x="318" y="743" on="0"/>
        <pt x="343" y="714" on="0"/>
        <pt x="343" y="675" on="0"/>
        <pt x="324" y="665" on="1"/>
        <pt x="146" y="578" on="1"/>
        <pt x="128" y="602" on="1"/>
      </contour>
    </TTGlyph>
    <TTGlyph name="acircumflex" xMin="50" yMin="-11" xMax="501" yMax="752">
      <component glyphName="a" x="0" y="0" flags="0x1004"/>
      <component glyphName="circumflex" x="28" y="0" flags="0x1004"/>
    </TTGlyph>
    <TTGlyph name="acute" xMin="65" yMin="578" xMax="280" yMax="743">
      <contour>
        <pt x="216" y="734" on="1"/>
        <pt x="226" y="743" on="0"/>
        <pt x="255" y="743" on="0"/>
        <pt x="280" y="714" on="0"/>
        <pt x="280" y="675" on="0"/>
        <pt x="261" y="665" on="1"/>
        <pt x="83" y="578" on="1"/>
        <pt x="65" y="602" on="1"/>
      </contour>
    </TTGlyph>
    <TTGlyph name="acute.cap" xMin="65" yMin="778" xMax="280" yMax="943">
      <contour>
        <pt x="216" y="934" on="1"/>
        <pt x="226" y="943" on="0"/>
        <pt x="255" y="943" on="0"/>
        <pt x="280" y="914" on="0"/>
        <pt x="280" y="875" on="0"/>
        <pt x="261" y="865" on="1"/>
        <pt x="83" y="778" on="1"/>
        <pt x="65" y="802" on="1"/>
      </contour>
    </TTGlyph>
    <TTGlyph name="adieresis" xMin="50" yMin="-11" xMax="501" yMax="711">
      <component glyphName="a" x="0" y="0" flags="0x1004"/>
      <component glyphName="dieresis" x="42" y="0" flags="0x1004"/>
    </TTGlyph>
    <TTGlyph name="ae" xMin="50" yMin="-11" xMax="781" yMax="511">
      <contour>
        <pt x="781" y="316" on="1"/>
        <pt x="781" y="256" on="0"/>
        <pt x="727" y="256" on="1"/>
        <pt x="439" y="256" on="1"/>
        <pt x="427" y="256" on="0"/>
        <pt x="427" y="239" on="1"/>
        <pt x="429" y="147" on="0"/>
        <pt x="532" y="40" on="0"/>
        <pt x="691" y="40" on="0"/>
        <pt x="729" y="71" on="1"/>
        <pt x="742" y="81" on="0"/>
        <pt x="764" y="59" on="0"/>
        <pt x="750" y="45" on="1"/>
        <pt x="694" y="-11" on="0"/>
        <pt x="596" y="-11" on="1"/>
        <pt x="456" y="-11" on="0"/>
        <pt x="386" y="79" on="1"/>
        <pt x="331" y="26" on="0"/>
        <pt x="241" y="-11" on="0"/>
        <pt x="136" y="-11" on="0"/>
        <pt x="50" y="60" on="0"/>
        <pt x="50" y="116" on="1"/>
        <pt x="50" y="187" on="0"/>
        <pt x="112" y="224" on="1"/>
        <pt x="167" y="256" on="0"/>
        <pt x="284" y="274" on="1"/>
        <pt x="312" y="279" on="0"/>
        <pt x="322" y="281" on="1"/>
        <pt x="335" y="282" on="0"/>
        <pt x="335" y="295" on="1"/>
        <pt x="335" y="387" on="1"/>
        <pt x="335" y="428" on="0"/>
        <pt x="280" y="476" on="0"/>
        <pt x="189" y="476" on="0"/>
        <pt x="116" y="420" on="0"/>
        <pt x="106" y="370" on="1"/>
        <pt x="103" y="355" on="0"/>
        <pt x="76" y="355" on="0"/>
        <pt x="76" y="370" on="1"/>
        <pt x="76" y="445" on="1"/>
        <pt x="76" y="462" on="0"/>
        <pt x="87" y="470" on="1"/>
        <pt x="140" y="511" on="0"/>
        <pt x="364" y="511" on="0"/>
        <pt x="402" y="434" on="1"/>
        <pt x="471" y="511" on="0"/>
        <pt x="663" y="511" on="0"/>
        <pt x="781" y="400" on="0"/>
      </contour>
      <contour>
        <pt x="691" y="329" on="1"/>
        <pt x="691" y="389" on="0"/>
        <pt x="626" y="472" on="0"/>
        <pt x="509" y="472" on="0"/>
        <pt x="427" y="376" on="0"/>
        <pt x="427" y="314" on="1"/>
        <pt x="427" y="298" on="0"/>
        <pt x="440" y="298" on="1"/>
        <pt x="660" y="298" on="1"/>
        <pt x="691" y="298" on="0"/>
      </contour>
      <contour>
        <pt x="333" y="98" on="1"/>
        <pt x="333" y="223" on="1"/>
        <pt x="333" y="238" on="0"/>
        <pt x="320" y="238" on="1"/>
        <pt x="319" y="238" on="0"/>
        <pt x="317" y="238" on="1"/>
        <pt x="138" y="216" on="0"/>
        <pt x="138" y="128" on="1"/>
        <pt x="138" y="87" on="0"/>
        <pt x="192" y="40" on="0"/>
        <pt x="259" y="40" on="0"/>
        <pt x="310" y="66" on="0"/>
        <pt x="333" y="92" on="0"/>
      </contour>
    </TTGlyph>
    <TTGlyph name="agrave" xMin="50" yMin="-11" xMax="501" yMax="743">
      <component glyphName="a" x="0" y="0" flags="0x1004"/>
      <component glyphName="grave" x="63" y="0" flags="0x1004"/>
    </TTGlyph>
    <TTGlyph name="ampersand" xMin="50" yMin="-11" xMax="714" yMax="711">
      <contour>
        <pt x="508" y="575" on="1"/>
        <pt x="508" y="539" on="0"/>
        <pt x="485" y="502" on="0"/>
        <pt x="473" y="482" on="0"/>
        <pt x="440" y="456" on="0"/>
        <pt x="427" y="444" on="0"/>
        <pt x="381" y="418" on="0"/>
        <pt x="375" y="414" on="1"/>
        <pt x="363" y="406" on="0"/>
        <pt x="311" y="380" on="1"/>
        <pt x="375" y="287" on="0"/>
        <pt x="489" y="177" on="1"/>
        <pt x="513" y="226" on="0"/>
        <pt x="530" y="306" on="1"/>
        <pt x="532" y="314" on="0"/>
        <pt x="532" y="321" on="1"/>
        <pt x="532" y="344" on="0"/>
        <pt x="509" y="345" on="1"/>
        <pt x="474" y="347" on="1"/>
        <pt x="462" y="347" on="0"/>
        <pt x="462" y="374" on="0"/>
        <pt x="477" y="374" on="1"/>
        <pt x="567" y="372" on="1"/>
        <pt x="652" y="375" on="1"/>
        <pt x="666" y="375" on="0"/>
        <pt x="666" y="351" on="0"/>
        <pt x="655" y="349" on="1"/>
        <pt x="635" y="346" on="1"/>
        <pt x="610" y="343" on="0"/>
        <pt x="583" y="326" on="0"/>
        <pt x="578" y="306" on="1"/>
        <pt x="553" y="202" on="0"/>
        <pt x="524" y="145" on="1"/>
        <pt x="572" y="100" on="0"/>
        <pt x="614" y="66" on="1"/>
        <pt x="658" y="28" on="0"/>
        <pt x="684" y="25" on="1"/>
        <pt x="702" y="23" on="1"/>
        <pt x="714" y="22" on="0"/>
        <pt x="714" y="-4" on="0"/>
        <pt x="700" y="-4" on="1"/>
        <pt x="604" y="0" on="0"/>
        <pt x="562" y="0" on="0"/>
        <pt x="540" y="20" on="1"/>
        <pt x="500" y="55" on="0"/>
        <pt x="479" y="76" on="1"/>
        <pt x="404" y="-11" on="0"/>
        <pt x="278" y="-11" on="1"/>
        <pt x="181" y="-11" on="0"/>
        <pt x="50" y="88" on="0"/>
        <pt x="50" y="239" on="0"/>
        <pt x="137" y="335" on="0"/>
        <pt x="215" y="380" on="1"/>
        <pt x="157" y="478" on="0"/>
        <pt x="157" y="623" on="0"/>
        <pt x="258" y="711" on="0"/>
        <pt x="410" y="711" on="0"/>
        <pt x="508" y="634" on="0"/>
      </contour>
      <contour>
        <pt x="146" y="184" on="1"/>
        <pt x="146" y="122" on="0"/>
        <pt x="227" y="36" on="0"/>
        <pt x="288" y="36" on="1"/>
        <pt x="385" y="36" on="0"/>
        <pt x="445" y="108" on="1"/>
        <pt x="311" y="236" on="0"/>
        <pt x="241" y="338" on="1"/>
        <pt x="146" y="273" on="0"/>
      </contour>
      <contour>
        <pt x="234" y="577" on="1"/>
        <pt x="234" y="510" on="0"/>
        <pt x="286" y="419" on="1"/>
        <pt x="355" y="458" on="0"/>
        <pt x="416" y="508" on="0"/>
        <pt x="438" y="552" on="0"/>
        <pt x="438" y="617" on="0"/>
        <pt x="380" y="669" on="0"/>
        <pt x="291" y="669" on="0"/>
        <pt x="234" y="617" on="0"/>
      </contour>
    </TTGlyph>
    <TTGlyph name="approxequal" xMin="79" yMin="124" xMax="620" yMax="462">
      <contour>
        <pt x="239" y="388" on="1"/>
        <pt x="177" y="388" on="0"/>
        <pt x="131" y="323" on="1"/>
        <pt x="124" y="313" on="0"/>
        <pt x="114" y="319" on="1"/>
        <pt x="86" y="337" on="1"/>
        <pt x="80" y="340" on="0"/>
        <pt x="80" y="344" on="1"/>
        <pt x="80" y="349" on="0"/>
        <pt x="85" y="358" on="1"/>
        <pt x="145" y="455" on="0"/>
        <pt x="246" y="455" on="1"/>
        <pt x="293" y="455" on="0"/>
        <pt x="423" y="390" on="0"/>
        <pt x="460" y="390" on="1"/>
        <pt x="522" y="390" on="0"/>
        <pt x="568" y="455" on="1"/>
        <pt x="572" y="461" on="0"/>
        <pt x="581" y="461" on="0"/>
        <pt x="585" y="459" on="1"/>
        <pt x="613" y="441" on="1"/>
        <pt x="619" y="438" on="0"/>
        <pt x="619" y="434" on="1"/>
        <pt x="619" y="429" on="0"/>
        <pt x="614" y="420" on="1"/>
        <pt x="554" y="323" on="0"/>
        <pt x="453" y="323" on="1"/>
        <pt x="409" y="323" on="0"/>
        <pt x="272" y="388" on="0"/>
      </contour>
      <contour>
        <pt x="239" y="196" on="1"/>
        <pt x="177" y="196" on="0"/>
        <pt x="131" y="131" on="1"/>
        <pt x="127" y="125" on="0"/>
        <pt x="118" y="125" on="0"/>
        <pt x="114" y="127" on="1"/>
        <pt x="86" y="145" on="1"/>
        <pt x="80" y="148" on="0"/>
        <pt x="80" y="152" on="1"/>
        <pt x="80" y="157" on="0"/>
        <pt x="85" y="166" on="1"/>
        <pt x="145" y="263" on="0"/>
        <pt x="246" y="263" on="1"/>
        <pt x="293" y="263" on="0"/>
        <pt x="423" y="198" on="0"/>
        <pt x="460" y="198" on="1"/>
        <pt x="522" y="198" on="0"/>
        <pt x="568" y="263" on="1"/>
        <pt x="572" y="269" on="0"/>
        <pt x="581" y="269" on="0"/>
        <pt x="585" y="267" on="1"/>
        <pt x="613" y="249" on="1"/>
        <pt x="619" y="246" on="0"/>
        <pt x="619" y="242" on="1"/>
        <pt x="619" y="237" on="0"/>
        <pt x="614" y="228" on="1"/>
        <pt x="554" y="131" on="0"/>
        <pt x="453" y="131" on="1"/>
        <pt x="409" y="131" on="0"/>
        <pt x="272" y="196" on="0"/>
      </contour>
    </TTGlyph>
    <TTGlyph name="aring" xMin="50" yMin="-11" xMax="501" yMax="785">
      <contour>
        <pt x="501" y="5" on="1"/>
        <pt x="501" y="-11" on="0"/>
        <pt x="465" y="-11" on="1"/>
        <pt x="403" y="-11" on="0"/>
        <pt x="360" y="38" on="1"/>
        <pt x="353" y="45" on="0"/>
        <pt x="346" y="45" on="0"/>
        <pt x="339" y="39" on="1"/>
        <pt x="274" y="-11" on="0"/>
        <pt x="193" y="-11" on="1"/>
        <pt x="136" y="-11" on="0"/>
        <pt x="50" y="60" on="0"/>
        <pt x="50" y="116" on="1"/>
        <pt x="50" y="187" on="0"/>
        <pt x="112" y="224" on="1"/>
        <pt x="167" y="256" on="0"/>
        <pt x="284" y="274" on="1"/>
        <pt x="312" y="279" on="0"/>
        <pt x="322" y="281" on="1"/>
        <pt x="335" y="282" on="0"/>
        <pt x="335" y="295" on="1"/>
        <pt x="335" y="387" on="1"/>
        <pt x="335" y="428" on="0"/>
        <pt x="280" y="476" on="0"/>
        <pt x="189" y="476" on="0"/>
        <pt x="116" y="420" on="0"/>
        <pt x="106" y="370" on="1"/>
        <pt x="103" y="355" on="0"/>
        <pt x="76" y="355" on="0"/>
        <pt x="76" y="370" on="1"/>
        <pt x="76" y="445" on="1"/>
        <pt x="76" y="462" on="0"/>
        <pt x="87" y="470" on="1"/>
        <pt x="140" y="511" on="0"/>
        <pt x="338" y="511" on="0"/>
        <pt x="418" y="425" on="0"/>
        <pt x="418" y="357" on="1"/>
        <pt x="418" y="90" on="1"/>
        <pt x="418" y="58" on="0"/>
        <pt x="459" y="18" on="0"/>
        <pt x="487" y="18" on="1"/>
        <pt x="501" y="18" on="0"/>
      </contour>
      <contour>
        <pt x="333" y="98" on="1"/>
        <pt x="333" y="223" on="1"/>
        <pt x="333" y="240" on="0"/>
        <pt x="317" y="238" on="1"/>
        <pt x="138" y="216" on="0"/>
        <pt x="138" y="128" on="1"/>
        <pt x="138" y="87" on="0"/>
        <pt x="192" y="40" on="0"/>
        <pt x="259" y="40" on="0"/>
        <pt x="310" y="66" on="0"/>
        <pt x="333" y="92" on="0"/>
      </contour>
      <contour>
        <pt x="141" y="639" on="0"/>
        <pt x="141" y="725" on="0"/>
        <pt x="201" y="785" on="0"/>
        <pt x="289" y="785" on="0"/>
        <pt x="349" y="725" on="0"/>
        <pt x="349" y="639" on="0"/>
        <pt x="289" y="579" on="0"/>
        <pt x="201" y="579" on="0"/>
      </contour>
      <contour>
        <pt x="190" y="706" on="0"/>
        <pt x="190" y="658" on="0"/>
        <pt x="221" y="625" on="0"/>
        <pt x="269" y="625" on="0"/>
        <pt x="299" y="658" on="0"/>
        <pt x="299" y="706" on="0"/>
        <pt x="269" y="739" on="0"/>
        <pt x="221" y="739" on="0"/>
      </contour>
    </TTGlyph>
    <TTGlyph name="asciicircum" xMin="50" yMin="390" xMax="414" yMax="711">
      <contour>
        <pt x="104" y="390" on="1"/>
        <pt x="60" y="390" on="1"/>
        <pt x="55" y="390" on="0"/>
        <pt x="50" y="396" on="0"/>
        <pt x="50" y="400" on="0"/>
        <pt x="51" y="402" on="1"/>
        <pt x="197" y="701" on="1"/>
        <pt x="201" y="711" on="0"/>
        <pt x="210" y="711" on="1"/>
        <pt x="254" y="711" on="1"/>
        <pt x="263" y="711" on="0"/>
        <pt x="267" y="701" on="1"/>
        <pt x="413" y="402" on="1"/>
        <pt x="414" y="400" on="0"/>
        <pt x="414" y="396" on="0"/>
        <pt x="409" y="390" on="0"/>
        <pt x="404" y="390" on="1"/>
        <pt x="360" y="390" on="1"/>
        <pt x="352" y="390" on="0"/>
        <pt x="347" y="402" on="1"/>
        <pt x="232" y="647" on="1"/>
        <pt x="117" y="402" on="1"/>
        <pt x="112" y="390" on="0"/>
      </contour>
    </TTGlyph>
    <TTGlyph name="asciitilde" xMin="49" yMin="226" xMax="590" yMax="372">
      <contour>
        <pt x="209" y="298" on="1"/>
        <pt x="147" y="298" on="0"/>
        <pt x="101" y="233" on="1"/>
        <pt x="97" y="227" on="0"/>
        <pt x="88" y="227" on="0"/>
        <pt x="84" y="229" on="1"/>
        <pt x="56" y="247" on="1"/>
        <pt x="50" y="250" on="0"/>
        <pt x="50" y="254" on="1"/>
        <pt x="50" y="259" on="0"/>
        <pt x="55" y="268" on="1"/>
        <pt x="115" y="365" on="0"/>
        <pt x="216" y="365" on="1"/>
        <pt x="263" y="365" on="0"/>
        <pt x="393" y="300" on="0"/>
        <pt x="430" y="300" on="1"/>
        <pt x="492" y="300" on="0"/>
        <pt x="538" y="365" on="1"/>
        <pt x="542" y="371" on="0"/>
        <pt x="551" y="371" on="0"/>
        <pt x="555" y="369" on="1"/>
        <pt x="583" y="351" on="1"/>
        <pt x="589" y="348" on="0"/>
        <pt x="589" y="344" on="1"/>
        <pt x="589" y="339" on="0"/>
        <pt x="584" y="330" on="1"/>
        <pt x="524" y="233" on="0"/>
        <pt x="423" y="233" on="1"/>
        <pt x="379" y="233" on="0"/>
        <pt x="242" y="298" on="0"/>
      </contour>
    </TTGlyph>
    <TTGlyph name="asterisk" xMin="50" yMin="339" xMax="439" yMax="711">
      <contour>
        <pt x="217" y="711" on="1"/>
        <pt x="272" y="711" on="1"/>
        <pt x="277" y="711" on="0"/>
        <pt x="284" y="704" on="0"/>
        <pt x="283" y="699" on="1"/>
        <pt x="265" y="545" on="1"/>
        <pt x="406" y="610" on="1"/>
        <pt x="417" y="616" on="0"/>
        <pt x="421" y="603" on="1"/>
        <pt x="438" y="551" on="1"/>
        <pt x="439" y="548" on="0"/>
        <pt x="439" y="546" on="1"/>
        <pt x="439" y="539" on="0"/>
        <pt x="430" y="537" on="1"/>
        <pt x="278" y="506" on="1"/>
        <pt x="383" y="392" on="1"/>
        <pt x="392" y="383" on="0"/>
        <pt x="381" y="375" on="1"/>
        <pt x="337" y="343" on="1"/>
        <pt x="333" y="340" on="0"/>
        <pt x="325" y="340" on="0"/>
        <pt x="321" y="346" on="1"/>
        <pt x="245" y="481" on="1"/>
        <pt x="169" y="346" on="1"/>
        <pt x="165" y="339" on="0"/>
        <pt x="156" y="339" on="0"/>
        <pt x="152" y="342" on="1"/>
        <pt x="108" y="374" on="1"/>
        <pt x="99" y="382" on="0"/>
        <pt x="106" y="391" on="1"/>
        <pt x="212" y="506" on="1"/>
        <pt x="60" y="536" on="1"/>
        <pt x="50" y="539" on="0"/>
        <pt x="50" y="547" on="1"/>
        <pt x="50" y="549" on="0"/>
        <pt x="51" y="551" on="1"/>
        <pt x="68" y="603" on="1"/>
        <pt x="72" y="614" on="0"/>
        <pt x="83" y="610" on="1"/>
        <pt x="224" y="545" on="1"/>
        <pt x="206" y="699" on="1"/>
        <pt x="205" y="704" on="0"/>
        <pt x="212" y="711" on="0"/>
      </contour>
    </TTGlyph>
    <TTGlyph name="at" xMin="50" yMin="-11" xMax="787" yMax="711">
      <contour>
        <pt x="386" y="208" on="1"/>
        <pt x="426" y="208" on="0"/>
        <pt x="484" y="271" on="0"/>
        <pt x="490" y="311" on="1"/>
        <pt x="515" y="494" on="1"/>
        <pt x="483" y="503" on="0"/>
        <pt x="405" y="503" on="0"/>
        <pt x="374" y="470" on="1"/>
        <pt x="320" y="412" on="0"/>
        <pt x="320" y="301" on="1"/>
        <pt x="320" y="208" on="0"/>
      </contour>
      <contour>
        <pt x="379" y="-11" on="1"/>
        <pt x="236" y="-11" on="0"/>
        <pt x="50" y="158" on="0"/>
        <pt x="50" y="292" on="1"/>
        <pt x="50" y="468" on="0"/>
        <pt x="294" y="711" on="0"/>
        <pt x="467" y="711" on="1"/>
        <pt x="608" y="711" on="0"/>
        <pt x="787" y="548" on="0"/>
        <pt x="787" y="292" on="0"/>
        <pt x="659" y="159" on="0"/>
        <pt x="588" y="159" on="1"/>
        <pt x="502" y="159" on="0"/>
        <pt x="486" y="224" on="1"/>
        <pt x="436" y="162" on="0"/>
        <pt x="307" y="162" on="0"/>
        <pt x="244" y="232" on="0"/>
        <pt x="244" y="296" on="1"/>
        <pt x="244" y="395" on="0"/>
        <pt x="364" y="541" on="0"/>
        <pt x="456" y="541" on="1"/>
        <pt x="518" y="541" on="0"/>
        <pt x="559" y="530" on="1"/>
        <pt x="574" y="526" on="1"/>
        <pt x="585" y="525" on="0"/>
        <pt x="585" y="512" on="1"/>
        <pt x="549" y="263" on="1"/>
        <pt x="548" y="258" on="0"/>
        <pt x="548" y="234" on="0"/>
        <pt x="569" y="202" on="0"/>
        <pt x="596" y="202" on="1"/>
        <pt x="642" y="202" on="0"/>
        <pt x="718" y="310" on="0"/>
        <pt x="718" y="529" on="0"/>
        <pt x="579" y="668" on="0"/>
        <pt x="461" y="668" on="1"/>
        <pt x="314" y="668" on="0"/>
        <pt x="127" y="454" on="0"/>
        <pt x="127" y="294" on="1"/>
        <pt x="127" y="175" on="0"/>
        <pt x="265" y="31" on="0"/>
        <pt x="385" y="31" on="1"/>
        <pt x="434" y="31" on="0"/>
        <pt x="531" y="56" on="0"/>
        <pt x="555" y="69" on="1"/>
        <pt x="579" y="82" on="1"/>
        <pt x="590" y="88" on="0"/>
        <pt x="595" y="80" on="1"/>
        <pt x="603" y="68" on="1"/>
        <pt x="606" y="64" on="0"/>
        <pt x="603" y="51" on="0"/>
        <pt x="598" y="49" on="1"/>
        <pt x="588" y="42" on="0"/>
        <pt x="551" y="22" on="0"/>
        <pt x="437" y="-11" on="0"/>
      </contour>
    </TTGlyph>
    <TTGlyph name="atilde" xMin="50" yMin="-11" xMax="501" yMax="717">
      <contour>
        <pt x="501" y="5" on="1"/>
        <pt x="501" y="-11" on="0"/>
        <pt x="465" y="-11" on="1"/>
        <pt x="403" y="-11" on="0"/>
        <pt x="360" y="38" on="1"/>
        <pt x="353" y="45" on="0"/>
        <pt x="346" y="45" on="0"/>
        <pt x="339" y="39" on="1"/>
        <pt x="274" y="-11" on="0"/>
        <pt x="193" y="-11" on="1"/>
        <pt x="136" y="-11" on="0"/>
        <pt x="50" y="60" on="0"/>
        <pt x="50" y="116" on="1"/>
        <pt x="50" y="187" on="0"/>
        <pt x="112" y="224" on="1"/>
        <pt x="167" y="256" on="0"/>
        <pt x="284" y="274" on="1"/>
        <pt x="312" y="279" on="0"/>
        <pt x="322" y="281" on="1"/>
        <pt x="335" y="282" on="0"/>
        <pt x="335" y="295" on="1"/>
        <pt x="335" y="387" on="1"/>
        <pt x="335" y="428" on="0"/>
        <pt x="280" y="476" on="0"/>
        <pt x="189" y="476" on="0"/>
        <pt x="116" y="420" on="0"/>
        <pt x="106" y="370" on="1"/>
        <pt x="103" y="355" on="0"/>
        <pt x="76" y="355" on="0"/>
        <pt x="76" y="370" on="1"/>
        <pt x="76" y="445" on="1"/>
        <pt x="76" y="462" on="0"/>
        <pt x="87" y="470" on="1"/>
        <pt x="140" y="511" on="0"/>
        <pt x="338" y="511" on="0"/>
        <pt x="418" y="425" on="0"/>
        <pt x="418" y="357" on="1"/>
        <pt x="418" y="90" on="1"/>
        <pt x="418" y="58" on="0"/>
        <pt x="459" y="18" on="0"/>
        <pt x="487" y="18" on="1"/>
        <pt x="501" y="18" on="0"/>
      </contour>
      <contour>
        <pt x="333" y="98" on="1"/>
        <pt x="333" y="223" on="1"/>
        <pt x="333" y="240" on="0"/>
        <pt x="317" y="238" on="1"/>
        <pt x="138" y="216" on="0"/>
        <pt x="138" y="128" on="1"/>
        <pt x="138" y="87" on="0"/>
        <pt x="192" y="40" on="0"/>
        <pt x="259" y="40" on="0"/>
        <pt x="310" y="66" on="0"/>
        <pt x="333" y="92" on="0"/>
      </contour>
      <contour>
        <pt x="313" y="610" on="1"/>
        <pt x="286" y="610" on="0"/>
        <pt x="196" y="656" on="0"/>
        <pt x="145" y="656" on="0"/>
        <pt x="113" y="632" on="0"/>
        <pt x="108" y="620" on="1"/>
        <pt x="103" y="608" on="1"/>
        <pt x="71" y="623" on="1"/>
        <pt x="76" y="649" on="0"/>
        <pt x="136" y="715" on="0"/>
        <pt x="187" y="715" on="1"/>
        <pt x="216" y="715" on="0"/>
        <pt x="314" y="669" on="0"/>
        <pt x="355" y="669" on="0"/>
        <pt x="387" y="693" on="0"/>
        <pt x="392" y="705" on="1"/>
        <pt x="397" y="717" on="1"/>
        <pt x="429" y="702" on="1"/>
        <pt x="424" y="676" on="0"/>
        <pt x="364" y="610" on="0"/>
      </contour>
    </TTGlyph>
    <TTGlyph name="b" xMin="1" yMin="-11" xMax="560" yMax="801">
      <contour>
        <pt x="422" y="511" on="0"/>
        <pt x="560" y="366" on="0"/>
        <pt x="560" y="142" on="0"/>
        <pt x="409" y="-11" on="0"/>
        <pt x="304" y="-11" on="1"/>
        <pt x="227" y="-11" on="0"/>
        <pt x="171" y="17" on="1"/>
        <pt x="153" y="26" on="0"/>
        <pt x="144" y="26" on="1"/>
        <pt x="125" y="26" on="0"/>
        <pt x="111" y="3" on="1"/>
        <pt x="105" y="-11" on="0"/>
        <pt x="96" y="-11" on="1"/>
        <pt x="77" y="-11" on="0"/>
        <pt x="79" y="7" on="1"/>
        <pt x="84" y="50" on="0"/>
        <pt x="84" y="66" on="1"/>
        <pt x="84" y="721" on="1"/>
        <pt x="84" y="740" on="0"/>
        <pt x="67" y="756" on="0"/>
        <pt x="49" y="756" on="1"/>
        <pt x="14" y="756" on="1"/>
        <pt x="1" y="756" on="0"/>
        <pt x="1" y="782" on="0"/>
        <pt x="14" y="784" on="1"/>
        <pt x="143" y="800" on="1"/>
        <pt x="145" y="800" on="0"/>
        <pt x="148" y="800" on="1"/>
        <pt x="166" y="800" on="0"/>
        <pt x="166" y="777" on="1"/>
        <pt x="160" y="549" on="1"/>
        <pt x="160" y="479" on="1"/>
        <pt x="160" y="470" on="0"/>
        <pt x="168" y="465" on="0"/>
        <pt x="171" y="468" on="1"/>
        <pt x="236" y="511" on="0"/>
      </contour>
      <contour>
        <pt x="472" y="220" on="1"/>
        <pt x="472" y="338" on="0"/>
        <pt x="379" y="466" on="0"/>
        <pt x="216" y="466" on="0"/>
        <pt x="172" y="420" on="1"/>
        <pt x="162" y="410" on="0"/>
        <pt x="162" y="400" on="1"/>
        <pt x="162" y="142" on="1"/>
        <pt x="162" y="94" on="0"/>
        <pt x="242" y="28" on="0"/>
        <pt x="294" y="28" on="1"/>
        <pt x="376" y="28" on="0"/>
        <pt x="472" y="134" on="0"/>
      </contour>
    </TTGlyph>
    <TTGlyph name="backslash" xMin="31" yMin="-90" xMax="314" yMax="768">
      <contour>
        <pt x="41" y="768" on="1"/>
        <pt x="81" y="768" on="1"/>
        <pt x="93" y="768" on="0"/>
        <pt x="95" y="756" on="1"/>
        <pt x="314" y="-78" on="1"/>
        <pt x="316" y="-90" on="0"/>
        <pt x="304" y="-90" on="1"/>
        <pt x="264" y="-90" on="1"/>
        <pt x="252" y="-90" on="0"/>
        <pt x="250" y="-78" on="1"/>
        <pt x="31" y="756" on="1"/>
        <pt x="29" y="768" on="0"/>
      </contour>
    </TTGlyph>
    <TTGlyph name="bar" xMin="120" yMin="-274" xMax="189" yMax="800">
      <contour>
        <pt x="120" y="-262" on="1"/>
        <pt x="120" y="788" on="1"/>
        <pt x="120" y="800" on="0"/>
        <pt x="131" y="800" on="1"/>
        <pt x="178" y="800" on="1"/>
        <pt x="189" y="800" on="0"/>
        <pt x="189" y="788" on="1"/>
        <pt x="189" y="-262" on="1"/>
        <pt x="189" y="-274" on="0"/>
        <pt x="178" y="-274" on="1"/>
        <pt x="131" y="-274" on="1"/>
        <pt x="120" y="-274" on="0"/>
      </contour>
    </TTGlyph>
    <TTGlyph name="braceleft" xMin="20" yMin="-222" xMax="336" yMax="775">
      <contour>
        <pt x="20" y="268" on="1"/>
        <pt x="20" y="285" on="1"/>
        <pt x="20" y="298" on="0"/>
        <pt x="33" y="298" on="1"/>
        <pt x="44" y="298" on="1"/>
        <pt x="92" y="299" on="0"/>
        <pt x="124" y="352" on="0"/>
        <pt x="124" y="414" on="1"/>
        <pt x="124" y="603" on="1"/>
        <pt x="124" y="775" on="0"/>
        <pt x="294" y="775" on="1"/>
        <pt x="323" y="775" on="1"/>
        <pt x="336" y="775" on="0"/>
        <pt x="336" y="762" on="1"/>
        <pt x="336" y="745" on="1"/>
        <pt x="336" y="732" on="0"/>
        <pt x="323" y="732" on="1"/>
        <pt x="294" y="732" on="1"/>
        <pt x="242" y="732" on="0"/>
        <pt x="199" y="669" on="0"/>
        <pt x="199" y="606" on="1"/>
        <pt x="199" y="417" on="1"/>
        <pt x="199" y="365" on="0"/>
        <pt x="158" y="288" on="0"/>
        <pt x="118" y="276" on="1"/>
        <pt x="158" y="265" on="0"/>
        <pt x="199" y="188" on="0"/>
        <pt x="199" y="136" on="1"/>
        <pt x="199" y="-53" on="1"/>
        <pt x="199" y="-116" on="0"/>
        <pt x="242" y="-179" on="0"/>
        <pt x="294" y="-179" on="1"/>
        <pt x="323" y="-179" on="1"/>
        <pt x="336" y="-179" on="0"/>
        <pt x="336" y="-192" on="1"/>
        <pt x="336" y="-209" on="1"/>
        <pt x="336" y="-222" on="0"/>
        <pt x="323" y="-222" on="1"/>
        <pt x="294" y="-222" on="1"/>
        <pt x="124" y="-222" on="0"/>
        <pt x="124" y="-50" on="1"/>
        <pt x="124" y="139" on="1"/>
        <pt x="124" y="201" on="0"/>
        <pt x="92" y="255" on="0"/>
        <pt x="44" y="255" on="1"/>
        <pt x="33" y="255" on="1"/>
        <pt x="20" y="255" on="0"/>
      </contour>
    </TTGlyph>
    <TTGlyph name="braceright" xMin="60" yMin="-222" xMax="376" yMax="775">
      <contour>
        <pt x="376" y="285" on="1"/>
        <pt x="376" y="268" on="1"/>
        <pt x="376" y="255" on="0"/>
        <pt x="363" y="255" on="1"/>
        <pt x="352" y="255" on="1"/>
        <pt x="304" y="255" on="0"/>
        <pt x="272" y="201" on="0"/>
        <pt x="272" y="139" on="1"/>
        <pt x="272" y="-50" on="1"/>
        <pt x="272" y="-222" on="0"/>
        <pt x="102" y="-222" on="1"/>
        <pt x="73" y="-222" on="1"/>
        <pt x="60" y="-222" on="0"/>
        <pt x="60" y="-209" on="1"/>
        <pt x="60" y="-192" on="1"/>
        <pt x="60" y="-179" on="0"/>
        <pt x="73" y="-179" on="1"/>
        <pt x="102" y="-179" on="1"/>
        <pt x="154" y="-179" on="0"/>
        <pt x="197" y="-116" on="0"/>
        <pt x="197" y="-53" on="1"/>
        <pt x="197" y="136" on="1"/>
        <pt x="197" y="188" on="0"/>
        <pt x="238" y="265" on="0"/>
        <pt x="278" y="276" on="1"/>
        <pt x="238" y="288" on="0"/>
        <pt x="197" y="365" on="0"/>
        <pt x="197" y="417" on="1"/>
        <pt x="197" y="606" on="1"/>
        <pt x="197" y="669" on="0"/>
        <pt x="154" y="732" on="0"/>
        <pt x="102" y="732" on="1"/>
        <pt x="73" y="732" on="1"/>
        <pt x="60" y="732" on="0"/>
        <pt x="60" y="745" on="1"/>
        <pt x="60" y="762" on="1"/>
        <pt x="60" y="775" on="0"/>
        <pt x="73" y="775" on="1"/>
        <pt x="102" y="775" on="1"/>
        <pt x="272" y="775" on="0"/>
        <pt x="272" y="603" on="1"/>
        <pt x="272" y="414" on="1"/>
        <pt x="272" y="352" on="0"/>
        <pt x="304" y="299" on="0"/>
        <pt x="352" y="298" on="1"/>
        <pt x="363" y="298" on="1"/>
        <pt x="376" y="298" on="0"/>
      </contour>
    </TTGlyph>
    <TTGlyph name="bracketleft" xMin="100" yMin="-222" xMax="315" yMax="775">
      <contour>
        <pt x="100" y="-210" on="1"/>
        <pt x="100" y="763" on="1"/>
        <pt x="100" y="775" on="0"/>
        <pt x="114" y="775" on="1"/>
        <pt x="302" y="775" on="1"/>
        <pt x="315" y="775" on="0"/>
        <pt x="315" y="762" on="1"/>
        <pt x="315" y="745" on="1"/>
        <pt x="315" y="732" on="0"/>
        <pt x="302" y="732" on="1"/>
        <pt x="175" y="732" on="1"/>
        <pt x="175" y="-179" on="1"/>
        <pt x="302" y="-179" on="1"/>
        <pt x="315" y="-179" on="0"/>
        <pt x="315" y="-192" on="1"/>
        <pt x="315" y="-209" on="1"/>
        <pt x="315" y="-222" on="0"/>
        <pt x="302" y="-222" on="1"/>
        <pt x="114" y="-222" on="1"/>
        <pt x="100" y="-222" on="0"/>
      </contour>
    </TTGlyph>
    <TTGlyph name="bracketright" xMin="60" yMin="-222" xMax="275" yMax="775">
      <contour>
        <pt x="275" y="763" on="1"/>
        <pt x="275" y="-210" on="1"/>
        <pt x="275" y="-222" on="0"/>
        <pt x="261" y="-222" on="1"/>
        <pt x="73" y="-222" on="1"/>
        <pt x="60" y="-222" on="0"/>
        <pt x="60" y="-209" on="1"/>
        <pt x="60" y="-192" on="1"/>
        <pt x="60" y="-179" on="0"/>
        <pt x="73" y="-179" on="1"/>
        <pt x="200" y="-179" on="1"/>
        <pt x="200" y="732" on="1"/>
        <pt x="73" y="732" on="1"/>
        <pt x="60" y="732" on="0"/>
        <pt x="60" y="745" on="1"/>
        <pt x="60" y="762" on="1"/>
        <pt x="60" y="775" on="0"/>
        <pt x="73" y="775" on="1"/>
        <pt x="261" y="775" on="1"/>
        <pt x="275" y="775" on="0"/>
      </contour>
    </TTGlyph>
    <TTGlyph name="breve" xMin="65" yMin="602" xMax="375" yMax="767">
      <contour>
        <pt x="285" y="602" on="0"/>
        <pt x="155" y="602" on="0"/>
        <pt x="65" y="691" on="0"/>
        <pt x="65" y="755" on="1"/>
        <pt x="65" y="767" on="1"/>
        <pt x="112" y="767" on="1"/>
        <pt x="112" y="765" on="1"/>
        <pt x="112" y="723" on="0"/>
        <pt x="174" y="669" on="0"/>
        <pt x="266" y="669" on="0"/>
        <pt x="328" y="723" on="0"/>
        <pt x="328" y="765" on="1"/>
        <pt x="328" y="767" on="1"/>
        <pt x="375" y="767" on="1"/>
        <pt x="375" y="755" on="1"/>
        <pt x="375" y="691" on="0"/>
      </contour>
    </TTGlyph>
    <TTGlyph name="brokenbar" xMin="120" yMin="-274" xMax="189" yMax="800">
      <contour>
        <pt x="120" y="350" on="1"/>
        <pt x="120" y="788" on="1"/>
        <pt x="120" y="800" on="0"/>
        <pt x="131" y="800" on="1"/>
        <pt x="178" y="800" on="1"/>
        <pt x="189" y="800" on="0"/>
        <pt x="189" y="788" on="1"/>
        <pt x="189" y="350" on="1"/>
        <pt x="189" y="338" on="0"/>
        <pt x="178" y="338" on="1"/>
        <pt x="131" y="338" on="1"/>
        <pt x="120" y="338" on="0"/>
      </contour>
      <contour>
        <pt x="120" y="-262" on="1"/>
        <pt x="120" y="176" on="1"/>
        <pt x="120" y="188" on="0"/>
        <pt x="131" y="188" on="1"/>
        <pt x="178" y="188" on="1"/>
        <pt x="189" y="188" on="0"/>
        <pt x="189" y="176" on="1"/>
        <pt x="189" y="-262" on="1"/>
        <pt x="189" y="-274" on="0"/>
        <pt x="178" y="-274" on="1"/>
        <pt x="131" y="-274" on="1"/>
        <pt x="120" y="-274" on="0"/>
      </contour>
    </TTGlyph>
    <TTGlyph name="bullet" xMin="70" yMin="214" xMax="316" yMax="460">
      <contour>
        <pt x="70" y="284" on="0"/>
        <pt x="70" y="390" on="0"/>
        <pt x="140" y="460" on="0"/>
        <pt x="246" y="460" on="0"/>
        <pt x="316" y="390" on="0"/>
        <pt x="316" y="284" on="0"/>
        <pt x="246" y="214" on="0"/>
        <pt x="140" y="214" on="0"/>
      </contour>
    </TTGlyph>
    <TTGlyph name="c" xMin="50" yMin="-11" xMax="475" yMax="511">
      <contour>
        <pt x="472" y="353" on="1"/>
        <pt x="472" y="336" on="0"/>
        <pt x="458" y="336" on="1"/>
        <pt x="446" y="336" on="0"/>
        <pt x="442" y="353" on="1"/>
        <pt x="427" y="408" on="0"/>
        <pt x="359" y="472" on="0"/>
        <pt x="307" y="472" on="1"/>
        <pt x="232" y="472" on="0"/>
        <pt x="138" y="361" on="0"/>
        <pt x="138" y="269" on="1"/>
        <pt x="138" y="154" on="0"/>
        <pt x="251" y="40" on="0"/>
        <pt x="400" y="40" on="0"/>
        <pt x="447" y="70" on="1"/>
        <pt x="454" y="75" on="0"/>
        <pt x="466" y="75" on="0"/>
        <pt x="475" y="67" on="0"/>
        <pt x="475" y="52" on="0"/>
        <pt x="467" y="44" on="1"/>
        <pt x="412" y="-11" on="0"/>
        <pt x="195" y="-11" on="0"/>
        <pt x="50" y="128" on="0"/>
        <pt x="50" y="259" on="1"/>
        <pt x="50" y="362" on="0"/>
        <pt x="195" y="511" on="0"/>
        <pt x="301" y="511" on="1"/>
        <pt x="374" y="511" on="0"/>
        <pt x="472" y="466" on="0"/>
        <pt x="472" y="440" on="1"/>
      </contour>
    </TTGlyph>
    <TTGlyph name="caron" xMin="65" yMin="592" xMax="375" yMax="752">
      <contour>
        <pt x="65" y="729" on="1"/>
        <pt x="83" y="752" on="1"/>
        <pt x="220" y="676" on="1"/>
        <pt x="357" y="752" on="1"/>
        <pt x="375" y="729" on="1"/>
        <pt x="220" y="592" on="1"/>
      </contour>
    </TTGlyph>
    <TTGlyph name="caron.cap" xMin="65" yMin="792" xMax="375" yMax="952">
      <contour>
        <pt x="65" y="929" on="1"/>
        <pt x="83" y="952" on="1"/>
        <pt x="220" y="876" on="1"/>
        <pt x="357" y="952" on="1"/>
        <pt x="375" y="929" on="1"/>
        <pt x="220" y="792" on="1"/>
      </contour>
    </TTGlyph>
    <TTGlyph name="ccedilla" xMin="50" yMin="-247" xMax="475" yMax="511">
      <component glyphName="c" x="0" y="0" flags="0x1004"/>
      <component glyphName="cedilla" x="111" y="0" flags="0x1004"/>
    </TTGlyph>
    <TTGlyph name="cedilla" xMin="65" yMin="-247" xMax="238" yMax="0">
      <contour>
        <pt x="238" y="-196" on="0"/>
        <pt x="166" y="-247" on="0"/>
        <pt x="116" y="-247" on="1"/>
        <pt x="91" y="-247" on="0"/>
        <pt x="65" y="-239" on="1"/>
        <pt x="65" y="-203" on="1"/>
        <pt x="84" y="-209" on="0"/>
        <pt x="136" y="-209" on="0"/>
        <pt x="174" y="-184" on="0"/>
        <pt x="174" y="-138" on="0"/>
        <pt x="136" y="-108" on="0"/>
        <pt x="118" y="-104" on="1"/>
        <pt x="99" y="-100" on="1"/>
        <pt x="141" y="0" on="1"/>
        <pt x="176" y="-5" on="1"/>
        <pt x="155" y="-62" on="1"/>
        <pt x="158" y="-63" on="0"/>
        <pt x="170" y="-66" on="0"/>
        <pt x="198" y="-79" on="0"/>
        <pt x="209" y="-88" on="1"/>
        <pt x="238" y="-112" on="0"/>
      </contour>
    </TTGlyph>
    <TTGlyph name="cent" xMin="50" yMin="-132" xMax="475" yMax="627">
      <contour>
        <pt x="472" y="440" on="1"/>
        <pt x="472" y="353" on="1"/>
        <pt x="472" y="336" on="0"/>
        <pt x="458" y="336" on="1"/>
        <pt x="446" y="336" on="0"/>
        <pt x="442" y="353" on="1"/>
        <pt x="419" y="437" on="0"/>
        <pt x="358" y="462" on="1"/>
        <pt x="267" y="50" on="1"/>
        <pt x="296" y="40" on="0"/>
        <pt x="329" y="40" on="1"/>
        <pt x="400" y="40" on="0"/>
        <pt x="447" y="70" on="1"/>
        <pt x="454" y="75" on="0"/>
        <pt x="466" y="75" on="0"/>
        <pt x="475" y="67" on="0"/>
        <pt x="475" y="52" on="0"/>
        <pt x="467" y="44" on="1"/>
        <pt x="412" y="-11" on="0"/>
        <pt x="305" y="-11" on="1"/>
        <pt x="287" y="-11" on="0"/>
        <pt x="255" y="-7" on="1"/>
        <pt x="230" y="-120" on="1"/>
        <pt x="228" y="-132" on="0"/>
        <pt x="216" y="-132" on="1"/>
        <pt x="193" y="-132" on="1"/>
        <pt x="181" y="-132" on="0"/>
        <pt x="183" y="-120" on="1"/>
        <pt x="210" y="4" on="1"/>
        <pt x="137" y="29" on="0"/>
        <pt x="50" y="158" on="0"/>
        <pt x="50" y="362" on="0"/>
        <pt x="195" y="511" on="0"/>
        <pt x="301" y="511" on="1"/>
        <pt x="315" y="511" on="0"/>
        <pt x="322" y="510" on="1"/>
        <pt x="345" y="615" on="1"/>
        <pt x="347" y="627" on="0"/>
        <pt x="359" y="627" on="1"/>
        <pt x="382" y="627" on="1"/>
        <pt x="394" y="627" on="0"/>
        <pt x="392" y="615" on="1"/>
        <pt x="368" y="505" on="1"/>
        <pt x="414" y="496" on="0"/>
        <pt x="472" y="459" on="0"/>
      </contour>
      <contour>
        <pt x="138" y="269" on="1"/>
        <pt x="138" y="129" on="0"/>
        <pt x="225" y="70" on="1"/>
        <pt x="313" y="472" on="1"/>
        <pt x="307" y="472" on="1"/>
        <pt x="232" y="472" on="0"/>
        <pt x="138" y="361" on="0"/>
      </contour>
    </TTGlyph>
    <TTGlyph name="circumflex" xMin="65" yMin="592" xMax="375" yMax="752">
      <contour>
        <pt x="83" y="592" on="1"/>
        <pt x="65" y="615" on="1"/>
        <pt x="220" y="752" on="1"/>
        <pt x="375" y="615" on="1"/>
        <pt x="357" y="592" on="1"/>
        <pt x="220" y="668" on="1"/>
      </contour>
    </TTGlyph>
    <TTGlyph name="circumflex.cap" xMin="65" yMin="792" xMax="375" yMax="952">
      <contour>
        <pt x="83" y="792" on="1"/>
        <pt x="65" y="815" on="1"/>
        <pt x="220" y="952" on="1"/>
        <pt x="375" y="815" on="1"/>
        <pt x="357" y="792" on="1"/>
        <pt x="220" y="868" on="1"/>
      </contour>
    </TTGlyph>
    <TTGlyph name="colon" xMin="70" yMin="-11" xMax="193" yMax="511">
      <contour>
        <pt x="156" y="511" on="0"/>
        <pt x="193" y="475" on="0"/>
        <pt x="193" y="424" on="0"/>
        <pt x="156" y="388" on="0"/>
        <pt x="106" y="388" on="0"/>
        <pt x="70" y="425" on="0"/>
        <pt x="70" y="475" on="0"/>
        <pt x="106" y="511" on="0"/>
      </contour>
      <contour>
        <pt x="156" y="112" on="0"/>
        <pt x="193" y="76" on="0"/>
        <pt x="193" y="25" on="0"/>
        <pt x="156" y="-11" on="0"/>
        <pt x="106" y="-11" on="0"/>
        <pt x="70" y="25" on="0"/>
        <pt x="70" y="75" on="0"/>
        <pt x="106" y="112" on="0"/>
      </contour>
    </TTGlyph>
    <TTGlyph name="comma" xMin="60" yMin="-135" xMax="186" yMax="112">
      <contour>
        <pt x="78" y="-135" on="1"/>
        <pt x="60" y="-135" on="0"/>
        <pt x="60" y="-118" on="1"/>
        <pt x="60" y="-109" on="0"/>
        <pt x="67" y="-104" on="1"/>
        <pt x="119" y="-65" on="0"/>
        <pt x="122" y="-13" on="1"/>
        <pt x="92" y="-11" on="0"/>
        <pt x="60" y="24" on="0"/>
        <pt x="60" y="75" on="0"/>
        <pt x="96" y="112" on="0"/>
        <pt x="148" y="112" on="0"/>
        <pt x="186" y="70" on="0"/>
        <pt x="186" y="-18" on="0"/>
        <pt x="126" y="-110" on="0"/>
        <pt x="92" y="-130" on="1"/>
        <pt x="84" y="-135" on="0"/>
      </contour>
    </TTGlyph>
    <TTGlyph name="commaaccent" xMin="60" yMin="-327" xMax="186" yMax="-80">
      <contour>
        <pt x="78" y="-327" on="1"/>
        <pt x="60" y="-327" on="0"/>
        <pt x="60" y="-310" on="1"/>
        <pt x="60" y="-301" on="0"/>
        <pt x="67" y="-296" on="1"/>
        <pt x="119" y="-257" on="0"/>
        <pt x="122" y="-205" on="1"/>
        <pt x="92" y="-203" on="0"/>
        <pt x="60" y="-168" on="0"/>
        <pt x="60" y="-117" on="0"/>
        <pt x="96" y="-80" on="0"/>
        <pt x="148" y="-80" on="0"/>
        <pt x="186" y="-122" on="0"/>
        <pt x="186" y="-210" on="0"/>
        <pt x="126" y="-302" on="0"/>
        <pt x="92" y="-322" on="1"/>
        <pt x="84" y="-327" on="0"/>
      </contour>
    </TTGlyph>
    <TTGlyph name="copyright" xMin="60" yMin="-11" xMax="782" yMax="711">
      <contour>
        <pt x="116" y="491" on="0"/>
        <pt x="116" y="209" on="0"/>
        <pt x="286" y="35" on="0"/>
        <pt x="556" y="35" on="0"/>
        <pt x="726" y="209" on="0"/>
        <pt x="726" y="491" on="0"/>
        <pt x="556" y="665" on="0"/>
        <pt x="286" y="665" on="0"/>
      </contour>
      <contour>
        <pt x="60" y="192" on="0"/>
        <pt x="60" y="508" on="0"/>
        <pt x="264" y="711" on="0"/>
        <pt x="578" y="711" on="0"/>
        <pt x="782" y="508" on="0"/>
        <pt x="782" y="192" on="0"/>
        <pt x="578" y="-11" on="0"/>
        <pt x="264" y="-11" on="0"/>
      </contour>
      <contour>
        <pt x="572" y="457" on="1"/>
        <pt x="572" y="452" on="0"/>
        <pt x="565" y="442" on="0"/>
        <pt x="560" y="442" on="1"/>
        <pt x="549" y="442" on="0"/>
        <pt x="543" y="457" on="1"/>
        <pt x="533" y="496" on="0"/>
        <pt x="476" y="540" on="0"/>
        <pt x="437" y="540" on="1"/>
        <pt x="365" y="540" on="0"/>
        <pt x="281" y="442" on="0"/>
        <pt x="281" y="290" on="0"/>
        <pt x="370" y="171" on="0"/>
        <pt x="506" y="171" on="0"/>
        <pt x="544" y="203" on="1"/>
        <pt x="557" y="214" on="0"/>
        <pt x="573" y="201" on="0"/>
        <pt x="573" y="191" on="0"/>
        <pt x="567" y="185" on="1"/>
        <pt x="518" y="130" on="0"/>
        <pt x="336" y="130" on="0"/>
        <pt x="218" y="255" on="0"/>
        <pt x="218" y="445" on="0"/>
        <pt x="338" y="570" on="0"/>
        <pt x="437" y="570" on="1"/>
        <pt x="488" y="570" on="0"/>
        <pt x="572" y="540" on="0"/>
        <pt x="572" y="526" on="1"/>
      </contour>
    </TTGlyph>
    <TTGlyph name="currency" xMin="70" yMin="93" xMax="568" yMax="591">
      <contour>
        <pt x="185" y="519" on="1"/>
        <pt x="244" y="564" on="0"/>
        <pt x="393" y="564" on="0"/>
        <pt x="452" y="519" on="1"/>
        <pt x="520" y="587" on="1"/>
        <pt x="524" y="591" on="0"/>
        <pt x="528" y="591" on="1"/>
        <pt x="536" y="587" on="1"/>
        <pt x="564" y="559" on="1"/>
        <pt x="568" y="555" on="0"/>
        <pt x="568" y="547" on="0"/>
        <pt x="564" y="543" on="1"/>
        <pt x="496" y="475" on="1"/>
        <pt x="541" y="416" on="0"/>
        <pt x="541" y="267" on="0"/>
        <pt x="496" y="208" on="1"/>
        <pt x="564" y="141" on="1"/>
        <pt x="568" y="137" on="0"/>
        <pt x="568" y="129" on="0"/>
        <pt x="564" y="125" on="1"/>
        <pt x="536" y="97" on="1"/>
        <pt x="532" y="93" on="0"/>
        <pt x="528" y="93" on="1"/>
        <pt x="520" y="97" on="1"/>
        <pt x="452" y="164" on="1"/>
        <pt x="394" y="120" on="0"/>
        <pt x="243" y="120" on="0"/>
        <pt x="185" y="164" on="1"/>
        <pt x="118" y="97" on="1"/>
        <pt x="114" y="93" on="0"/>
        <pt x="110" y="93" on="1"/>
        <pt x="102" y="97" on="1"/>
        <pt x="74" y="125" on="1"/>
        <pt x="70" y="129" on="0"/>
        <pt x="70" y="137" on="0"/>
        <pt x="74" y="141" on="1"/>
        <pt x="141" y="208" on="1"/>
        <pt x="97" y="266" on="0"/>
        <pt x="97" y="417" on="0"/>
        <pt x="141" y="475" on="1"/>
        <pt x="74" y="543" on="1"/>
        <pt x="70" y="547" on="0"/>
        <pt x="70" y="555" on="0"/>
        <pt x="74" y="559" on="1"/>
        <pt x="102" y="587" on="1"/>
        <pt x="106" y="591" on="0"/>
        <pt x="110" y="591" on="1"/>
        <pt x="118" y="587" on="1"/>
      </contour>
      <contour>
        <pt x="385" y="507" on="0"/>
        <pt x="253" y="507" on="0"/>
        <pt x="160" y="409" on="0"/>
        <pt x="160" y="275" on="0"/>
        <pt x="253" y="177" on="0"/>
        <pt x="385" y="177" on="0"/>
        <pt x="478" y="275" on="0"/>
        <pt x="478" y="409" on="0"/>
      </contour>
    </TTGlyph>
    <TTGlyph name="d" xMin="50" yMin="-11" xMax="614" yMax="801">
      <contour>
        <pt x="518" y="800" on="1"/>
        <pt x="531" y="800" on="0"/>
        <pt x="531" y="779" on="1"/>
        <pt x="531" y="89" on="1"/>
        <pt x="531" y="58" on="0"/>
        <pt x="570" y="18" on="0"/>
        <pt x="614" y="18" on="0"/>
        <pt x="614" y="5" on="1"/>
        <pt x="614" y="-11" on="0"/>
        <pt x="575" y="-11" on="1"/>
        <pt x="510" y="-11" on="0"/>
        <pt x="472" y="36" on="1"/>
        <pt x="466" y="44" on="0"/>
        <pt x="459" y="44" on="0"/>
        <pt x="418" y="16" on="0"/>
        <pt x="347" y="-11" on="0"/>
        <pt x="306" y="-11" on="1"/>
        <pt x="187" y="-11" on="0"/>
        <pt x="50" y="133" on="0"/>
        <pt x="50" y="354" on="0"/>
        <pt x="202" y="511" on="0"/>
        <pt x="306" y="511" on="1"/>
        <pt x="382" y="511" on="0"/>
        <pt x="439" y="465" on="1"/>
        <pt x="443" y="462" on="0"/>
        <pt x="453" y="462" on="0"/>
        <pt x="453" y="475" on="1"/>
        <pt x="453" y="720" on="1"/>
        <pt x="453" y="740" on="0"/>
        <pt x="436" y="755" on="0"/>
        <pt x="417" y="755" on="1"/>
        <pt x="383" y="755" on="1"/>
        <pt x="378" y="755" on="0"/>
        <pt x="370" y="764" on="0"/>
        <pt x="370" y="769" on="1"/>
        <pt x="370" y="783" on="0"/>
        <pt x="383" y="784" on="1"/>
        <pt x="515" y="800" on="1"/>
        <pt x="516" y="800" on="0"/>
      </contour>
      <contour>
        <pt x="453" y="135" on="1"/>
        <pt x="453" y="356" on="1"/>
        <pt x="453" y="401" on="0"/>
        <pt x="369" y="465" on="0"/>
        <pt x="309" y="465" on="1"/>
        <pt x="228" y="465" on="0"/>
        <pt x="138" y="364" on="0"/>
        <pt x="138" y="277" on="1"/>
        <pt x="138" y="161" on="0"/>
        <pt x="235" y="30" on="0"/>
        <pt x="311" y="30" on="1"/>
        <pt x="365" y="30" on="0"/>
        <pt x="453" y="94" on="0"/>
      </contour>
    </TTGlyph>
    <TTGlyph name="dagger" xMin="50" yMin="-268" xMax="485" yMax="700">
      <contour>
        <pt x="241" y="700" on="1"/>
        <pt x="295" y="700" on="1"/>
        <pt x="306" y="700" on="0"/>
        <pt x="306" y="688" on="1"/>
        <pt x="300" y="485" on="1"/>
        <pt x="473" y="496" on="1"/>
        <pt x="485" y="496" on="0"/>
        <pt x="485" y="485" on="1"/>
        <pt x="485" y="431" on="1"/>
        <pt x="485" y="420" on="0"/>
        <pt x="473" y="420" on="1"/>
        <pt x="300" y="431" on="1"/>
        <pt x="294" y="-2" on="0"/>
        <pt x="290" y="-257" on="1"/>
        <pt x="290" y="-268" on="0"/>
        <pt x="277" y="-268" on="1"/>
        <pt x="258" y="-268" on="1"/>
        <pt x="245" y="-268" on="0"/>
        <pt x="245" y="-257" on="1"/>
        <pt x="235" y="431" on="1"/>
        <pt x="62" y="420" on="1"/>
        <pt x="50" y="420" on="0"/>
        <pt x="50" y="431" on="1"/>
        <pt x="50" y="485" on="1"/>
        <pt x="50" y="496" on="0"/>
        <pt x="62" y="496" on="1"/>
        <pt x="235" y="485" on="1"/>
        <pt x="230" y="688" on="1"/>
        <pt x="230" y="700" on="0"/>
      </contour>
    </TTGlyph>
    <TTGlyph name="daggerdbl" xMin="50" yMin="-268" xMax="485" yMax="700">
      <contour>
        <pt x="245" y="-257" on="1"/>
        <pt x="240" y="18" on="1"/>
        <pt x="62" y="8" on="1"/>
        <pt x="50" y="8" on="0"/>
        <pt x="50" y="19" on="1"/>
        <pt x="50" y="73" on="1"/>
        <pt x="50" y="84" on="0"/>
        <pt x="62" y="84" on="1"/>
        <pt x="239" y="73" on="1"/>
        <pt x="235" y="431" on="1"/>
        <pt x="62" y="420" on="1"/>
        <pt x="50" y="420" on="0"/>
        <pt x="50" y="431" on="1"/>
        <pt x="50" y="485" on="1"/>
        <pt x="50" y="496" on="0"/>
        <pt x="62" y="496" on="1"/>
        <pt x="235" y="485" on="1"/>
        <pt x="230" y="688" on="1"/>
        <pt x="230" y="700" on="0"/>
        <pt x="241" y="700" on="1"/>
        <pt x="295" y="700" on="1"/>
        <pt x="306" y="700" on="0"/>
        <pt x="306" y="688" on="1"/>
        <pt x="300" y="485" on="1"/>
        <pt x="473" y="496" on="1"/>
        <pt x="485" y="496" on="0"/>
        <pt x="485" y="485" on="1"/>
        <pt x="485" y="431" on="1"/>
        <pt x="485" y="420" on="0"/>
        <pt x="473" y="420" on="1"/>
        <pt x="300" y="431" on="1"/>
        <pt x="297" y="262" on="0"/>
        <pt x="295" y="73" on="1"/>
        <pt x="473" y="84" on="1"/>
        <pt x="485" y="84" on="0"/>
        <pt x="485" y="73" on="1"/>
        <pt x="485" y="19" on="1"/>
        <pt x="485" y="8" on="0"/>
        <pt x="473" y="8" on="1"/>
        <pt x="294" y="18" on="1"/>
        <pt x="290" y="-194" on="0"/>
        <pt x="290" y="-257" on="1"/>
        <pt x="290" y="-268" on="0"/>
        <pt x="277" y="-268" on="1"/>
        <pt x="258" y="-268" on="1"/>
        <pt x="245" y="-268" on="0"/>
      </contour>
    </TTGlyph>
    <TTGlyph name="degree" xMin="60" yMin="425" xMax="348" yMax="711">
      <contour>
        <pt x="60" y="507" on="0"/>
        <pt x="60" y="629" on="0"/>
        <pt x="143" y="711" on="0"/>
        <pt x="265" y="711" on="0"/>
        <pt x="348" y="629" on="0"/>
        <pt x="348" y="507" on="0"/>
        <pt x="265" y="425" on="0"/>
        <pt x="143" y="425" on="0"/>
      </contour>
      <contour>
        <pt x="120" y="605" on="0"/>
        <pt x="120" y="531" on="0"/>
        <pt x="168" y="480" on="0"/>
        <pt x="240" y="480" on="0"/>
        <pt x="288" y="531" on="0"/>
        <pt x="288" y="605" on="0"/>
        <pt x="240" y="656" on="0"/>
        <pt x="168" y="656" on="0"/>
      </contour>
    </TTGlyph>
    <TTGlyph name="dieresis" xMin="60" yMin="607" xMax="355" yMax="711">
      <contour>
        <pt x="60" y="637" on="0"/>
        <pt x="60" y="681" on="0"/>
        <pt x="90" y="711" on="0"/>
        <pt x="134" y="711" on="0"/>
        <pt x="164" y="681" on="0"/>
        <pt x="164" y="637" on="0"/>
        <pt x="134" y="607" on="0"/>
        <pt x="90" y="607" on="0"/>
      </contour>
      <contour>
        <pt x="251" y="637" on="0"/>
        <pt x="251" y="681" on="0"/>
        <pt x="281" y="711" on="0"/>
        <pt x="325" y="711" on="0"/>
        <pt x="355" y="681" on="0"/>
        <pt x="355" y="637" on="0"/>
        <pt x="325" y="607" on="0"/>
        <pt x="281" y="607" on="0"/>
      </contour>
    </TTGlyph>
    <TTGlyph name="dieresis.cap" xMin="60" yMin="807" xMax="355" yMax="911">
      <contour>
        <pt x="60" y="837" on="0"/>
        <pt x="60" y="881" on="0"/>
        <pt x="90" y="911" on="0"/>
        <pt x="134" y="911" on="0"/>
        <pt x="164" y="881" on="0"/>
        <pt x="164" y="837" on="0"/>
        <pt x="134" y="807" on="0"/>
        <pt x="90" y="807" on="0"/>
      </contour>
      <contour>
        <pt x="251" y="837" on="0"/>
        <pt x="251" y="881" on="0"/>
        <pt x="281" y="911" on="0"/>
        <pt x="325" y="911" on="0"/>
        <pt x="355" y="881" on="0"/>
        <pt x="355" y="837" on="0"/>
        <pt x="325" y="807" on="0"/>
        <pt x="281" y="807" on="0"/>
      </contour>
    </TTGlyph>
    <TTGlyph name="divide" xMin="60" yMin="51" xMax="614" yMax="539">
      <contour>
        <pt x="602" y="264" on="1"/>
        <pt x="72" y="264" on="1"/>
        <pt x="60" y="264" on="0"/>
        <pt x="60" y="275" on="1"/>
        <pt x="60" y="315" on="1"/>
        <pt x="60" y="326" on="0"/>
        <pt x="72" y="326" on="1"/>
        <pt x="602" y="326" on="1"/>
        <pt x="614" y="326" on="0"/>
        <pt x="614" y="315" on="1"/>
        <pt x="614" y="275" on="1"/>
        <pt x="614" y="264" on="0"/>
      </contour>
      <contour>
        <pt x="362" y="174" on="0"/>
        <pt x="399" y="138" on="0"/>
        <pt x="399" y="87" on="0"/>
        <pt x="362" y="51" on="0"/>
        <pt x="312" y="51" on="0"/>
        <pt x="276" y="87" on="0"/>
        <pt x="276" y="137" on="0"/>
        <pt x="312" y="174" on="0"/>
      </contour>
      <contour>
        <pt x="399" y="502" on="0"/>
        <pt x="399" y="452" on="0"/>
        <pt x="362" y="416" on="0"/>
        <pt x="312" y="416" on="0"/>
        <pt x="276" y="452" on="0"/>
        <pt x="276" y="502" on="0"/>
        <pt x="312" y="539" on="0"/>
        <pt x="362" y="539" on="0"/>
      </contour>
    </TTGlyph>
    <TTGlyph name="dollar" xMin="50" yMin="-120" xMax="521" yMax="798">
      <contour>
        <pt x="258" y="-108" on="1"/>
        <pt x="258" y="-11" on="1"/>
        <pt x="171" y="-9" on="0"/>
        <pt x="50" y="39" on="0"/>
        <pt x="50" y="66" on="1"/>
        <pt x="50" y="183" on="1"/>
        <pt x="50" y="204" on="0"/>
        <pt x="66" y="204" on="1"/>
        <pt x="79" y="204" on="0"/>
        <pt x="84" y="185" on="1"/>
        <pt x="109" y="113" on="0"/>
        <pt x="183" y="38" on="0"/>
        <pt x="258" y="33" on="1"/>
        <pt x="258" y="326" on="1"/>
        <pt x="212" y="348" on="0"/>
        <pt x="158" y="378" on="0"/>
        <pt x="126" y="404" on="1"/>
        <pt x="62" y="453" on="0"/>
        <pt x="62" y="607" on="0"/>
        <pt x="171" y="702" on="0"/>
        <pt x="258" y="710" on="1"/>
        <pt x="258" y="786" on="1"/>
        <pt x="258" y="798" on="0"/>
        <pt x="269" y="798" on="1"/>
        <pt x="296" y="798" on="1"/>
        <pt x="307" y="798" on="0"/>
        <pt x="307" y="786" on="1"/>
        <pt x="307" y="710" on="1"/>
        <pt x="376" y="707" on="0"/>
        <pt x="481" y="666" on="0"/>
        <pt x="481" y="642" on="1"/>
        <pt x="481" y="541" on="1"/>
        <pt x="481" y="521" on="0"/>
        <pt x="452" y="521" on="0"/>
        <pt x="445" y="541" on="1"/>
        <pt x="425" y="600" on="0"/>
        <pt x="365" y="661" on="0"/>
        <pt x="307" y="666" on="1"/>
        <pt x="307" y="398" on="1"/>
        <pt x="418" y="344" on="0"/>
        <pt x="453" y="312" on="1"/>
        <pt x="501" y="269" on="0"/>
        <pt x="521" y="208" on="0"/>
        <pt x="521" y="181" on="1"/>
        <pt x="521" y="95" on="0"/>
        <pt x="402" y="-2" on="0"/>
        <pt x="307" y="-9" on="1"/>
        <pt x="307" y="-108" on="1"/>
        <pt x="307" y="-120" on="0"/>
        <pt x="296" y="-120" on="1"/>
        <pt x="269" y="-120" on="1"/>
        <pt x="258" y="-120" on="0"/>
      </contour>
      <contour>
        <pt x="362" y="42" on="0"/>
        <pt x="436" y="108" on="0"/>
        <pt x="436" y="207" on="0"/>
        <pt x="369" y="271" on="0"/>
        <pt x="307" y="302" on="1"/>
        <pt x="307" y="35" on="1"/>
      </contour>
      <contour>
        <pt x="204" y="658" on="0"/>
        <pt x="143" y="597" on="0"/>
        <pt x="143" y="510" on="0"/>
        <pt x="202" y="451" on="0"/>
        <pt x="258" y="422" on="1"/>
        <pt x="258" y="665" on="1"/>
      </contour>
    </TTGlyph>
    <TTGlyph name="dotaccent" xMin="65" yMin="594" xMax="169" yMax="698">
      <contour>
        <pt x="65" y="624" on="0"/>
        <pt x="65" y="668" on="0"/>
        <pt x="95" y="698" on="0"/>
        <pt x="139" y="698" on="0"/>
        <pt x="169" y="668" on="0"/>
        <pt x="169" y="624" on="0"/>
        <pt x="139" y="594" on="0"/>
        <pt x="95" y="594" on="0"/>
      </contour>
    </TTGlyph>
    <TTGlyph name="dotaccentcmb" xMin="65" yMin="594" xMax="169" yMax="698">
      <contour>
        <pt x="65" y="624" on="0"/>
        <pt x="65" y="668" on="0"/>
        <pt x="95" y="698" on="0"/>
        <pt x="139" y="698" on="0"/>
        <pt x="169" y="668" on="0"/>
        <pt x="169" y="624" on="0"/>
        <pt x="139" y="594" on="0"/>
        <pt x="95" y="594" on="0"/>
      </contour>
    </TTGlyph>
    <TTGlyph name="dotlessi" xMin="20" yMin="-4" xMax="253" yMax="512">
      <contour>
        <pt x="168" y="511" on="1"/>
        <pt x="184" y="511" on="0"/>
        <pt x="184" y="488" on="1"/>
        <pt x="184" y="66" on="1"/>
        <pt x="184" y="30" on="0"/>
        <pt x="224" y="25" on="1"/>
        <pt x="241" y="23" on="1"/>
        <pt x="253" y="22" on="0"/>
        <pt x="253" y="-4" on="0"/>
        <pt x="238" y="-4" on="1"/>
        <pt x="143" y="0" on="1"/>
        <pt x="35" y="-4" on="1"/>
        <pt x="20" y="-4" on="0"/>
        <pt x="20" y="22" on="0"/>
        <pt x="32" y="23" on="1"/>
        <pt x="60" y="25" on="1"/>
        <pt x="80" y="27" on="0"/>
        <pt x="106" y="48" on="0"/>
        <pt x="106" y="66" on="1"/>
        <pt x="106" y="432" on="1"/>
        <pt x="106" y="452" on="0"/>
        <pt x="89" y="467" on="0"/>
        <pt x="70" y="467" on="1"/>
        <pt x="36" y="467" on="1"/>
        <pt x="23" y="467" on="0"/>
        <pt x="23" y="493" on="0"/>
        <pt x="36" y="495" on="1"/>
        <pt x="166" y="511" on="1"/>
        <pt x="167" y="511" on="0"/>
      </contour>
    </TTGlyph>
    <TTGlyph name="e" xMin="50" yMin="-11" xMax="497" yMax="511">
      <contour>
        <pt x="497" y="316" on="1"/>
        <pt x="497" y="256" on="0"/>
        <pt x="443" y="256" on="1"/>
        <pt x="155" y="256" on="1"/>
        <pt x="143" y="256" on="0"/>
        <pt x="143" y="239" on="1"/>
        <pt x="145" y="147" on="0"/>
        <pt x="248" y="40" on="0"/>
        <pt x="407" y="40" on="0"/>
        <pt x="445" y="71" on="1"/>
        <pt x="458" y="81" on="0"/>
        <pt x="480" y="59" on="0"/>
        <pt x="466" y="45" on="1"/>
        <pt x="410" y="-11" on="0"/>
        <pt x="312" y="-11" on="1"/>
        <pt x="189" y="-11" on="0"/>
        <pt x="50" y="130" on="0"/>
        <pt x="50" y="256" on="1"/>
        <pt x="50" y="358" on="0"/>
        <pt x="188" y="511" on="0"/>
        <pt x="379" y="511" on="0"/>
        <pt x="497" y="400" on="0"/>
      </contour>
      <contour>
        <pt x="407" y="329" on="1"/>
        <pt x="407" y="389" on="0"/>
        <pt x="342" y="472" on="0"/>
        <pt x="225" y="472" on="0"/>
        <pt x="143" y="376" on="0"/>
        <pt x="143" y="314" on="1"/>
        <pt x="143" y="298" on="0"/>
        <pt x="156" y="298" on="1"/>
        <pt x="376" y="298" on="1"/>
        <pt x="407" y="298" on="0"/>
      </contour>
    </TTGlyph>
    <TTGlyph name="eacute" xMin="50" yMin="-11" xMax="497" yMax="743">
      <contour>
        <pt x="497" y="316" on="1"/>
        <pt x="497" y="256" on="0"/>
        <pt x="443" y="256" on="1"/>
        <pt x="155" y="256" on="1"/>
        <pt x="143" y="256" on="0"/>
        <pt x="143" y="239" on="1"/>
        <pt x="145" y="147" on="0"/>
        <pt x="248" y="40" on="0"/>
        <pt x="407" y="40" on="0"/>
        <pt x="445" y="71" on="1"/>
        <pt x="458" y="81" on="0"/>
        <pt x="480" y="59" on="0"/>
        <pt x="466" y="45" on="1"/>
        <pt x="410" y="-11" on="0"/>
        <pt x="312" y="-11" on="1"/>
        <pt x="189" y="-11" on="0"/>
        <pt x="50" y="130" on="0"/>
        <pt x="50" y="256" on="1"/>
        <pt x="50" y="358" on="0"/>
        <pt x="188" y="511" on="0"/>
        <pt x="379" y="511" on="0"/>
        <pt x="497" y="400" on="0"/>
      </contour>
      <contour>
        <pt x="407" y="329" on="1"/>
        <pt x="407" y="389" on="0"/>
        <pt x="342" y="472" on="0"/>
        <pt x="225" y="472" on="0"/>
        <pt x="143" y="376" on="0"/>
        <pt x="143" y="314" on="1"/>
        <pt x="143" y="298" on="0"/>
        <pt x="156" y="298" on="1"/>
        <pt x="376" y="298" on="1"/>
        <pt x="407" y="298" on="0"/>
      </contour>
      <contour>
        <pt x="314" y="734" on="1"/>
        <pt x="324" y="743" on="0"/>
        <pt x="353" y="743" on="0"/>
        <pt x="378" y="714" on="0"/>
        <pt x="378" y="675" on="0"/>
        <pt x="359" y="665" on="1"/>
        <pt x="181" y="578" on="1"/>
        <pt x="163" y="602" on="1"/>
      </contour>
    </TTGlyph>
    <TTGlyph name="ecircumflex" xMin="50" yMin="-11" xMax="497" yMax="752">
      <component glyphName="e" x="0" y="0" flags="0x1004"/>
      <component glyphName="circumflex" x="66" y="0" flags="0x1004"/>
    </TTGlyph>
    <TTGlyph name="edieresis" xMin="50" yMin="-11" xMax="497" yMax="711">
      <contour>
        <pt x="497" y="316" on="1"/>
        <pt x="497" y="256" on="0"/>
        <pt x="443" y="256" on="1"/>
        <pt x="155" y="256" on="1"/>
        <pt x="143" y="256" on="0"/>
        <pt x="143" y="239" on="1"/>
        <pt x="145" y="147" on="0"/>
        <pt x="248" y="40" on="0"/>
        <pt x="407" y="40" on="0"/>
        <pt x="445" y="71" on="1"/>
        <pt x="458" y="81" on="0"/>
        <pt x="480" y="59" on="0"/>
        <pt x="466" y="45" on="1"/>
        <pt x="410" y="-11" on="0"/>
        <pt x="312" y="-11" on="1"/>
        <pt x="189" y="-11" on="0"/>
        <pt x="50" y="130" on="0"/>
        <pt x="50" y="256" on="1"/>
        <pt x="50" y="358" on="0"/>
        <pt x="188" y="511" on="0"/>
        <pt x="379" y="511" on="0"/>
        <pt x="497" y="400" on="0"/>
      </contour>
      <contour>
        <pt x="407" y="329" on="1"/>
        <pt x="407" y="389" on="0"/>
        <pt x="342" y="472" on="0"/>
        <pt x="225" y="472" on="0"/>
        <pt x="143" y="376" on="0"/>
        <pt x="143" y="314" on="1"/>
        <pt x="143" y="298" on="0"/>
        <pt x="156" y="298" on="1"/>
        <pt x="376" y="298" on="1"/>
        <pt x="407" y="298" on="0"/>
      </contour>
      <contour>
        <pt x="133" y="637" on="0"/>
        <pt x="133" y="681" on="0"/>
        <pt x="163" y="711" on="0"/>
        <pt x="207" y="711" on="0"/>
        <pt x="237" y="681" on="0"/>
        <pt x="237" y="637" on="0"/>
        <pt x="207" y="607" on="0"/>
        <pt x="163" y="607" on="0"/>
      </contour>
      <contour>
        <pt x="324" y="637" on="0"/>
        <pt x="324" y="681" on="0"/>
        <pt x="354" y="711" on="0"/>
        <pt x="398" y="711" on="0"/>
        <pt x="428" y="681" on="0"/>
        <pt x="428" y="637" on="0"/>
        <pt x="398" y="607" on="0"/>
        <pt x="354" y="607" on="0"/>
      </contour>
    </TTGlyph>
    <TTGlyph name="egrave" xMin="50" yMin="-11" xMax="497" yMax="743">
      <component glyphName="e" x="0" y="0" flags="0x1004"/>
      <component glyphName="grave" x="88" y="0" flags="0x1004"/>
    </TTGlyph>
    <TTGlyph name="eight" xMin="55" yMin="-11" xMax="469" yMax="711">
      <contour>
        <pt x="165" y="-11" on="0"/>
        <pt x="55" y="85" on="0"/>
        <pt x="55" y="220" on="0"/>
        <pt x="127" y="311" on="0"/>
        <pt x="193" y="357" on="1"/>
        <pt x="139" y="397" on="0"/>
        <pt x="79" y="483" on="0"/>
        <pt x="79" y="615" on="0"/>
        <pt x="189" y="711" on="0"/>
        <pt x="343" y="711" on="0"/>
        <pt x="443" y="625" on="0"/>
        <pt x="443" y="506" on="0"/>
        <pt x="380" y="423" on="0"/>
        <pt x="322" y="383" on="1"/>
        <pt x="391" y="337" on="0"/>
        <pt x="469" y="241" on="0"/>
        <pt x="469" y="90" on="0"/>
        <pt x="338" y="-11" on="0"/>
      </contour>
      <contour>
        <pt x="336" y="253" on="1"/>
        <pt x="309" y="277" on="0"/>
        <pt x="278" y="299" on="0"/>
        <pt x="237" y="326" on="1"/>
        <pt x="176" y="285" on="0"/>
        <pt x="111" y="208" on="0"/>
        <pt x="111" y="105" on="0"/>
        <pt x="193" y="33" on="0"/>
        <pt x="305" y="33" on="0"/>
        <pt x="384" y="103" on="0"/>
        <pt x="384" y="210" on="0"/>
      </contour>
      <contour>
        <pt x="224" y="667" on="0"/>
        <pt x="160" y="608" on="0"/>
        <pt x="160" y="519" on="0"/>
        <pt x="220" y="452" on="0"/>
        <pt x="277" y="414" on="1"/>
        <pt x="330" y="451" on="0"/>
        <pt x="387" y="519" on="0"/>
        <pt x="387" y="607" on="0"/>
        <pt x="320" y="667" on="0"/>
      </contour>
    </TTGlyph>
    <TTGlyph name="ellipsis" xMin="60" yMin="-11" xMax="609" yMax="112">
      <contour>
        <pt x="146" y="112" on="0"/>
        <pt x="183" y="76" on="0"/>
        <pt x="183" y="25" on="0"/>
        <pt x="146" y="-11" on="0"/>
        <pt x="96" y="-11" on="0"/>
        <pt x="60" y="25" on="0"/>
        <pt x="60" y="75" on="0"/>
        <pt x="96" y="112" on="0"/>
      </contour>
      <contour>
        <pt x="360" y="112" on="0"/>
        <pt x="396" y="76" on="0"/>
        <pt x="396" y="25" on="0"/>
        <pt x="359" y="-11" on="0"/>
        <pt x="309" y="-11" on="0"/>
        <pt x="273" y="25" on="0"/>
        <pt x="273" y="75" on="0"/>
        <pt x="309" y="112" on="0"/>
      </contour>
      <contour>
        <pt x="572" y="112" on="0"/>
        <pt x="609" y="76" on="0"/>
        <pt x="609" y="25" on="0"/>
        <pt x="572" y="-11" on="0"/>
        <pt x="522" y="-11" on="0"/>
        <pt x="486" y="25" on="0"/>
        <pt x="486" y="75" on="0"/>
        <pt x="522" y="112" on="0"/>
      </contour>
    </TTGlyph>
    <TTGlyph name="emdash" xMin="70" yMin="260" xMax="1162" yMax="329">
      <contour>
        <pt x="82" y="329" on="1"/>
        <pt x="1150" y="329" on="1"/>
        <pt x="1162" y="329" on="0"/>
        <pt x="1162" y="318" on="1"/>
        <pt x="1162" y="271" on="1"/>
        <pt x="1162" y="260" on="0"/>
        <pt x="1150" y="260" on="1"/>
        <pt x="82" y="260" on="1"/>
        <pt x="70" y="260" on="0"/>
        <pt x="70" y="271" on="1"/>
        <pt x="70" y="318" on="1"/>
        <pt x="70" y="329" on="0"/>
      </contour>
    </TTGlyph>
    <TTGlyph name="endash" xMin="70" yMin="260" xMax="648" yMax="329">
      <contour>
        <pt x="82" y="329" on="1"/>
        <pt x="636" y="329" on="1"/>
        <pt x="648" y="329" on="0"/>
        <pt x="648" y="318" on="1"/>
        <pt x="648" y="271" on="1"/>
        <pt x="648" y="260" on="0"/>
        <pt x="636" y="260" on="1"/>
        <pt x="82" y="260" on="1"/>
        <pt x="70" y="260" on="0"/>
        <pt x="70" y="271" on="1"/>
        <pt x="70" y="318" on="1"/>
        <pt x="70" y="329" on="0"/>
      </contour>
    </TTGlyph>
    <TTGlyph name="equal" xMin="80" yMin="162" xMax="634" yMax="428">
      <contour>
        <pt x="622" y="366" on="1"/>
        <pt x="92" y="366" on="1"/>
        <pt x="80" y="366" on="0"/>
        <pt x="80" y="377" on="1"/>
        <pt x="80" y="417" on="1"/>
        <pt x="80" y="428" on="0"/>
        <pt x="92" y="428" on="1"/>
        <pt x="622" y="428" on="1"/>
        <pt x="634" y="428" on="0"/>
        <pt x="634" y="417" on="1"/>
        <pt x="634" y="377" on="1"/>
        <pt x="634" y="366" on="0"/>
      </contour>
      <contour>
        <pt x="622" y="162" on="1"/>
        <pt x="92" y="162" on="1"/>
        <pt x="80" y="162" on="0"/>
        <pt x="80" y="173" on="1"/>
        <pt x="80" y="213" on="1"/>
        <pt x="80" y="224" on="0"/>
        <pt x="92" y="224" on="1"/>
        <pt x="622" y="224" on="1"/>
        <pt x="634" y="224" on="0"/>
        <pt x="634" y="213" on="1"/>
        <pt x="634" y="173" on="1"/>
        <pt x="634" y="162" on="0"/>
      </contour>
    </TTGlyph>
    <TTGlyph name="eth" xMin="50" yMin="-11" xMax="556" yMax="802">
      <contour>
        <pt x="190" y="752" on="1"/>
        <pt x="177" y="760" on="0"/>
        <pt x="177" y="786" on="0"/>
        <pt x="196" y="801" on="0"/>
        <pt x="211" y="801" on="0"/>
        <pt x="212" y="800" on="1"/>
        <pt x="273" y="771" on="0"/>
        <pt x="330" y="729" on="1"/>
        <pt x="425" y="799" on="1"/>
        <pt x="429" y="802" on="0"/>
        <pt x="437" y="802" on="0"/>
        <pt x="442" y="798" on="1"/>
        <pt x="457" y="776" on="1"/>
        <pt x="464" y="766" on="0"/>
        <pt x="454" y="760" on="1"/>
        <pt x="369" y="697" on="1"/>
        <pt x="459" y="616" on="0"/>
        <pt x="556" y="403" on="0"/>
        <pt x="556" y="286" on="1"/>
        <pt x="556" y="140" on="0"/>
        <pt x="423" y="-11" on="0"/>
        <pt x="187" y="-11" on="0"/>
        <pt x="50" y="133" on="0"/>
        <pt x="50" y="365" on="0"/>
        <pt x="190" y="511" on="0"/>
        <pt x="303" y="511" on="1"/>
        <pt x="377" y="511" on="0"/>
        <pt x="437" y="467" on="1"/>
        <pt x="413" y="574" on="0"/>
        <pt x="319" y="660" on="1"/>
        <pt x="213" y="582" on="1"/>
        <pt x="205" y="574" on="0"/>
        <pt x="196" y="583" on="1"/>
        <pt x="181" y="605" on="1"/>
        <pt x="173" y="615" on="0"/>
        <pt x="184" y="621" on="1"/>
        <pt x="281" y="692" on="1"/>
        <pt x="239" y="724" on="0"/>
      </contour>
      <contour>
        <pt x="436" y="389" on="1"/>
        <pt x="419" y="427" on="0"/>
        <pt x="352" y="472" on="0"/>
        <pt x="304" y="472" on="1"/>
        <pt x="221" y="472" on="0"/>
        <pt x="139" y="362" on="0"/>
        <pt x="139" y="273" on="1"/>
        <pt x="139" y="181" on="0"/>
        <pt x="171" y="110" on="1"/>
        <pt x="188" y="73" on="0"/>
        <pt x="255" y="28" on="0"/>
        <pt x="301" y="28" on="1"/>
        <pt x="386" y="28" on="0"/>
        <pt x="467" y="138" on="0"/>
        <pt x="467" y="320" on="0"/>
      </contour>
    </TTGlyph>
    <TTGlyph name="exclam" xMin="70" yMin="-11" xMax="193" yMax="711">
      <contour>
        <pt x="181" y="668" on="1"/>
        <pt x="181" y="668" on="0"/>
        <pt x="149" y="231" on="1"/>
        <pt x="149" y="220" on="0"/>
        <pt x="136" y="220" on="1"/>
        <pt x="126" y="220" on="1"/>
        <pt x="114" y="220" on="0"/>
        <pt x="113" y="231" on="1"/>
        <pt x="107" y="320" on="0"/>
        <pt x="81" y="651" on="0"/>
        <pt x="81" y="690" on="0"/>
        <pt x="111" y="711" on="0"/>
        <pt x="152" y="711" on="0"/>
        <pt x="181" y="689" on="0"/>
      </contour>
      <contour>
        <pt x="156" y="112" on="0"/>
        <pt x="193" y="76" on="0"/>
        <pt x="193" y="25" on="0"/>
        <pt x="156" y="-11" on="0"/>
        <pt x="106" y="-11" on="0"/>
        <pt x="70" y="25" on="0"/>
        <pt x="70" y="75" on="0"/>
        <pt x="106" y="112" on="0"/>
      </contour>
    </TTGlyph>
    <TTGlyph name="exclamdown" xMin="70" yMin="-211" xMax="193" yMax="511">
      <contour>
        <pt x="82" y="-168" on="1"/>
        <pt x="82" y="-168" on="0"/>
        <pt x="114" y="269" on="1"/>
        <pt x="114" y="280" on="0"/>
        <pt x="127" y="280" on="1"/>
        <pt x="137" y="280" on="1"/>
        <pt x="149" y="280" on="0"/>
        <pt x="150" y="269" on="1"/>
        <pt x="156" y="180" on="0"/>
        <pt x="182" y="-151" on="0"/>
        <pt x="182" y="-190" on="0"/>
        <pt x="152" y="-211" on="0"/>
        <pt x="111" y="-211" on="0"/>
        <pt x="82" y="-189" on="0"/>
      </contour>
      <contour>
        <pt x="106" y="388" on="0"/>
        <pt x="70" y="424" on="0"/>
        <pt x="70" y="475" on="0"/>
        <pt x="107" y="511" on="0"/>
        <pt x="157" y="511" on="0"/>
        <pt x="193" y="475" on="0"/>
        <pt x="193" y="425" on="0"/>
        <pt x="157" y="388" on="0"/>
      </contour>
    </TTGlyph>
    <TTGlyph name="f" xMin="20" yMin="-4" xMax="432" yMax="800">
      <contour>
        <pt x="183" y="439" on="1"/>
        <pt x="183" y="66" on="1"/>
        <pt x="183" y="48" on="0"/>
        <pt x="209" y="26" on="0"/>
        <pt x="229" y="25" on="1"/>
        <pt x="265" y="23" on="1"/>
        <pt x="277" y="22" on="0"/>
        <pt x="277" y="-4" on="0"/>
        <pt x="262" y="-4" on="1"/>
        <pt x="146" y="0" on="1"/>
        <pt x="51" y="-4" on="1"/>
        <pt x="36" y="-4" on="0"/>
        <pt x="36" y="22" on="0"/>
        <pt x="48" y="23" on="1"/>
        <pt x="65" y="25" on="1"/>
        <pt x="105" y="30" on="0"/>
        <pt x="105" y="66" on="1"/>
        <pt x="105" y="439" on="1"/>
        <pt x="105" y="450" on="0"/>
        <pt x="93" y="450" on="1"/>
        <pt x="32" y="450" on="1"/>
        <pt x="20" y="450" on="0"/>
        <pt x="20" y="463" on="1"/>
        <pt x="20" y="471" on="1"/>
        <pt x="20" y="481" on="0"/>
        <pt x="32" y="483" on="1"/>
        <pt x="88" y="497" on="1"/>
        <pt x="105" y="501" on="0"/>
        <pt x="105" y="515" on="1"/>
        <pt x="105" y="519" on="1"/>
        <pt x="105" y="638" on="0"/>
        <pt x="226" y="800" on="0"/>
        <pt x="329" y="800" on="1"/>
        <pt x="368" y="800" on="0"/>
        <pt x="393" y="790" on="1"/>
        <pt x="432" y="776" on="0"/>
        <pt x="432" y="754" on="1"/>
        <pt x="432" y="689" on="1"/>
        <pt x="432" y="683" on="0"/>
        <pt x="423" y="672" on="0"/>
        <pt x="417" y="672" on="1"/>
        <pt x="403" y="672" on="0"/>
        <pt x="396" y="689" on="1"/>
        <pt x="384" y="719" on="0"/>
        <pt x="331" y="752" on="0"/>
        <pt x="298" y="752" on="1"/>
        <pt x="241" y="752" on="0"/>
        <pt x="183" y="664" on="0"/>
        <pt x="183" y="583" on="1"/>
        <pt x="183" y="511" on="1"/>
        <pt x="183" y="500" on="0"/>
        <pt x="193" y="500" on="1"/>
        <pt x="323" y="500" on="1"/>
        <pt x="336" y="500" on="0"/>
        <pt x="334" y="488" on="1"/>
        <pt x="330" y="463" on="1"/>
        <pt x="328" y="450" on="0"/>
        <pt x="318" y="450" on="1"/>
        <pt x="192" y="450" on="1"/>
        <pt x="183" y="450" on="0"/>
      </contour>
    </TTGlyph>
</ttFont>
